SplineFontDB: 3.0
FontName: ume-stroke-stroke-thin-thin
FullName: Ume P Gothic Balsa Regular
FamilyName: ume-stroke-stroke-thin-thin
Weight: Book
Copyright: Author: HORAI Wataru. License: This font is a free software. Unlimited permission is granted to use, copy, and distribute it, with or without modification, either commercially and noncommercially. THIS FONT IS PROVIDED "AS IS" WITHOUT WARRANTY.
Version: Look update time of this file.
ItalicAngle: 0
UnderlinePosition: -180
UnderlineWidth: 24
Ascent: 1760
Descent: 288
InvalidEm: 0
LayerCount: 2
Layer: 0 0 "Arri+AOgA-re" 1
Layer: 1 0 "Avant" 0
StyleMap: 0x0000
FSType: 0
OS2Version: 0
OS2_WeightWidthSlopeOnly: 0
OS2_UseTypoMetrics: 0
CreationTime: 1494259655
ModificationTime: 1494260457
OS2TypoAscent: 0
OS2TypoAOffset: 1
OS2TypoDescent: 0
OS2TypoDOffset: 1
OS2TypoLinegap: 184
OS2WinAscent: 0
OS2WinAOffset: 1
OS2WinDescent: 0
OS2WinDOffset: 1
HheadAscent: 0
HheadAOffset: 1
HheadDescent: 0
HheadDOffset: 1
OS2Vendor: 'PfEd'
DEI: 91125
Encoding: Custom
UnicodeInterp: none
NameList: AGL For New Fonts
DisplaySize: -36
AntiAlias: 1
FitToEm: 0
WinInfo: 0 36 12
BeginPrivate: 4
StdHW 4 [25]
StemSnapH 17 [5 25 39 45 460 ]
BlueValues 28 [-0 -0 1176 1176 1552 1552 ]
OtherBlues 12 [-288 -288 ]
EndPrivate
BeginChars: 295 232

StartChar: .notdef
Encoding: 0 -1 0
Width: 748
LayerCount: 2
Fore
SplineSet
68 0 m 1
 68 1365 l 1
 612 1365 l 1
 612 0 l 1
 68 0 l 1
136 68 m 1
 544 68 l 1
 544 1297 l 1
 136 1297 l 1
 136 68 l 1
EndSplineSet
Validated: 1
EndChar

StartChar: exclam
Encoding: 33 33 4
Width: 448
Flags: W
LayerCount: 2
Fore
SplineSet
128 1552 m 1
 320 1552 l 1
 280 488 l 1
 160 488 l 1
 128 1552 l 1
152 0 m 1
 152 264 l 1
 296 264 l 1
 296 0 l 1
 152 0 l 1
EndSplineSet
Validated: 1
EndChar

StartChar: quotedbl
Encoding: 34 34 5
Width: 1024
Flags: W
LayerCount: 2
Fore
SplineSet
136 864 m 1
 136 1008 l 1
 211 1008 248 1093 248 1264 c 1
 136 1264 l 1
 136 1552 l 1
 368 1552 l 1
 368 1256 l 2
 368 1005 291 875 136 864 c 1
512 864 m 1
 512 1008 l 1
 587 1008 624 1093 624 1264 c 1
 512 1264 l 1
 512 1552 l 1
 744 1552 l 1
 744 1256 l 2
 744 1005 667 875 512 864 c 1
EndSplineSet
Validated: 1
EndChar

StartChar: numbersign
Encoding: 35 35 6
Width: 1024
Flags: W
LayerCount: 2
Fore
SplineSet
24 464 m 1
 24 576 l 1
 199 576 l 1
 276 1040 l 1
 88 1040 l 1
 88 1152 l 1
 294 1152 l 1
 360 1552 l 1
 504 1552 l 1
 438 1152 l 1
 702 1152 l 1
 768 1552 l 1
 912 1552 l 1
 846 1152 l 1
 1000 1152 l 1
 1000 1040 l 1
 828 1040 l 1
 751 576 l 1
 928 576 l 1
 928 464 l 1
 732 464 l 1
 656 0 l 1
 512 0 l 1
 588 464 l 1
 324 464 l 1
 248 0 l 1
 104 0 l 1
 180 464 l 1
 24 464 l 1
343 576 m 1
 607 576 l 1
 684 1040 l 1
 420 1040 l 1
 343 576 l 1
EndSplineSet
Validated: 1
EndChar

StartChar: dollar
Encoding: 36 36 7
Width: 1024
Flags: W
LayerCount: 2
Fore
SplineSet
80 184 m 1
 80 376 l 1
 160 285 237 224 312 192 c 0
 357 172 400 158 440 151 c 1
 440 722 l 1
 395 733 345 749 292 772 c 0
 236 796 187 839 144 900 c 0
 101 961 80 1040 80 1136 c 0
 80 1259 109 1359 168 1436 c 0
 218 1503 309 1541 440 1550 c 1
 440 1760 l 1
 584 1760 l 1
 584 1548 l 1
 641 1542 695 1529 744 1508 c 0
 813 1479 877 1435 936 1376 c 1
 936 1160 l 1
 861 1251 795 1316 736 1356 c 0
 693 1385 643 1404 584 1412 c 1
 584 822 l 1
 645 811 705 787 764 752 c 0
 825 715 871 668 900 612 c 0
 929 556 944 488 944 408 c 0
 944 269 911 167 844 100 c 0
 788 44 701 11 584 2 c 1
 584 -288 l 1
 440 -288 l 1
 440 6 l 1
 391 13 339 27 284 48 c 0
 201 80 133 125 80 184 c 1
232 1136 m 0
 232 1045 253 979 296 936 c 0
 335 897 383 872 440 859 c 1
 440 1412 l 1
 367 1404 317 1381 288 1344 c 0
 251 1296 232 1227 232 1136 c 0
584 148 m 1
 645 156 693 175 728 204 c 0
 776 244 800 312 800 408 c 0
 800 499 772 567 716 612 c 0
 667 652 623 679 584 692 c 1
 584 148 l 1
EndSplineSet
Validated: 1
EndChar

StartChar: percent
Encoding: 37 37 8
Width: 1024
Flags: W
LayerCount: 2
Fore
SplineSet
16 1128 m 0
 16 1288 36 1407 76 1484 c 0
 116 1561 176 1600 256 1600 c 0
 341 1600 401 1557 436 1472 c 0
 471 1387 488 1272 488 1128 c 0
 488 957 468 836 428 764 c 0
 388 692 331 656 256 656 c 0
 165 656 103 697 68 780 c 0
 33 863 16 979 16 1128 c 0
104 -88 m 1
 784 1624 l 1
 936 1624 l 1
 256 -88 l 1
 104 -88 l 1
168 1128 m 0
 168 899 197 784 256 784 c 0
 315 784 344 899 344 1128 c 0
 344 1352 315 1464 256 1464 c 1
 197 1469 168 1357 168 1128 c 0
520 352 m 0
 520 512 539 629 576 704 c 0
 613 779 672 816 752 816 c 0
 832 816 892 776 932 696 c 0
 972 616 992 501 992 352 c 0
 992 181 971 63 928 -4 c 0
 885 -71 827 -104 752 -104 c 0
 667 -104 607 -65 572 12 c 0
 537 89 520 203 520 352 c 0
672 352 m 0
 672 139 699 32 752 32 c 0
 816 32 848 139 848 352 c 0
 848 571 816 680 752 680 c 0
 699 680 672 571 672 352 c 0
EndSplineSet
Validated: 33
EndChar

StartChar: ampersand
Encoding: 38 38 9
Width: 1216
Flags: W
LayerCount: 2
Fore
SplineSet
64 384 m 0
 64 464 87 536 132 600 c 0
 177 664 239 719 316 764 c 0
 327 771 338 777 350 784 c 1
 255 959 205 1103 200 1216 c 1
 205 1333 240 1420 304 1476 c 0
 368 1532 448 1557 544 1552 c 1
 645 1552 724 1524 780 1468 c 0
 836 1412 864 1336 864 1240 c 0
 864 1144 835 1056 776 976 c 0
 717 896 655 832 588 784 c 0
 568 769 546 754 523 738 c 1
 585 638 677 516 799 372 c 1
 835 424 862 480 880 540 c 0
 912 644 933 765 944 904 c 1
 1096 904 l 1
 1085 728 1055 576 1004 448 c 0
 976 377 942 313 901 254 c 1
 972 175 1050 91 1136 0 c 1
 920 0 l 1
 879 47 840 93 803 138 c 1
 799 134 795 131 792 128 c 0
 701 43 589 0 456 0 c 0
 339 0 244 32 172 96 c 0
 100 160 64 256 64 384 c 0
208 384 m 1
 208 293 233 231 284 196 c 0
 335 161 395 144 464 144 c 0
 543 144 623 183 704 260 c 1
 589 405 495 540 420 664 c 1
 399 648 376 632 352 616 c 0
 261 552 213 475 208 384 c 1
344 1216 m 0
 348 1113 385 994 456 857 c 1
 495 886 535 917 576 952 c 0
 672 1032 720 1128 720 1240 c 0
 720 1299 704 1344 672 1376 c 0
 640 1408 597 1424 544 1424 c 0
 480 1424 431 1405 396 1368 c 0
 361 1331 344 1280 344 1216 c 0
EndSplineSet
Validated: 33
EndChar

StartChar: quotesingle
Encoding: 39 39 10
Width: 416
Flags: MW
HStem: 1103 460<148 204.5>
VStem: 188 25<1285.5 1289 1289 1550> 226 25<1268 1268 1268 1289 1289 1292 1292 1550>
LayerCount: 2
Fore
SplineSet
201 1563 m 0
 208 1563 213 1557 213 1550 c 1
 213 1550 213 1550 213 1550 c 1
 213 1289 l 1
 213 1289 213 1289 213 1289 c 1
 213 1282 208 1276 201 1276 c 0
 194 1276 188 1282 188 1289 c 1
 188 1289 188 1289 188 1289 c 1
 188 1550 l 1
 188 1550 188 1550 188 1550 c 1
 188 1557 194 1563 201 1563 c 0
238 1563 m 0
 245 1563 251 1557 251 1550 c 1
 251 1550 251 1550 251 1550 c 1
 251 1292 l 1
 251 1289 l 1
 251 1264 l 1
 251 1264 251 1264 251 1263 c 1
 251 1263 l 1
 251 1263 l 1
 251 1263 251 1261 251 1261 c 1
 251 1261 251 1261 251 1261 c 1
 250 1260 250 1260 250 1260 c 1
 250 1260 250 1260 250 1260 c 1
 250 1259 249 1258 249 1257 c 2
 148 1103 l 2
 147 1102 147 1101 146 1101 c 0
 144 1098 140 1096 137 1096 c 0
 130 1096 124 1102 124 1109 c 0
 124 1111 125 1114 126 1116 c 2
 226 1268 l 1
 226 1268 l 1
 226 1289 l 1
 226 1292 l 1
 226 1550 l 1
 226 1550 226 1550 226 1550 c 1
 226 1557 232 1563 238 1563 c 0
EndSplineSet
Validated: 5
EndChar

StartChar: parenleft
Encoding: 40 40 11
Width: 624
Flags: W
LayerCount: 2
Fore
SplineSet
104 736 m 0
 104 1120 216 1448 440 1720 c 1
 544 1656 l 1
 352 1384 256 1077 256 736 c 0
 256 379 352 69 544 -192 c 1
 440 -256 l 1
 216 11 104 341 104 736 c 0
EndSplineSet
Validated: 1
EndChar

StartChar: parenright
Encoding: 41 41 12
Width: 624
Flags: W
LayerCount: 2
Fore
SplineSet
80 -192 m 1
 277 69 376 379 376 736 c 0
 376 1077 277 1384 80 1656 c 1
 184 1720 l 1
 419 1443 536 1115 536 736 c 0
 536 341 419 11 184 -256 c 1
 80 -192 l 1
EndSplineSet
Validated: 1
EndChar

StartChar: asterisk
Encoding: 42 42 13
Width: 1024
Flags: W
LayerCount: 2
Fore
SplineSet
80 512 m 1
 392 776 l 1
 80 1048 l 1
 192 1208 l 1
 448 920 l 1
 424 1552 l 1
 600 1552 l 1
 576 920 l 1
 840 1208 l 1
 944 1048 l 1
 640 776 l 1
 952 512 l 1
 840 344 l 1
 576 648 l 1
 600 0 l 1
 424 0 l 1
 448 648 l 1
 192 344 l 1
 80 512 l 1
EndSplineSet
Validated: 1
EndChar

StartChar: plus
Encoding: 43 43 14
Width: 1024
Flags: W
LayerCount: 2
Fore
SplineSet
56 680 m 1
 56 816 l 1
 440 816 l 1
 440 1472 l 1
 584 1472 l 1
 584 816 l 1
 960 816 l 1
 960 680 l 1
 584 680 l 1
 584 0 l 1
 440 0 l 1
 440 680 l 1
 56 680 l 1
EndSplineSet
Validated: 1
EndChar

StartChar: comma
Encoding: 44 44 15
Width: 416
Flags: W
LayerCount: 2
Fore
SplineSet
88 112 m 1
 88 400 l 1
 336 400 l 1
 336 112 l 2
 336 -149 253 -283 88 -288 c 1
 88 -144 l 1
 168 -144 208 -59 208 112 c 1
 88 112 l 1
EndSplineSet
Validated: 1
EndChar

StartChar: hyphen
Encoding: 45 45 16
Width: 1024
Flags: W
LayerCount: 2
Fore
SplineSet
152 544 m 1
 152 656 l 1
 864 656 l 1
 864 544 l 1
 152 544 l 1
EndSplineSet
Validated: 1
EndChar

StartChar: period
Encoding: 46 46 17
Width: 416
Flags: W
LayerCount: 2
Fore
SplineSet
104 0 m 1
 104 400 l 1
 320 400 l 1
 320 0 l 1
 104 0 l 1
EndSplineSet
Validated: 1
EndChar

StartChar: slash
Encoding: 47 47 18
Width: 1024
Flags: W
LayerCount: 2
Fore
SplineSet
112 -136 m 1
 768 1664 l 1
 912 1616 l 1
 248 -192 l 1
 112 -136 l 1
EndSplineSet
Validated: 1
EndChar

StartChar: zero
Encoding: 48 48 19
Width: 1024
Flags: MW
HStem: 18 25 60 25<489.5 544.5 489.5 547.5> 1458 25<491.5 571.5> 1498 25<465 547 489 547>
VStem: 142 25<661.5 872 661.5 873.5> 191 25<679.5 871 679.5 872> 820 25<680 877> 868 25<662.5 872>
LayerCount: 2
Fore
SplineSet
489 1523 m 2
 547 1523 l 2
 601 1523 651 1500 693 1461 c 0
 736 1422 772 1366 801 1298 c 0
 860 1161 893 975 893 772 c 0
 893 550 861 364 798 231 c 0
 736 99 641 19 519 18 c 0
 397 16 301 95 238 228 c 0
 175 361 142 549 142 772 c 0
 142 975 175 1161 234 1298 c 0
 263 1366 299 1422 342 1461 c 0
 384 1500 434 1523 489 1523 c 2
489 1498 m 2
 441 1498 398 1479 359 1443 c 0
 320 1407 285 1354 257 1288 c 0
 200 1156 167 972 167 772 c 0
 167 551 200 366 260 239 c 0
 321 111 407 41 518 42 c 0
 630 44 716 115 776 242 c 0
 836 370 868 553 868 772 c 0
 868 972 835 1156 778 1288 c 0
 750 1354 715 1407 676 1443 c 0
 637 1479 594 1498 547 1498 c 2
 489 1498 l 2
519 1483 m 0
 635 1483 719 1409 771 1285 c 0
 822 1161 845 985 845 771 c 0
 845 588 825 412 774 280 c 0
 749 214 716 160 673 121 c 0
 631 82 578 60 517 60 c 0
 456 60 404 82 361 121 c 0
 319 160 286 214 261 280 c 0
 211 412 191 587 191 770 c 0
 191 974 214 1150 266 1277 c 0
 292 1341 325 1392 367 1427 c 0
 409 1463 460 1483 519 1483 c 0
518 1458 m 0
 465 1458 421 1441 383 1408 c 0
 345 1376 314 1329 289 1268 c 0
 239 1146 216 972 216 770 c 0
 216 589 236 416 284 289 c 0
 309 226 340 174 378 139 c 0
 417 104 462 85 517 85 c 0
 572 85 618 104 656 139 c 0
 695 175 726 226 751 289 c 0
 799 416 820 589 820 771 c 0
 820 983 797 1157 748 1275 c 0
 698 1394 625 1458 518 1458 c 0
EndSplineSet
Validated: 33
EndChar

StartChar: one
Encoding: 49 49 20
Width: 1024
Flags: MW
HStem: 37 25<196.5 482 200 494.5> 82 25 1237 25<195.5 199 199 199> 1274 25<195.5 199 199 199>
VStem: 481 25<1550 1553.5> 518 25<108 1435 1435 1435 1537.5 1550 108 1553.5>
LayerCount: 2
Fore
SplineSet
494 1563 m 0
 501 1563 507 1557 507 1550 c 1
 507 1550 507 1550 506 1550 c 2
 507 1476 l 1
 514 1500 518 1525 518 1550 c 0
 518 1557 523 1562 530 1562 c 1
 530 1562 530 1562 530 1562 c 1
 537 1562 543 1557 543 1550 c 2
 543 108 l 1
 820 108 l 1
 820 108 820 108 820 108 c 1
 827 108 833 102 833 95 c 0
 833 88 827 82 820 82 c 1
 820 82 820 82 820 82 c 1
 532 82 l 1
 532 82 531 82 530 82 c 2
 530 82 529 82 528 82 c 2
 507 82 l 1
 507 62 l 1
 820 62 l 2
 820 63 820 63 820 63 c 1
 827 63 833 57 833 50 c 0
 833 43 827 37 820 37 c 1
 820 37 820 37 820 38 c 2
 496 38 l 2
 496 37 495 37 494 37 c 2
 494 37 493 37 492 38 c 2
 200 38 l 2
 200 37 200 37 200 37 c 1
 193 37 187 43 187 50 c 0
 187 57 193 63 200 63 c 1
 200 63 200 63 200 62 c 2
 482 62 l 1
 482 82 l 1
 200 82 l 1
 200 82 200 82 200 82 c 1
 193 82 187 88 187 95 c 0
 187 102 193 108 200 108 c 1
 200 108 200 108 200 108 c 1
 482 108 l 1
 482 1374 l 1
 418 1291 313 1237 199 1237 c 1
 199 1237 l 1
 192 1237 187 1242 187 1249 c 0
 187 1256 192 1262 199 1262 c 1
 199 1262 l 1
 249 1262 297 1273 340 1293 c 1
 292 1279 241 1274 199 1274 c 1
 199 1274 l 1
 192 1274 187 1279 187 1286 c 0
 187 1293 192 1299 199 1299 c 1
 199 1299 l 1
 253 1299 325 1309 383 1335 c 0
 440 1361 482 1399 482 1460 c 1
 482 1460 482 1460 482 1460 c 1
 482 1550 l 2
 481 1550 481 1550 481 1550 c 1
 481 1557 487 1563 494 1563 c 0
518 1435 m 1
 514 1427 511 1420 507 1413 c 1
 507 108 l 1
 518 108 l 1
 518 1435 l 1
EndSplineSet
Validated: 5
EndChar

StartChar: two
Encoding: 50 50 21
Width: 1024
Flags: W
HStem: 37 25<206 875.5> 77 25<266 875.5> 1468 45 1488 25
VStem: 186 25<1141.5 1145 1141.5 1258> 230 25<1141.5 1145 1141.5 1182> 776 25<1153 1240.5> 812 25<1162.5 1191>
LayerCount: 2
Fore
SplineSet
451 1512 m 2xef
 563 1512 l 2
 631 1512 699 1487 750 1434 c 0
 801 1381 835 1300 837 1191 c 1
 837 1191 837 1191 837 1191 c 1
 837 1191 l 1
 837 1002 720 852 574 669 c 0
 570 664 566 658 561 652 c 0
 488 559 416 478 362 393 c 0
 306 306 269 216 266 102 c 1
 871 102 l 2
 872 103 872 103 872 103 c 1
 879 103 884 97 884 90 c 0
 884 83 879 77 872 77 c 1
 872 77 872 77 871 78 c 2
 254 78 l 2
 247 78 241 83 241 90 c 0
 241 151 251 207 268 258 c 1
 232 191 208 125 206 62 c 1
 871 62 l 2
 871 63 872 63 872 63 c 1
 879 63 884 57 884 50 c 0
 884 43 879 37 872 37 c 1
 872 37 871 37 871 38 c 2
 193 38 l 2
 186 38 180 43 180 50 c 0
 180 159 239 272 315 382 c 0
 387 484 473 583 541 668 c 1
 541 668 541 668 541 668 c 1
 546 674 551 680 556 686 c 0
 655 815 776 960 776 1180 c 0
 776 1301 741 1372 693 1413 c 0
 644 1454 579 1468 516 1468 c 0xef
 418 1468 354 1422 313 1359 c 0
 272 1296 255 1215 255 1145 c 1
 255 1145 255 1145 255 1145 c 1
 255 1138 250 1132 243 1132 c 0
 236 1132 230 1138 230 1145 c 1
 230 1145 230 1145 230 1145 c 1
 230 1219 248 1304 292 1373 c 0
 328 1429 384 1473 461 1488 c 1
 451 1488 l 2xdf
 340 1488 211 1361 211 1145 c 1
 211 1145 211 1145 211 1145 c 1
 211 1138 206 1132 199 1132 c 0
 192 1132 186 1138 186 1145 c 1
 186 1145 186 1145 186 1145 c 1
 186 1371 321 1512 451 1512 c 2xef
591 1486 m 1
 633 1478 674 1462 709 1432 c 0
 764 1385 801 1306 801 1180 c 0
 801 1126 793 1076 781 1030 c 1
 801 1082 812 1134 812 1191 c 0
 810 1295 778 1369 732 1417 c 0
 693 1458 643 1480 591 1486 c 1
EndSplineSet
Validated: 5
EndChar

StartChar: three
Encoding: 51 51 22
Width: 1024
Flags: W
HStem: 18 25 58 25<473 526 473 526 473 526> 870 38<402 402 402 443.5> 1452 25 1487 25<153.5 822>
VStem: 377 25 759 25<1422 1452 1452 1452> 786 25<417.5 549 416 558> 810 25<1433 1488 1488 1488> 829 25<418 554.5>
LayerCount: 2
Fore
SplineSet
157 1512 m 1xfe80
 822 1512 l 2
 829 1512 835 1507 835 1500 c 2
 835 1428 l 2xfe80
 835 1425 833 1422 832 1420 c 2
 402 914 l 1
 402 908 l 1
 520 906 631 882 714 818 c 0
 799 751 854 643 854 482 c 0
 854 350 822 234 758 151 c 0
 694 67 598 18 475 18 c 0
 376 18 292 45 232 73 c 0
 202 87 178 101 161 112 c 0
 152 117 145 121 141 124 c 0
 138 125 136 126 135 127 c 1
 135 127 134 127 135 127 c 1
 129 128 125 134 125 139 c 0
 125 146 130 152 137 152 c 1
 137 152 l 1
 143 152 144 150 146 149 c 0
 148 148 151 147 153 145 c 0
 159 142 165 138 174 133 c 0
 191 123 214 109 243 96 c 0
 301 69 381 42 475 42 c 0
 591 42 678 88 738 166 c 0
 797 243 829 354 829 482 c 0
 829 627 785 722 715 784 c 1
 775 719 811 621 811 477 c 0
 811 355 784 250 728 176 c 0
 671 101 585 58 473 58 c 1
 473 58 473 58 473 58 c 1
 473 58 473 58 473 58 c 1
 374 60 291 91 231 123 c 0
 202 138 178 153 160 165 c 0
 152 171 145 175 140 178 c 0
 138 180 136 181 135 182 c 1
 135 182 135 182 135 182 c 1
 135 182 135 182 135 182 c 1
 135 182 135 182 135 182 c 1
 134 182 134 182 135 182 c 1
 135 182 135 182 135 182 c 1
 129 183 125 188 125 194 c 0
 125 201 130 206 137 206 c 1
 137 206 l 1
 144 206 145 205 147 204 c 0
 149 202 151 201 154 199 c 0
 159 196 166 191 174 186 c 0
 191 174 214 160 243 145 c 0
 300 115 379 85 473 83 c 0
 579 83 656 122 708 191 c 0
 760 259 786 358 786 477 c 0xff40
 786 639 740 736 668 793 c 0
 597 851 497 870 390 870 c 0
 383 870 378 876 378 882 c 2
 378 896 l 1
 378 918 l 1
 378 918 l 1
 378 918 l 1
 378 931 l 2
 378 933 379 937 380 939 c 2
 759 1422 l 1
 759 1452 l 1
 156 1452 l 1
 156 1452 l 1
 149 1452 144 1458 144 1465 c 0
 144 1472 149 1478 156 1478 c 1
 156 1478 l 1
 772 1478 l 2
 778 1477 784 1472 784 1465 c 2
 784 1418 l 2
 784 1416 783 1412 781 1410 c 2
 669 1267 l 1
 810 1433 l 1
 810 1488 l 1
 157 1488 l 1
 157 1487 l 1
 150 1487 144 1493 144 1500 c 0
 144 1507 150 1513 157 1513 c 1
 157 1512 l 1xfe80
EndSplineSet
Validated: 5
EndChar

StartChar: four
Encoding: 52 52 23
Width: 1024
Flags: MW
HStem: 381 25<133.5 167 150 167 150 179 192 658 682 688 712 951> 1488 25
VStem: 125 25<406 458 406 461 406 461.5> 167 25<406 456 406 458 406 458.5> 657 25<-3.5 381> 687 25<-3.5 381>
LayerCount: 2
Fore
SplineSet
596 1512 m 2
 606 1512 l 1
 670 1512 l 1
 700 1512 l 2
 707 1512 712 1507 712 1500 c 2
 712 406 l 1
 951 406 l 1
 951 406 l 1
 951 406 951 406 951 406 c 1
 958 406 964 400 964 393 c 0
 964 387 958 381 951 381 c 1
 951 381 951 381 951 381 c 1
 951 381 l 1
 712 381 l 1
 712 0 l 2
 713 0 713 0 713 0 c 1
 713 -7 707 -13 700 -13 c 0
 693 -13 687 -7 687 0 c 1
 687 0 687 0 688 0 c 2
 688 381 l 1
 682 381 l 1
 682 0 l 2
 683 0 683 0 683 0 c 1
 683 -7 677 -13 670 -13 c 0
 663 -13 657 -7 657 0 c 1
 657 0 657 0 658 0 c 2
 658 381 l 1
 179 381 l 1
 137 381 l 2
 130 381 125 387 125 393 c 2
 125 461 l 2
 125 462 125 465 126 466 c 2
 584 1505 l 2
 586 1509 591 1512 596 1512 c 2
614 1488 m 1
 192 456 l 1
 192 406 l 1
 658 406 l 1
 658 1488 l 1
 614 1488 l 1
682 1488 m 1
 682 406 l 1
 688 406 l 1
 688 1488 l 1
 682 1488 l 1
372 961 m 1
 150 458 l 1
 150 406 l 1
 167 406 l 1
 167 458 l 2
 167 459 167 461 168 463 c 2
 372 961 l 1
EndSplineSet
Validated: 5
EndChar

StartChar: five
Encoding: 53 53 24
Width: 1024
Flags: MW
HStem: 18 25 62 25<448 502.5 448 502.5 448 502.5> 971 49<406 423 423 424> 1437 25<231 883.5> 1487 25<195 883.5>
VStem: 183 25 782 25<490.5 683 488.5 689> 818 25<485 672>
LayerCount: 2
Fore
SplineSet
195 1512 m 2
 880 1512 l 1
 880 1513 l 1
 887 1513 893 1507 893 1500 c 0
 893 1493 887 1487 880 1487 c 1
 880 1488 l 1
 207 1488 l 1
 207 1307 l 1
 219 1451 l 2
 219 1457 225 1462 231 1462 c 2
 880 1462 l 1
 880 1463 l 1
 887 1463 893 1457 893 1450 c 0
 893 1443 887 1437 880 1437 c 1
 880 1438 l 1
 243 1438 l 1
 207 994 l 1
 238 972 l 1
 247 977 261 986 283 994 c 0
 318 1007 371 1020 441 1020 c 0
 658 1020 843 811 843 554 c 0
 843 412 812 279 748 180 c 0
 683 82 585 18 455 18 c 0
 357 18 279 34 224 50 c 0
 197 59 175 67 160 73 c 0
 152 76 146 79 142 80 c 0
 139 81 138 82 137 82 c 0
 136 82 136 82 136 82 c 2
 130 83 125 88 125 95 c 0
 125 102 130 107 137 107 c 1
 137 107 l 1
 141 107 142 106 144 106 c 0
 146 105 148 104 151 103 c 0
 155 102 161 99 169 96 c 0
 184 90 205 82 231 74 c 0
 284 58 360 42 455 42 c 0
 577 42 666 101 727 194 c 0
 787 287 818 416 818 554 c 0
 818 790 656 979 464 994 c 1
 621 974 807 816 807 550 c 0
 807 427 777 306 717 215 c 0
 657 124 566 62 448 62 c 1
 448 62 448 62 448 62 c 1
 448 62 448 62 448 62 c 1
 350 64 274 82 221 100 c 0
 194 108 173 117 159 123 c 0
 151 127 145 129 141 131 c 0
 139 132 138 132 137 133 c 0
 136 133 136 133 136 133 c 1
 136 133 136 133 136 133 c 1
 136 133 136 133 136 133 c 1
 130 134 125 139 125 145 c 0
 125 152 130 158 137 158 c 1
 137 158 l 1
 141 158 143 157 145 156 c 0
 146 156 148 155 151 154 c 0
 155 152 161 149 168 146 c 0
 183 140 203 132 229 124 c 0
 280 107 354 89 448 87 c 0
 557 87 639 143 696 229 c 0
 752 315 782 431 782 550 c 0
 782 828 569 976 424 971 c 1
 424 971 423 971 423 971 c 2
 330 971 252 925 252 925 c 2
 250 924 247 923 245 923 c 0
 242 923 238 925 236 927 c 2
 185 979 l 2
 183 981 182 985 182 988 c 1
 182 988 182 988 182 988 c 1
 182 1500 l 2
 183 1507 188 1512 195 1512 c 2
EndSplineSet
Validated: 37
EndChar

StartChar: six
Encoding: 54 54 25
Width: 1024
Flags: MW
HStem: 18 25 52 25 944 26<473 557 557 559.5> 1553 21G<552 552 607 607>
VStem: 167 25<416.5 519 416.5 629> 200 25<421 529> 800 25<421 574> 834 25<416.5 557>
LayerCount: 2
Fore
SplineSet
564 1563 m 0
 571 1563 576 1557 576 1550 c 1
 576 1550 576 1550 576 1550 c 1
 576 1544 575 1545 575 1544 c 0
 574 1543 574 1542 573 1541 c 0
 573 1540 571 1538 570 1536 c 0
 567 1532 563 1526 558 1518 c 0
 547 1502 532 1480 514 1453 c 0
 479 1397 431 1317 383 1220 c 0
 321 1095 260 941 224 773 c 1
 228 782 233 791 238 800 c 0
 277 960 341 1108 405 1230 c 0
 456 1327 507 1408 545 1465 c 0
 564 1494 580 1516 592 1532 c 0
 597 1540 601 1546 604 1550 c 0
 606 1552 607 1554 607 1555 c 0
 609 1559 614 1563 619 1563 c 1
 619 1563 l 1
 626 1563 632 1557 632 1550 c 1
 632 1550 632 1550 632 1550 c 1
 632 1546 631 1546 631 1545 c 0
 630 1544 630 1544 630 1543 c 0
 629 1542 629 1542 628 1541 c 0
 628 1540 626 1538 625 1536 c 0
 622 1531 617 1525 612 1518 c 0
 601 1502 585 1480 566 1451 c 0
 528 1395 477 1315 427 1218 c 0
 373 1116 320 994 281 864 c 1
 343 938 417 970 473 970 c 2
 557 970 l 2
 658 970 735 920 785 835 c 0
 835 750 859 630 859 487 c 0
 859 343 832 226 775 144 c 0
 718 62 629 17 513 18 c 0
 396 18 308 64 251 145 c 0
 194 227 167 343 167 487 c 0
 167 771 264 1036 361 1232 c 0
 409 1329 457 1410 493 1466 c 0
 511 1494 527 1517 537 1532 c 0
 542 1540 546 1546 549 1550 c 0
 550 1552 551 1553 552 1554 c 2
 552 1554 552 1553 552 1553 c 1
 552 1553 552 1554 552 1554 c 1
 552 1554 552 1554 552 1554 c 1
 552 1555 553 1555 552 1555 c 1
 552 1555 552 1555 552 1555 c 1
 554 1559 559 1563 564 1563 c 0
607 1554 m 1
 607 1554 607 1553 607 1553 c 1
 607 1553 607 1554 607 1554 c 1
514 944 m 0
 431 944 372 914 332 880 c 0
 307 857 282 827 261 789 c 1
 239 697 225 600 225 503 c 0
 225 339 253 232 303 168 c 0
 352 103 422 78 514 78 c 0
 605 78 675 103 723 167 c 0
 772 232 800 339 800 503 c 0
 800 645 772 756 724 830 c 0
 675 905 605 944 514 944 c 0
699 898 m 1
 716 883 731 865 745 844 c 0
 797 764 825 648 825 503 c 0
 825 336 797 224 743 152 c 0
 690 81 610 52 514 52 c 0
 417 52 337 81 283 152 c 0
 228 224 200 336 200 503 c 0
 200 555 204 606 211 657 c 1
 199 608 192 551 192 487 c 0
 192 346 219 235 272 160 c 0
 324 84 403 43 513 42 c 0
 623 42 702 83 754 159 c 0
 807 234 834 346 834 487 c 0
 834 627 810 743 764 822 c 0
 745 853 724 879 699 898 c 1
EndSplineSet
Validated: 37
EndChar

StartChar: seven
Encoding: 55 55 26
Width: 1024
Flags: MW
HStem: 1437 25<140.5 818> 1487 25<140.5 830>
VStem: 342 25<-3.5 0 -3.5 140> 394 25<-3.5 0 -3.5 0> 818 25
LayerCount: 2
Fore
SplineSet
144 1512 m 1
 830 1512 l 2
 837 1512 842 1507 842 1500 c 2
 842 1450 l 1
 842 1438 l 1
 842 1438 l 1
 842 1436 842 1434 841 1432 c 2
 841 1432 413 644 419 0 c 1
 419 0 419 0 419 0 c 1
 419 -7 413 -13 406 -13 c 0
 399 -13 394 -7 394 0 c 1
 394 0 l 1
 392 182 424 375 472 558 c 1
 411 363 367 166 367 0 c 1
 367 0 367 0 367 0 c 1
 367 -7 362 -13 355 -13 c 0
 348 -13 342 -7 342 0 c 1
 342 0 342 0 342 0 c 1
 342 280 462 640 581 931 c 0
 670 1149 757 1325 796 1400 c 0
 797 1401 797 1403 798 1404 c 0
 800 1407 801 1409 802 1412 c 0
 804 1415 805 1418 807 1421 c 0
 808 1422 808 1423 809 1425 c 0
 810 1427 811 1430 813 1432 c 0
 813 1433 815 1437 816 1438 c 2
 144 1438 l 1
 144 1437 l 1
 137 1437 132 1443 132 1450 c 0
 132 1457 137 1463 144 1463 c 1
 144 1462 l 1
 818 1462 l 1
 818 1488 l 1
 144 1488 l 1
 144 1487 l 1
 137 1487 132 1493 132 1500 c 0
 132 1507 137 1513 144 1513 c 1
 144 1512 l 1
EndSplineSet
Validated: 37
EndChar

StartChar: eight
Encoding: 56 56 27
Width: 1024
Flags: MW
HStem: 18 25 52 25 1456 25 1488 25
VStem: 164 25<315 428 315 431.5> 196 25<1151 1213 1151 1213 1151 1216 1151 1213> 225 25<1132.5 1203 1104 1205.5> 779 25<1128.5 1203> 808 25<1126 1151> 840 25
LayerCount: 2
Fore
SplineSet
465 1512 m 2
 564 1512 l 2
 608 1512 673 1487 729 1429 c 0
 785 1371 831 1281 833 1151 c 1
 833 1151 834 1151 834 1151 c 1
 834 1151 l 1
 834 1049 805 971 751 910 c 0
 702 855 634 814 549 780 c 1
 635 745 711 698 766 637 c 0
 828 570 866 484 866 379 c 0
 866 246 823 155 758 97 c 0
 692 40 605 18 515 18 c 0
 425 18 337 40 271 97 c 0
 206 155 164 246 164 379 c 0
 164 484 201 570 263 637 c 0
 318 698 393 745 480 780 c 1
 395 814 328 855 280 909 c 0
 226 970 198 1048 196 1151 c 1
 196 1151 196 1151 196 1151 c 1
 196 1151 l 1
 196 1281 242 1372 299 1429 c 0
 355 1487 421 1512 465 1512 c 2
465 1488 m 2
 431 1488 369 1465 316 1412 c 0
 264 1358 221 1275 221 1151 c 0
 222 1110 227 1074 236 1042 c 1
 229 1075 225 1112 225 1153 c 0
 225 1258 257 1340 310 1396 c 0
 363 1452 435 1480 514 1480 c 0
 593 1480 666 1452 719 1396 c 0
 772 1340 804 1258 804 1153 c 0
 804 1104 799 1060 788 1021 c 1
 802 1058 808 1101 808 1151 c 0
 806 1275 763 1358 711 1412 c 0
 659 1465 598 1488 564 1488 c 2
 465 1488 l 2
514 1456 m 0
 441 1456 376 1429 328 1379 c 0
 280 1328 250 1253 250 1153 c 0
 250 1055 271 982 315 925 c 0
 358 869 424 828 514 793 c 1
 605 828 671 869 714 925 c 0
 758 982 779 1055 779 1153 c 0
 779 1253 749 1328 701 1379 c 0
 653 1429 587 1456 514 1456 c 0
514 767 m 1
 514 767 514 766 514 766 c 1
 333 697 221 533 222 372 c 1
 222 372 l 1
 222 372 l 1
 222 211 339 78 515 78 c 0
 691 78 807 211 807 372 c 1
 807 372 l 1
 807 372 l 1
 809 533 696 697 515 766 c 1
 515 766 514 767 514 767 c 1
279 618 m 1
 222 555 189 477 189 379 c 0
 189 251 228 168 288 116 c 0
 348 64 429 42 515 42 c 0
 600 42 682 64 741 116 c 0
 801 168 840 251 840 379 c 0
 840 477 807 555 750 618 c 1
 803 545 833 458 832 372 c 0
 832 199 704 52 515 52 c 0
 326 52 197 199 197 372 c 0
 196 458 226 545 279 618 c 1
EndSplineSet
Validated: 37
EndChar

StartChar: nine
Encoding: 57 57 28
Width: 1024
Flags: MW
HStem: -20 20G<474 474 474 474> 585 46<466.5 531> 1477 25<466.5 558> 1512 25<470 470.5 470 512 512 540 540 554>
VStem: 167 25<998 1138.5 998 1140> 202 25<981 1134 981 1135.5> 801 25<1024.5 1134> 834 25<1033.5 1137.5>
LayerCount: 2
Fore
SplineSet
470 1537 m 0
 471 1537 492 1537 512 1537 c 0
 522 1537 533 1537 540 1537 c 0
 548 1537 552 1537 554 1537 c 1
 554 1537 l 1
 652 1535 730 1489 781 1407 c 0
 833 1326 859 1210 859 1068 c 0
 859 784 762 519 666 323 c 0
 617 226 569 145 533 89 c 0
 515 61 500 38 489 23 c 0
 484 15 480 9 477 5 c 0
 476 3 475 2 475 1 c 2
 475 1 475 2 475 2 c 1
 475 2 474 1 474 1 c 1
 474 1 474 1 474 1 c 1
 474 0 474 0 474 0 c 1
 474 0 474 0 474 0 c 1
 472 -4 467 -8 462 -8 c 0
 456 -8 450 -2 450 5 c 1
 450 5 450 5 450 5 c 1
 450 11 451 10 452 11 c 0
 452 12 452 13 453 14 c 0
 454 15 455 17 456 19 c 0
 459 23 463 29 469 37 c 0
 479 53 494 75 512 102 c 0
 548 158 596 238 643 335 c 0
 705 459 766 612 802 780 c 1
 798 772 793 763 788 755 c 0
 749 595 685 447 622 325 c 0
 570 228 519 147 481 90 c 0
 462 61 446 39 435 23 c 0
 429 15 425 9 422 5 c 0
 421 3 419 1 419 0 c 0
 417 -4 412 -8 407 -8 c 0
 400 -8 395 -2 395 5 c 1
 395 5 395 5 395 5 c 1
 395 9 395 9 396 10 c 0
 396 11 396 11 397 12 c 0
 397 13 397 13 398 14 c 0
 399 15 400 17 402 19 c 0
 405 24 409 30 414 37 c 0
 426 53 441 75 460 104 c 0
 498 160 549 240 599 337 c 0
 654 441 708 565 747 698 c 1
 746 697 746 696 745 695 c 0
 675 618 580 585 482 585 c 0
 383 585 303 635 249 720 c 0
 196 805 167 925 167 1068 c 0
 167 1212 194 1328 246 1410 c 0
 297 1491 374 1537 470 1537 c 0
470 1512 m 0
 382 1512 314 1472 267 1396 c 0
 219 1321 192 1209 192 1068 c 0
 192 928 220 813 270 733 c 0
 314 664 374 621 450 612 c 1
 380 625 323 662 282 721 c 0
 229 796 202 907 202 1052 c 0
 202 1219 230 1331 283 1403 c 0
 337 1474 416 1502 512 1502 c 0
 609 1502 689 1474 744 1403 c 0
 798 1331 826 1219 826 1052 c 0
 826 997 822 942 814 888 c 1
 827 940 834 999 834 1068 c 0
 834 1207 808 1318 760 1394 c 0
 712 1469 644 1511 554 1512 c 1
 555 1512 548 1512 540 1512 c 0
 533 1512 522 1512 512 1512 c 0
 492 1512 471 1512 470 1512 c 0
512 1477 m 0
 421 1477 352 1452 303 1388 c 0
 255 1323 227 1216 227 1052 c 0
 227 910 254 804 303 735 c 0
 351 666 421 631 512 631 c 0
 653 631 724 706 752 744 c 0
 755 749 759 755 762 760 c 0
 764 763 765 764 765 765 c 0
 787 858 801 955 801 1052 c 0
 801 1216 773 1323 724 1387 c 0
 675 1452 604 1477 512 1477 c 0
419 2 m 1
 419 2 419 1 419 1 c 1
 419 1 419 2 419 2 c 1
EndSplineSet
Validated: 5
EndChar

StartChar: colon
Encoding: 58 58 29
Width: 416
Flags: W
LayerCount: 2
Fore
SplineSet
96 176 m 1
 96 520 l 1
 320 520 l 1
 320 176 l 1
 96 176 l 1
96 904 m 1
 96 1240 l 1
 320 1240 l 1
 320 904 l 1
 96 904 l 1
EndSplineSet
Validated: 1
EndChar

StartChar: semicolon
Encoding: 59 59 30
Width: 416
Flags: W
LayerCount: 2
Fore
SplineSet
96 88 m 1
 96 416 l 1
 320 416 l 1
 320 88 l 2
 320 -157 245 -283 96 -288 c 1
 96 -144 l 1
 171 -144 208 -67 208 88 c 1
 96 88 l 1
96 904 m 1
 96 1240 l 1
 320 1240 l 1
 320 904 l 1
 96 904 l 1
EndSplineSet
Validated: 1
EndChar

StartChar: less
Encoding: 60 60 31
Width: 1024
Flags: W
LayerCount: 2
Fore
SplineSet
96 688 m 1
 96 808 l 1
 824 1320 l 1
 928 1200 l 1
 272 752 l 1
 928 288 l 1
 824 160 l 1
 96 688 l 1
EndSplineSet
Validated: 1
EndChar

StartChar: equal
Encoding: 61 61 32
Width: 1024
Flags: W
LayerCount: 2
Fore
SplineSet
72 384 m 1
 72 496 l 1
 952 496 l 1
 952 384 l 1
 72 384 l 1
72 768 m 1
 72 880 l 1
 952 880 l 1
 952 768 l 1
 72 768 l 1
EndSplineSet
Validated: 1
EndChar

StartChar: greater
Encoding: 62 62 33
Width: 1024
Flags: W
LayerCount: 2
Fore
SplineSet
88 280 m 1
 744 728 l 1
 88 1192 l 1
 192 1320 l 1
 920 792 l 1
 920 672 l 1
 192 160 l 1
 88 280 l 1
EndSplineSet
Validated: 1
EndChar

StartChar: question
Encoding: 63 63 34
Width: 928
Flags: W
LayerCount: 2
Fore
SplineSet
104 1304 m 1
 104 1464 l 1
 173 1501 232 1525 280 1536 c 0
 328 1547 389 1552 464 1552 c 0
 704 1552 824 1424 824 1168 c 0
 824 1003 763 869 640 768 c 1
 555 677 515 600 520 536 c 1
 520 488 l 1
 376 488 l 1
 376 536 l 1
 371 643 416 747 512 848 c 1
 613 944 664 1051 664 1168 c 0
 664 1328 597 1408 464 1408 c 0
 400 1408 344 1403 296 1392 c 0
 248 1381 184 1352 104 1304 c 1
360 0 m 1
 360 264 l 1
 544 264 l 1
 544 0 l 1
 360 0 l 1
EndSplineSet
Validated: 33
EndChar

StartChar: at
Encoding: 64 64 35
Width: 1368
Flags: W
LayerCount: 2
Fore
SplineSet
48 744 m 0
 48 989 105 1185 220 1332 c 0
 335 1479 499 1552 712 1552 c 0
 883 1552 1025 1493 1140 1376 c 0
 1255 1259 1312 1088 1312 864 c 0
 1312 587 1251 395 1128 288 c 1
 808 288 l 1
 808 360 l 1
 755 317 699 296 640 296 c 0
 544 296 469 337 416 420 c 0
 363 503 336 621 336 776 c 0
 336 925 363 1047 416 1140 c 0
 469 1233 544 1280 640 1280 c 0
 704 1280 760 1256 808 1208 c 1
 808 1280 l 1
 952 1280 l 1
 952 416 l 1
 1072 416 l 1
 1136 533 1168 683 1168 864 c 0
 1168 1051 1125 1189 1040 1280 c 0
 955 1371 845 1416 712 1416 c 0
 541 1416 412 1355 324 1232 c 0
 236 1109 192 947 192 744 c 0
 192 531 232 377 312 284 c 0
 392 191 523 141 704 136 c 1
 864 136 1019 155 1168 192 c 1
 1168 48 l 1
 1029 16 875 0 704 0 c 0
 491 0 328 60 216 180 c 0
 104 300 48 488 48 744 c 0
488 776 m 1
 488 659 500 572 524 516 c 0
 548 460 587 432 640 432 c 0
 699 432 752 459 800 512 c 1
 800 1064 l 1
 752 1112 699 1136 640 1136 c 0
 592 1136 556 1107 532 1048 c 0
 508 989 493 899 488 776 c 1
EndSplineSet
Validated: 1
EndChar

StartChar: A
Encoding: 65 65 36
Width: 1296
Flags: MW
HStem: -20 20G<118 118 118 118 143 143 143 143 176 176 176 176 201 201 201 201 1095 1095 1095 1095 1120 1120 1120 1120 1153 1153 1153 1153 1178 1178 1178 1178> 581 25<329 342 322 350 376 922 329 368 955 967 955 955> 1488 25
VStem: 176 25<-3.5 0 -3.5 2.5> 1095 25<-1 0 -3.5 0>
LayerCount: 2
Fore
SplineSet
596 1512 m 2
 628 1512 l 1
 669 1512 l 1
 701 1512 l 2
 706 1512 711 1509 713 1504 c 2
 713 1504 829 1133 945 760 c 0
 962 707 978 654 995 601 c 0
 996 599 998 596 998 593 c 2
 998 593 998 593 997 592 c 0
 1037 465 1075 344 1105 245 c 0
 1127 175 1145 115 1158 73 c 0
 1164 52 1169 35 1172 23 c 0
 1174 17 1175 13 1176 9 c 0
 1177 7 1177 6 1177 5 c 0
 1178 3 1178 4 1178 0 c 1
 1178 0 l 1
 1178 -7 1173 -13 1166 -13 c 0
 1159 -13 1153 -7 1153 0 c 1
 1153 0 l 1
 1153 -1 1153 -1 1153 -1 c 1
 1153 -1 1153 -1 1153 -1 c 1
 1153 0 1153 1 1152 3 c 0
 1151 6 1150 10 1148 16 c 0
 1145 28 1140 45 1134 66 c 0
 1121 108 1103 167 1081 238 c 0
 1051 336 1014 455 975 581 c 1
 955 581 l 1
 990 461 1024 347 1051 253 c 0
 1072 182 1089 122 1101 78 c 0
 1107 56 1112 39 1115 26 c 0
 1116 19 1118 14 1119 10 c 0
 1119 6 1120 4 1120 0 c 1
 1120 0 l 1
 1120 -7 1115 -13 1108 -13 c 0
 1101 -13 1095 -7 1095 0 c 1
 1095 0 l 1
 1095 -2 1095 1 1094 5 c 0
 1093 8 1092 13 1091 20 c 0
 1087 32 1083 50 1077 71 c 0
 1065 115 1048 175 1027 246 c 0
 999 342 965 459 929 581 c 1
 368 581 l 1
 332 457 297 339 269 243 c 0
 249 172 232 112 220 69 c 0
 214 48 209 31 206 18 c 0
 204 12 203 7 202 4 c 0
 202 1 201 -3 201 0 c 1
 201 0 201 0 201 0 c 1
 201 -7 196 -13 189 -13 c 0
 182 -13 176 -7 176 0 c 1
 176 0 176 0 176 0 c 1
 176 5 177 6 178 10 c 0
 179 13 180 18 182 25 c 0
 185 37 190 54 196 76 c 0
 208 119 225 179 245 250 c 0
 273 345 307 460 342 581 c 1
 322 581 l 1
 283 455 245 336 215 238 c 0
 194 167 175 108 163 66 c 0
 156 45 151 28 148 16 c 0
 146 10 145 6 144 3 c 0
 144 1 144 0 143 -1 c 1
 143 -1 143 -1 143 -1 c 1
 143 -1 143 -1 143 0 c 1
 143 0 143 0 143 0 c 1
 143 -7 138 -13 131 -13 c 0
 124 -13 118 -7 118 0 c 1
 118 0 118 0 118 0 c 1
 118 4 119 3 119 5 c 0
 119 6 120 7 120 9 c 0
 121 13 122 17 124 23 c 0
 127 35 132 52 139 73 c 0
 152 115 170 175 192 245 c 0
 222 344 260 466 299 593 c 1
 299 593 299 593 299 593 c 1
 299 596 300 599 302 601 c 0
 318 653 335 707 351 760 c 0
 468 1133 584 1504 584 1504 c 2
 585 1509 591 1512 596 1512 c 2
1153 -1 m 1
 1153 -2 1153 -2 1153 -1 c 1
143 -1 m 1
 143 -2 143 -2 143 -1 c 1
605 1488 m 1
 602 1479 490 1121 375 753 c 0
 360 704 345 654 329 606 c 1
 350 606 l 1
 365 658 381 711 396 764 c 0
 499 1112 598 1445 611 1488 c 1
 605 1488 l 1
637 1488 m 1
 633 1474 528 1121 420 757 c 0
 405 706 390 656 376 606 c 1
 922 606 l 1
 907 657 892 708 876 760 c 0
 769 1123 664 1474 660 1488 c 1
 637 1488 l 1
686 1488 m 1
 698 1445 798 1114 900 767 c 0
 916 713 932 659 948 606 c 1
 967 606 l 1
 952 654 937 704 921 753 c 0
 806 1121 694 1479 692 1488 c 1
 686 1488 l 1
EndSplineSet
Validated: 5
EndChar

StartChar: B
Encoding: 66 66 37
Width: 1304
Flags: MW
HStem: 38 25 77 25<248.5 265 252 265> 808 25 1452 25 1490 25<225 225 225 721>
VStem: 200 25<62 808 62 815 62 815 832 1490 62 825> 240 25<102 808 102 808 102 808 832 1452> 1030 25<1180 1215 1181 1211.5 1181 1215> 1082 25<1100.5 1214> 1146 25<380.5 504>
LayerCount: 2
Fore
SplineSet
212 1515 m 2
 721 1515 l 2
 853 1515 950 1479 1013 1416 c 0
 1077 1354 1107 1266 1107 1167 c 0
 1107 1027 1043 935 950 880 c 0
 903 853 848 834 791 823 c 1
 876 811 952 790 1013 752 c 0
 1112 691 1171 589 1171 432 c 0
 1171 325 1147 227 1084 154 c 0
 1021 82 919 38 769 38 c 2
 212 38 l 2
 205 38 200 43 200 50 c 2
 200 815 l 2
 199 816 199 817 199 817 c 2
 199 818 199 818 199 819 c 2
 199 819 199 819 199 820 c 1
 199 820 199 820 199 820 c 1
 199 820 199 821 199 821 c 2
 199 822 199 823 199 824 c 2
 199 824 199 824 200 825 c 1
 200 825 200 825 200 825 c 1
 200 1503 l 2
 200 1510 205 1515 212 1515 c 2
225 1490 m 1
 225 832 l 1
 240 832 l 1
 240 1465 l 2
 240 1472 245 1477 252 1478 c 2
 719 1478 l 2
 835 1478 920 1438 975 1380 c 0
 1029 1323 1055 1249 1055 1181 c 0
 1057 1050 1000 955 919 895 c 0
 915 891 910 888 906 885 c 1
 917 890 928 896 938 902 c 0
 1024 953 1082 1034 1082 1167 c 0
 1082 1261 1054 1341 996 1399 c 0
 938 1456 848 1490 721 1490 c 2
 225 1490 l 1
265 1452 m 1
 265 832 l 1
 623 832 l 2
 636 832 650 833 664 833 c 0
 748 838 836 864 904 915 c 0
 980 971 1032 1056 1030 1180 c 2
 1030 1181 l 1
 1030 1181 l 1
 1030 1242 1007 1311 957 1363 c 0
 906 1415 829 1452 719 1452 c 2
 265 1452 l 1
225 808 m 1
 225 62 l 1
 769 62 l 2
 915 62 1008 104 1065 171 c 0
 1123 237 1146 329 1146 432 c 0
 1146 576 1096 666 1012 723 c 1
 1077 665 1116 578 1116 460 c 0
 1118 346 1093 250 1030 183 c 0
 968 115 869 78 727 78 c 2
 252 77 l 1
 252 77 l 1
 245 77 240 83 240 90 c 2
 240 808 l 1
 225 808 l 1
265 808 m 1
 265 102 l 1
 727 103 l 1
 727 103 l 1
 727 103 l 1
 864 103 955 138 1012 200 c 0
 1069 261 1093 350 1091 460 c 1
 1091 460 l 1
 1091 460 l 1
 1091 595 1040 680 958 733 c 0
 887 779 792 801 687 806 c 0
 666 807 645 808 623 808 c 2
 265 808 l 1
EndSplineSet
Validated: 37
EndChar

StartChar: C
Encoding: 67 67 38
Width: 1360
Flags: MW
HStem: 21 25<621.5 790 621.5 792.5> 67 25<628 772.5 628 775> 1451 25<623 774> 1489 25<573 769 661 769>
VStem: 159 25<663 871 663 872.5> 201 25<682 875.5 682 877> 1136 25 1196 25
LayerCount: 2
Fore
SplineSet
661 1514 m 2
 769 1514 l 2
 1030 1514 1218 1298 1218 1016 c 1
 1218 1016 l 1
 1218 1009 1212 1003 1205 1003 c 0
 1198 1003 1192 1009 1192 1016 c 1
 1192 1016 l 1
 1192 1287 1016 1489 769 1489 c 2
 661 1489 l 2
 485 1489 368 1410 293 1280 c 0
 217 1151 184 970 184 772 c 0
 184 554 231 372 319 245 c 0
 407 119 536 46 707 46 c 0
 873 46 994 101 1075 194 c 0
 1156 287 1196 419 1196 575 c 1
 1196 575 l 1
 1196 582 1202 588 1209 588 c 0
 1216 588 1222 582 1222 575 c 1
 1222 575 l 1
 1222 415 1180 276 1094 178 c 0
 1008 79 878 21 707 21 c 0
 529 21 390 99 298 231 c 0
 206 364 159 551 159 772 c 0
 159 973 192 1157 271 1293 c 0
 350 1428 478 1514 661 1514 c 2
703 1476 m 0
 850 1476 965 1432 1042 1351 c 0
 1119 1271 1158 1156 1158 1016 c 1
 1158 1016 l 1
 1158 1009 1152 1003 1145 1003 c 0
 1138 1003 1132 1009 1132 1016 c 1
 1132 1016 l 1
 1132 1151 1095 1259 1024 1334 c 0
 952 1409 845 1451 703 1451 c 0
 543 1451 426 1386 346 1268 c 0
 266 1151 226 980 226 771 c 0
 226 593 268 422 349 297 c 0
 430 172 549 92 707 92 c 0
 838 92 945 132 1019 211 c 0
 1094 291 1136 411 1136 575 c 1
 1136 575 l 1
 1136 582 1142 588 1149 588 c 0
 1156 588 1162 582 1162 575 c 1
 1162 575 l 1
 1162 407 1117 279 1037 194 c 0
 958 109 843 67 707 67 c 0
 540 67 412 153 328 283 c 0
 243 414 201 589 201 771 c 0
 201 983 242 1159 325 1282 c 0
 409 1406 536 1476 703 1476 c 0
EndSplineSet
Validated: 5
EndChar

StartChar: D
Encoding: 68 68 39
Width: 1328
Flags: MW
HStem: 38 25 82 25 1452 25 1490 25<225 225 225 469>
VStem: 200 25<62 1490 62 1503 62 1506.5> 240 25<108 1452 108 1465 108 1468.5> 1084 25<697.5 805 697.5 805 697.5 805> 1142 25<784 936>
LayerCount: 2
Fore
SplineSet
212 1515 m 2
 469 1515 l 2
 622 1515 796 1489 933 1383 c 0
 1070 1278 1167 1093 1167 784 c 1
 1167 784 l 1
 1167 784 l 1
 1166 483 1074 295 939 184 c 0
 804 72 629 38 464 38 c 2
 212 38 l 2
 205 38 200 43 200 50 c 2
 200 1503 l 2
 200 1510 205 1515 212 1515 c 2
225 1490 m 1
 225 62 l 1
 464 62 l 2
 625 62 795 97 923 203 c 0
 1052 309 1141 488 1142 784 c 0
 1142 1088 1048 1263 918 1364 c 0
 788 1464 619 1490 469 1490 c 2
 225 1490 l 1
252 1478 m 2
 499 1478 l 2
 719 1478 875 1403 973 1281 c 0
 1071 1159 1112 991 1109 805 c 0
 1109 590 1059 410 959 283 c 0
 858 156 706 82 507 82 c 2
 252 82 l 2
 245 83 240 88 240 95 c 2
 240 1465 l 2
 240 1472 245 1477 252 1478 c 2
265 1452 m 1
 265 108 l 1
 507 108 l 2
 700 108 843 177 939 298 c 0
 1035 420 1084 594 1084 805 c 1
 1084 805 l 1
 1084 805 l 1
 1087 987 1047 1149 953 1265 c 0
 860 1381 714 1452 499 1452 c 2
 265 1452 l 1
EndSplineSet
Validated: 33
EndChar

StartChar: E
Encoding: 69 69 40
Width: 1160
Flags: MW
HStem: 37 25<225 1003.5> 78 25<1000 1000 1000 1000> 812 25<225 240 225 227 265 324 265 273.5 324 567 567 920> 1452 25 1490 25<225 1000 225 225 212 1000>
VStem: 200 25<62 812 62 823 62 825 62 826 837 1490> 240 25<102 812 102 812 102 812 837 1452>
LayerCount: 2
Fore
SplineSet
212 1515 m 2
 1000 1515 l 1
 1000 1515 l 1
 1007 1515 1013 1510 1013 1503 c 0
 1013 1496 1007 1490 1000 1490 c 1
 1000 1490 l 1
 225 1490 l 1
 225 837 l 1
 229 837 234 837 240 837 c 1
 240 1465 l 2
 240 1472 245 1477 252 1478 c 2
 1000 1478 l 1
 1000 1478 l 1
 1007 1478 1013 1472 1013 1465 c 0
 1013 1458 1007 1452 1000 1452 c 1
 1000 1452 l 1
 265 1452 l 1
 265 837 l 1
 920 837 l 1
 920 837 920 837 920 837 c 1
 920 837 920 837 921 837 c 0
 927 837 932 831 932 824 c 0
 932 818 927 812 920 812 c 1
 920 812 920 812 920 812 c 1
 920 812 l 1
 920 812 l 1
 920 812 744 812 567 812 c 0
 479 812 390 812 324 812 c 0
 299 812 282 812 265 812 c 1
 265 102 l 1
 1000 103 l 1
 1000 103 1000 103 1000 103 c 1
 1007 103 1013 97 1013 90 c 0
 1013 83 1007 78 1000 78 c 1
 1000 78 1000 78 1000 78 c 1
 252 77 l 1
 252 77 l 1
 245 77 240 83 240 90 c 2
 240 812 l 1
 234 812 229 812 225 812 c 1
 225 62 l 1
 1000 62 l 2
 1000 63 1000 63 1000 63 c 1
 1007 63 1013 57 1013 50 c 0
 1013 43 1007 37 1000 37 c 1
 1000 37 1000 37 1000 38 c 2
 212 38 l 2
 205 38 200 43 200 50 c 2
 200 823 l 1
 200 823 200 824 200 825 c 2
 200 825 200 826 200 826 c 1
 200 1503 l 2
 200 1510 205 1515 212 1515 c 2
EndSplineSet
Validated: 5
EndChar

StartChar: F
Encoding: 70 70 41
Width: 1128
Flags: MW
HStem: 812 25<225 240 225 240 265 889> 1452 25 1490 25<225 1000 225 225 212 1000>
VStem: 200 25<-3.5 0 0 812 837 1490> 240 25<-3.5 0 0 812 837 1452>
LayerCount: 2
Fore
SplineSet
212 1515 m 2
 1000 1515 l 1
 1000 1515 l 1
 1007 1515 1013 1510 1013 1503 c 0
 1013 1496 1007 1490 1000 1490 c 1
 1000 1490 l 1
 225 1490 l 1
 225 837 l 1
 240 837 l 1
 240 1465 l 2
 240 1472 245 1477 252 1478 c 2
 1000 1478 l 1
 1000 1478 l 1
 1007 1478 1013 1472 1013 1465 c 0
 1013 1458 1007 1452 1000 1452 c 1
 1000 1452 l 1
 265 1452 l 1
 265 837 l 1
 889 837 l 1
 889 837 889 837 889 837 c 1
 896 837 902 831 902 824 c 0
 902 818 896 812 889 812 c 1
 889 812 889 812 889 812 c 1
 889 812 l 1
 889 812 889 812 889 812 c 1
 265 812 l 1
 265 0 l 1
 265 0 265 0 265 0 c 1
 265 -7 259 -13 252 -13 c 0
 245 -13 240 -7 240 0 c 1
 240 0 240 0 240 0 c 1
 240 812 l 1
 225 812 l 1
 225 0 l 1
 225 0 225 0 225 0 c 1
 225 -7 219 -13 212 -13 c 0
 205 -13 200 -7 200 0 c 1
 200 0 200 0 200 0 c 1
 200 823 l 1
 200 823 200 824 200 824 c 2
 200 825 200 826 200 826 c 1
 200 1503 l 2
 200 1510 205 1515 212 1515 c 2
EndSplineSet
Validated: 5
EndChar

StartChar: G
Encoding: 71 71 42
Width: 1392
Flags: W
HStem: 21 25<621.5 787 621.5 792.5> 67 25<628 782> 712 25 1469 46 1489 25
VStem: 159 25<663 871 663 872.5> 201 25<682 875.5 682 877> 1118 25 1171 25<-1 0 -3.5 0 169 300 300 300 461 712 712 712>
LayerCount: 2
Fore
SplineSet
661 1514 m 2xf780
 769 1514 l 2xf780
 1029 1514 1200 1330 1200 1130 c 2
 1200 1129 l 2
 1200 1123 1195 1117 1188 1117 c 0
 1181 1117 1175 1123 1175 1129 c 2
 1175 1130 l 2
 1175 1314 1021 1486 777 1489 c 1xef80
 1022 1459 1144 1278 1144 1129 c 1
 1144 1129 l 1
 1144 1122 1138 1116 1131 1116 c 0
 1124 1116 1118 1122 1118 1129 c 1
 1118 1129 l 1
 1118 1277 987 1469 703 1469 c 0
 544 1469 426 1399 346 1277 c 0
 266 1155 226 980 226 771 c 0
 226 593 268 422 349 297 c 0
 430 172 549 92 707 92 c 0
 905 92 1048 176 1105 231 c 0
 1112 238 1118 245 1123 251 c 0
 1125 256 1128 262 1131 267 c 2
 1131 712 l 1
 785 712 l 1
 785 712 785 712 785 712 c 1
 778 712 772 718 772 725 c 0
 772 726 773 728 773 730 c 2
 773 730 774 731 774 731 c 2
 776 735 781 738 785 738 c 1
 785 738 785 738 785 738 c 1
 1143 738 l 1
 1183 738 l 2
 1190 737 1196 732 1196 725 c 2
 1196 0 l 1
 1196 0 l 1
 1196 -7 1190 -13 1183 -13 c 0
 1176 -13 1171 -7 1171 0 c 1
 1171 0 l 1
 1171 -2 1171 1 1170 3 c 0
 1170 5 1170 8 1169 12 c 0
 1168 20 1167 31 1165 43 c 0
 1161 69 1156 101 1151 134 c 0
 1146 168 1141 201 1137 225 c 1
 1121 198 1103 174 1080 151 c 0
 1001 71 878 21 707 21 c 0
 529 21 390 99 298 231 c 0
 206 364 159 551 159 772 c 0
 159 973 192 1157 271 1293 c 0
 350 1428 478 1514 661 1514 c 2xf780
629 1488 m 1
 471 1479 364 1402 293 1280 c 0
 217 1151 184 970 184 772 c 0
 184 554 231 372 319 245 c 0
 407 119 536 46 707 46 c 0
 867 46 980 91 1055 161 c 1
 977 113 857 67 707 67 c 0
 540 67 412 153 328 283 c 0
 243 414 201 589 201 771 c 0
 201 983 242 1163 325 1291 c 0
 396 1399 498 1469 629 1488 c 1
1156 712 m 1
 1156 337 l 1
 1166 376 1171 418 1171 461 c 2
 1171 712 l 1
 1156 712 l 1
1171 300 m 1
 1166 287 1162 275 1156 263 c 0
 1157 258 1163 218 1171 169 c 1
 1171 300 l 1
EndSplineSet
Validated: 5
EndChar

StartChar: H
Encoding: 72 72 43
Width: 1312
Flags: MW
HStem: 829 25<225 240 225 240 265 1042 1067 1082>
VStem: 200 25<-3.5 0 0 829 854 1550> 240 25<-3.5 0 0 829 854 1550> 1042 25<-3.5 0 0 829 854 1550> 1082 25<-3.5 0 0 829 829 829 854 1550>
LayerCount: 2
Fore
SplineSet
212 1563 m 0
 219 1563 225 1557 225 1550 c 1
 225 1550 225 1550 225 1550 c 1
 225 854 l 1
 240 854 l 1
 240 1550 l 1
 240 1550 240 1550 240 1550 c 1
 240 1557 245 1563 252 1563 c 1
 252 1563 l 1
 259 1563 265 1557 265 1550 c 1
 265 1550 265 1550 265 1550 c 1
 265 854 l 1
 1042 854 l 1
 1042 1550 l 1
 1042 1550 l 1
 1042 1557 1047 1563 1054 1563 c 1
 1054 1563 l 1
 1061 1563 1067 1557 1067 1550 c 1
 1067 1550 l 1
 1067 854 l 1
 1082 854 l 1
 1082 1550 l 1
 1082 1550 l 1
 1082 1557 1087 1563 1094 1563 c 1
 1094 1563 l 1
 1101 1563 1107 1557 1107 1550 c 1
 1107 1550 l 1
 1107 0 l 1
 1107 0 l 1
 1107 -7 1101 -13 1094 -13 c 0
 1087 -13 1082 -7 1082 0 c 1
 1082 0 l 1
 1082 829 l 1
 1067 829 l 1
 1067 0 l 1
 1067 0 l 1
 1067 -7 1061 -13 1054 -13 c 0
 1047 -13 1042 -7 1042 0 c 1
 1042 0 l 1
 1042 829 l 1
 265 829 l 1
 265 0 l 1
 265 0 265 0 265 0 c 1
 265 -7 259 -13 252 -13 c 0
 245 -13 240 -7 240 0 c 1
 240 0 240 0 240 0 c 1
 240 829 l 1
 225 829 l 1
 225 0 l 1
 225 0 225 0 225 0 c 1
 225 -7 219 -13 212 -13 c 0
 205 -13 200 -7 200 0 c 1
 200 0 200 0 200 0 c 1
 200 839 l 2
 199 839 199 841 199 841 c 2
 199 842 199 843 200 844 c 2
 200 1550 l 1
 200 1550 200 1550 200 1550 c 1
 200 1557 205 1563 212 1563 c 0
EndSplineSet
Validated: 5
EndChar

StartChar: I
Encoding: 73 73 44
Width: 504
Flags: MW
HStem: 37 25<37.5 216 41 228.5> 82 25 1452 25 1487 25<37.5 226>
VStem: 216 25<62 82 62 82 108 1452 1478 1488> 252 25<108 1452 108 1452>
LayerCount: 2
Fore
SplineSet
228 1513 m 0
 229 1513 230 1513 230 1512 c 2
 455 1512 l 1
 455 1513 l 1
 462 1513 468 1507 468 1500 c 0
 468 1493 462 1487 455 1487 c 1
 455 1488 l 1
 241 1488 l 1
 241 1478 l 1
 262 1478 l 2
 263 1478 263 1478 264 1478 c 1
 264 1478 l 1
 265 1478 266 1478 266 1478 c 1
 455 1478 l 1
 455 1478 l 1
 462 1478 468 1472 468 1465 c 0
 468 1458 462 1452 455 1452 c 1
 455 1452 l 1
 277 1452 l 1
 277 108 l 1
 455 108 l 1
 455 108 455 108 455 108 c 1
 462 108 468 102 468 95 c 0
 468 88 462 82 455 82 c 1
 455 82 455 82 455 82 c 1
 266 82 l 1
 266 82 265 82 264 82 c 2
 264 82 263 82 262 82 c 2
 241 82 l 1
 241 62 l 1
 455 62 l 2
 455 63 455 63 455 63 c 1
 462 63 468 57 468 50 c 0
 468 43 462 37 455 37 c 1
 455 37 455 37 455 38 c 2
 230 38 l 2
 230 37 229 37 228 37 c 2
 228 37 227 37 226 38 c 2
 41 38 l 2
 41 37 41 37 41 37 c 1
 34 37 29 43 29 50 c 0
 29 57 34 63 41 63 c 1
 41 63 41 63 41 62 c 2
 216 62 l 1
 216 82 l 1
 41 82 l 1
 41 82 41 82 41 82 c 1
 34 82 29 88 29 95 c 0
 29 102 34 108 41 108 c 1
 41 108 41 108 41 108 c 1
 216 108 l 1
 216 1452 l 1
 41 1452 l 1
 41 1452 l 1
 34 1452 29 1458 29 1465 c 0
 29 1472 34 1478 41 1478 c 1
 41 1478 l 1
 216 1478 l 1
 216 1488 l 1
 41 1488 l 1
 41 1487 l 1
 34 1487 29 1493 29 1500 c 0
 29 1507 34 1513 41 1513 c 1
 41 1512 l 1
 226 1512 l 2
 227 1513 227 1513 228 1513 c 0
241 1452 m 1
 241 108 l 1
 252 108 l 1
 252 1452 l 1
 241 1452 l 1
EndSplineSet
Validated: 5
EndChar

StartChar: J
Encoding: 74 74 45
Width: 1112
Flags: MW
HStem: 18 25<395.5 436 395.5 436 395.5 437 395.5 436> 54 24
VStem: 844 25<519 1550> 880 25<544 1550 544 1550 544 1550 544 1553.5 544 1550>
LayerCount: 2
Fore
SplineSet
857 1563 m 0
 864 1563 869 1557 869 1550 c 1
 869 1550 869 1550 869 1550 c 1
 869 519 l 2
 869 339 818 224 738 156 c 0
 659 87 553 65 447 63 c 0
 368 61 286 82 223 103 c 0
 191 114 164 125 145 133 c 0
 135 137 128 140 122 143 c 0
 119 144 117 145 116 145 c 2
 116 145 116 145 115 146 c 1
 116 146 116 146 116 146 c 1
 116 146 115 146 115 146 c 1
 115 146 115 146 115 146 c 1
 115 146 115 146 115 146 c 1
 110 147 105 153 105 158 c 0
 105 165 111 170 118 170 c 1
 118 170 118 170 118 170 c 1
 123 170 122 170 123 169 c 0
 124 169 125 169 125 168 c 1
 127 168 129 167 132 166 c 0
 138 163 145 160 155 156 c 0
 174 148 200 138 231 127 c 0
 293 106 373 86 446 87 c 0
 549 89 649 111 722 175 c 0
 795 238 844 343 844 519 c 2
 844 1550 l 1
 844 1550 844 1550 844 1550 c 1
 844 1557 850 1563 857 1563 c 0
893 1563 m 0
 900 1563 905 1557 905 1550 c 1
 905 1550 905 1550 905 1550 c 1
 905 544 l 2
 905 545 905 545 905 545 c 1
 905 544 l 1
 905 544 l 1
 915 318 842 186 744 112 c 0
 647 38 525 21 437 18 c 2
 437 18 436 18 436 18 c 1
 436 18 l 1
 352 18 273 36 215 54 c 0
 186 62 161 71 144 78 c 0
 135 81 128 84 123 86 c 0
 121 87 119 88 117 88 c 1
 116 88 116 88 117 88 c 1
 111 89 105 94 105 101 c 0
 105 108 111 113 118 113 c 1
 118 113 l 1
 123 113 123 112 125 112 c 0
 127 111 129 110 132 109 c 0
 137 107 144 105 153 101 c 0
 170 95 194 86 222 77 c 0
 279 60 355 43 436 43 c 0
 522 46 638 63 729 132 c 0
 821 201 889 322 880 544 c 1
 880 544 880 544 880 544 c 1
 880 544 l 1
 880 1550 l 1
 880 1550 880 1550 880 1550 c 1
 880 1557 886 1563 893 1563 c 0
EndSplineSet
Validated: 37
EndChar

StartChar: K
Encoding: 75 75 46
Width: 1224
Flags: MW
VStem: 202 25<-3.5 0 0 687 722 1550> 240 25<-3.5 0 0 699 699 699 793 1550> 993 26<-0.5 0> 1042 25<-2.5 -2 -2.5 -2.5>
LayerCount: 2
Fore
SplineSet
215 1563 m 0
 222 1563 227 1557 227 1550 c 1
 227 1550 227 1550 227 1550 c 1
 227 722 l 1
 231 725 235 730 240 735 c 1
 240 757 l 2
 240 758 239 760 239 761 c 0
 239 762 240 764 240 766 c 2
 240 1550 l 1
 240 1550 240 1550 240 1550 c 1
 240 1557 246 1563 252 1563 c 1
 252 1563 l 1
 259 1563 265 1557 265 1550 c 1
 265 1550 265 1550 265 1550 c 1
 265 793 l 1
 269 797 271 799 275 804 c 0
 296 825 326 856 361 892 c 0
 388 920 420 954 452 987 c 0
 453 989 454 990 455 991 c 0
 507 1045 563 1102 620 1162 c 0
 715 1261 809 1359 880 1433 c 0
 915 1470 944 1501 965 1523 c 0
 975 1534 983 1543 989 1549 c 0
 991 1552 994 1554 995 1555 c 0
 995 1556 995 1556 996 1556 c 0
 998 1560 1002 1563 1006 1563 c 1
 1006 1563 l 1
 1013 1563 1019 1557 1019 1550 c 1
 1019 1550 1019 1550 1019 1550 c 1
 1019 1545 1018 1545 1017 1544 c 0
 1017 1543 1017 1543 1017 1543 c 2
 1016 1542 1016 1542 1016 1541 c 1
 1015 1541 1014 1540 1014 1539 c 0
 1012 1537 1010 1535 1007 1532 c 0
 1002 1526 993 1517 983 1506 c 0
 962 1484 933 1453 898 1416 c 0
 827 1342 733 1243 638 1145 c 0
 583 1087 529 1031 478 978 c 1
 478 978 479 977 479 977 c 2
 480 979 482 980 483 982 c 0
 484 982 485 983 486 984 c 0
 531 1031 580 1080 628 1129 c 0
 732 1236 837 1343 915 1423 c 0
 954 1464 987 1497 1010 1521 c 0
 1021 1533 1030 1542 1036 1548 c 0
 1039 1551 1041 1554 1042 1555 c 2
 1042 1555 1042 1553 1042 1552 c 1
 1042 1553 1043 1555 1044 1557 c 1
 1044 1557 1044 1557 1044 1557 c 1
 1044 1557 1044 1557 1044 1557 c 1
 1046 1560 1051 1563 1054 1563 c 1
 1054 1563 l 1
 1061 1563 1067 1557 1067 1550 c 1
 1067 1550 l 1
 1067 1542 1065 1544 1065 1543 c 0
 1064 1542 1064 1542 1064 1542 c 1
 1064 1542 1064 1541 1063 1541 c 1
 1063 1540 1062 1540 1061 1539 c 0
 1060 1537 1057 1534 1054 1531 c 0
 1048 1525 1039 1515 1028 1504 c 0
 1005 1480 972 1446 933 1406 c 0
 855 1326 750 1218 646 1112 c 0
 599 1064 553 1017 509 972 c 1
 516 960 648 733 785 497 c 0
 855 376 925 255 978 163 c 0
 1004 117 1026 78 1041 51 c 0
 1049 37 1055 26 1059 19 c 0
 1061 15 1063 12 1064 9 c 0
 1065 8 1065 7 1066 6 c 2
 1066 6 1066 5 1066 4 c 1
 1067 4 1067 4 1067 0 c 1
 1067 0 l 1
 1067 -7 1062 -13 1055 -13 c 0
 1049 -13 1044 -8 1043 -3 c 0
 1042 -3 1042 -3 1042 -2 c 0
 1041 0 1039 3 1037 7 c 0
 1033 14 1027 25 1020 39 c 0
 1004 66 982 105 956 150 c 0
 904 242 833 364 763 485 c 0
 673 641 598 769 545 860 c 1
 597 768 670 639 745 505 c 0
 813 384 881 262 932 169 c 0
 958 123 979 83 994 55 c 0
 1001 40 1007 29 1011 20 c 0
 1013 16 1015 13 1016 10 c 0
 1017 8 1017 7 1018 6 c 0
 1018 4 1019 3 1019 0 c 1
 1019 0 l 1
 1019 -7 1013 -13 1006 -13 c 0
 1000 -13 995 -8 994 -2 c 0
 994 -1 993 -1 993 0 c 0
 992 2 991 5 989 10 c 0
 985 18 979 29 972 43 c 0
 957 71 936 111 910 157 c 0
 859 250 791 372 724 493 c 0
 619 679 516 860 474 936 c 1
 432 893 392 853 357 818 c 0
 320 779 288 747 265 724 c 1
 265 0 l 1
 265 0 265 0 265 0 c 1
 265 -7 259 -13 252 -13 c 0
 246 -13 240 -7 240 0 c 1
 240 0 240 0 240 0 c 1
 240 699 l 2
 238 697 236 695 234 694 c 0
 231 691 229 688 227 687 c 2
 227 0 l 1
 227 0 227 0 227 0 c 1
 227 -7 222 -13 215 -13 c 0
 208 -13 202 -7 202 0 c 1
 202 0 202 0 202 0 c 1
 202 1550 l 1
 202 1550 202 1550 202 1550 c 1
 202 1557 208 1563 215 1563 c 0
995 1555 m 1
 995 1555 995 1554 994 1553 c 1
 994 1554 995 1555 995 1555 c 1
460 960 m 1
 433 931 405 902 382 878 c 1
 407 903 433 930 461 959 c 1
 461 959 460 959 460 960 c 1
1042 -2 m 1
 1042 -3 1042 -3 1043 -3 c 1
 1042 -3 1042 -3 1042 -2 c 1
EndSplineSet
Validated: 5
EndChar

StartChar: L
Encoding: 76 76 47
Width: 1104
Flags: MW
HStem: 37 25<225 948.5> 82 25
VStem: 200 25<62 1550 62 1550 62 1553.5 62 1550> 240 25<108 1550 108 1550 108 1553.5 108 1550>
LayerCount: 2
Fore
SplineSet
212 1563 m 0
 219 1563 225 1557 225 1550 c 1
 225 1550 225 1550 225 1550 c 1
 225 62 l 1
 945 62 l 2
 945 63 945 63 945 63 c 1
 952 63 958 57 958 50 c 0
 958 43 952 37 945 37 c 1
 945 37 945 37 945 38 c 2
 212 38 l 2
 205 38 200 43 200 50 c 2
 200 1550 l 1
 200 1550 200 1550 200 1550 c 1
 200 1557 205 1563 212 1563 c 0
252 1563 m 0
 259 1563 265 1557 265 1550 c 1
 265 1550 265 1550 265 1550 c 1
 265 108 l 1
 945 108 l 1
 945 108 945 108 945 108 c 1
 952 108 958 102 958 95 c 0
 958 88 952 82 945 82 c 1
 945 82 945 82 945 82 c 1
 252 82 l 2
 245 83 240 88 240 95 c 2
 240 1550 l 1
 240 1550 240 1550 240 1550 c 1
 240 1557 245 1563 252 1563 c 0
EndSplineSet
Validated: 5
EndChar

StartChar: M
Encoding: 77 77 48
Width: 1520
Flags: MW
HStem: 485 25<714 759 716 759 719 759 731 759 731 768 731 771 731 772> 1438 25 1488 25
VStem: 199 25<-3.5 1488> 240 25<-3.5 0 0 1438> 1224 25<-3.5 0 0 1438 1438 1438> 1264 25<-3.5 0 0 1488 1488 1488>
LayerCount: 2
Fore
SplineSet
212 1512 m 2
 341 1512 l 2
 346 1512 351 1509 353 1504 c 2
 731 510 l 1
 759 510 l 1
 1136 1504 l 2
 1137 1509 1143 1512 1147 1512 c 2
 1277 1512 l 2
 1284 1512 1289 1507 1289 1500 c 2
 1289 0 l 1
 1289 0 l 1
 1289 -7 1284 -13 1277 -13 c 0
 1270 -13 1264 -7 1264 0 c 1
 1264 0 l 1
 1264 1488 l 1
 1156 1488 l 1
 1016 1118 l 1
 1156 1455 l 2
 1158 1459 1163 1462 1168 1462 c 2
 1237 1462 l 2
 1243 1462 1249 1457 1249 1450 c 2
 1249 0 l 1
 1249 0 l 1
 1249 -7 1243 -13 1237 -13 c 0
 1230 -13 1224 -7 1224 0 c 1
 1224 0 l 1
 1224 1438 l 1
 1176 1438 l 1
 784 493 l 2
 782 489 777 485 772 485 c 2
 771 485 l 2
 770 485 769 485 768 485 c 2
 722 485 l 1
 722 485 720 485 719 485 c 2
 716 485 l 2
 712 485 707 489 705 493 c 2
 313 1438 l 1
 265 1438 l 1
 265 0 l 1
 265 0 265 0 265 0 c 1
 265 -7 259 -13 252 -13 c 0
 245 -13 240 -7 240 0 c 1
 240 0 240 0 240 0 c 1
 240 1450 l 2
 240 1457 245 1462 252 1462 c 2
 321 1462 l 2
 326 1462 331 1459 333 1455 c 2
 479 1102 l 1
 333 1488 l 1
 224 1488 l 1
 224 0 l 2
 225 0 225 0 225 0 c 1
 225 -7 219 -13 212 -13 c 0
 205 -13 199 -7 199 0 c 1
 199 0 199 0 200 0 c 2
 200 1500 l 2
 200 1507 205 1512 212 1512 c 2
EndSplineSet
Validated: 5
EndChar

StartChar: N
Encoding: 78 78 49
Width: 1312
Flags: MW
HStem: 38 25 88 25 1438 25 1488 25
VStem: 199 25<-3.5 1488> 240 25<-3.5 0 0 1438> 1041 25<112 1550> 1082 25
LayerCount: 2
Fore
SplineSet
1054 1563 m 0
 1061 1563 1066 1557 1066 1550 c 1
 1066 1550 l 1
 1066 100 l 2
 1066 93 1061 88 1054 88 c 2
 969 88 l 2
 965 88 960 91 958 95 c 2
 854 314 l 1
 959 62 l 1
 1082 62 l 1
 1082 1550 l 1
 1082 1550 l 1
 1082 1557 1088 1563 1095 1563 c 1
 1095 1563 l 1
 1102 1563 1108 1557 1108 1550 c 1
 1108 1550 l 1
 1108 50 l 2
 1107 43 1102 38 1095 38 c 2
 951 38 l 2
 946 38 941 41 939 45 c 2
 629 787 l 1
 319 1438 l 1
 265 1438 l 1
 265 0 l 1
 265 0 265 0 265 0 c 1
 265 -7 259 -13 252 -13 c 0
 245 -13 240 -7 240 0 c 1
 240 0 240 0 240 0 c 1
 240 1450 l 2
 240 1457 245 1462 252 1462 c 2
 327 1462 l 2
 331 1462 336 1459 338 1455 c 2
 426 1270 l 1
 335 1488 l 1
 224 1488 l 1
 224 0 l 2
 225 0 225 0 225 0 c 1
 225 -7 219 -13 212 -13 c 0
 205 -13 199 -7 199 0 c 1
 199 0 199 0 200 0 c 2
 200 1500 l 2
 200 1507 205 1512 212 1512 c 2
 344 1512 l 2
 348 1512 353 1509 355 1505 c 2
 651 797 l 1
 977 112 l 1
 1041 112 l 1
 1041 1550 l 1
 1041 1550 l 1
 1041 1557 1047 1563 1054 1563 c 0
EndSplineSet
Validated: 5
EndChar

StartChar: O
Encoding: 79 79 50
Width: 1448
Flags: MW
HStem: 21 25<712 720 712 713> 60 25<640 727 640 727.5> 1442 25<636 805.5> 1489 25<603.5 764 677 764>
VStem: 167 25<664 772 664 872.5 664 772 664 772> 209 25<660 853.5 660 855.5> 1206 25<665.5 854.5> 1248 25<663 870.5>
LayerCount: 2
Fore
SplineSet
677 1514 m 2
 764 1514 l 2
 920 1514 1048 1429 1137 1293 c 0
 1225 1158 1273 973 1273 772 c 0
 1273 551 1224 364 1131 231 c 0
 1037 98 897 21 720 21 c 0
 717 21 714 21 712 21 c 0
 537 24 400 102 308 234 c 0
 215 367 167 552 167 772 c 1
 167 772 l 1
 167 772 l 1
 167 772 l 1
 167 973 216 1158 304 1293 c 0
 392 1429 521 1514 677 1514 c 2
677 1489 m 2
 530 1489 410 1410 325 1280 c 0
 240 1150 192 969 192 772 c 1
 192 772 l 1
 192 556 240 375 328 249 c 0
 417 122 545 49 712 46 c 1
 712 46 l 1
 712 46 l 1
 715 46 717 46 720 46 c 0
 890 46 1020 119 1110 245 c 0
 1200 372 1248 554 1248 772 c 0
 1248 969 1200 1150 1116 1280 c 0
 1031 1410 911 1489 764 1489 c 2
 677 1489 l 2
721 1467 m 0
 898 1467 1028 1382 1110 1252 c 0
 1193 1122 1231 947 1231 765 c 0
 1231 563 1192 393 1113 271 c 0
 1035 148 916 73 763 61 c 0
 749 60 735 60 720 60 c 0
 553 60 423 130 338 253 c 0
 252 377 209 552 209 764 c 0
 209 947 247 1121 330 1252 c 0
 413 1382 543 1467 721 1467 c 0
721 1442 m 0
 551 1442 431 1363 351 1238 c 0
 272 1114 234 943 234 764 c 0
 234 556 276 385 358 268 c 0
 440 150 560 85 720 85 c 0
 734 85 748 85 761 86 c 0
 907 97 1017 167 1092 284 c 0
 1167 401 1206 566 1206 765 c 0
 1206 944 1169 1114 1089 1239 c 0
 1010 1363 890 1442 721 1442 c 0
EndSplineSet
Validated: 5
EndChar

StartChar: P
Encoding: 80 80 51
Width: 1264
Flags: W
HStem: 808 25 808 45 1452 25 1490 25<225 225 225 721>
VStem: 200 25<-3.5 0 0 808 832 1490> 240 25<-3.5 0 0 808 852 1452> 1030 25<1180 1215 1181 1211.5 1181 1215> 1082 25<1100.5 1214>
LayerCount: 2
Fore
SplineSet
212 1515 m 2xbf
 721 1515 l 2
 853 1515 950 1479 1013 1416 c 0
 1077 1354 1107 1266 1107 1167 c 0
 1107 1027 1043 935 950 880 c 0
 858 826 738 808 623 808 c 2
 265 808 l 1x7f
 265 0 l 1
 265 0 265 0 265 0 c 1
 265 -7 259 -13 252 -13 c 0
 245 -13 240 -7 240 0 c 1
 240 0 240 0 240 0 c 1
 240 808 l 1
 225 808 l 1
 225 0 l 1
 225 0 225 0 225 0 c 1
 225 -7 219 -13 212 -13 c 0
 205 -13 200 -7 200 0 c 1
 200 0 200 0 200 0 c 1
 200 815 l 2
 199 816 199 819 199 820 c 0
 199 821 199 824 200 825 c 2
 200 1503 l 2
 200 1510 205 1515 212 1515 c 2xbf
225 1490 m 1
 225 832 l 1
 240 832 l 1xbf
 240 1465 l 2
 240 1472 245 1477 252 1478 c 2
 719 1478 l 2
 835 1478 920 1438 975 1380 c 0
 1029 1323 1055 1249 1055 1181 c 0
 1057 1050 1000 959 919 904 c 0
 884 881 846 864 805 851 c 1
 853 863 899 879 938 902 c 0
 1024 953 1082 1034 1082 1167 c 0
 1082 1261 1054 1341 996 1399 c 0
 938 1456 848 1490 721 1490 c 2
 225 1490 l 1
265 1452 m 1
 265 852 l 1
 635 852 l 1
 635 852 l 1x7f
 728 852 829 874 905 925 c 0
 980 976 1032 1056 1030 1180 c 2
 1030 1181 l 1
 1030 1181 l 1
 1030 1242 1007 1311 957 1363 c 0
 906 1415 829 1452 719 1452 c 2
 265 1452 l 1
EndSplineSet
Validated: 37
EndChar

StartChar: Q
Encoding: 81 81 52
Width: 1448
Flags: MW
HStem: -263 25<1181 1208.5> -235 25<1140.5 1208.5> 21 25<712 720 712 713> 60 25<720 725.5 720 743 720 751> 1442 25<636 805.5> 1489 25<603.5 764 677 764>
VStem: 167 25<664 772 664 872.5 664 772 664 772> 209 25<660 853.5 660 855.5> 708 25<349 360 360 371 349 360 349 374.5 349 371> 1206 25<665.5 854.5> 1248 25<663 870.5>
LayerCount: 2
Fore
SplineSet
677 1514 m 2
 764 1514 l 2
 920 1514 1048 1429 1137 1293 c 0
 1225 1158 1273 973 1273 772 c 0
 1273 551 1224 364 1131 231 c 0
 1050 117 936 44 793 26 c 1
 815 -23 842 -62 874 -93 c 0
 959 -180 1076 -210 1205 -210 c 1
 1205 -209 1205 -209 1205 -209 c 1
 1212 -209 1217 -215 1217 -222 c 0
 1217 -229 1212 -235 1205 -235 c 1
 1205 -235 1205 -235 1205 -234 c 1
 1158 -234 1112 -231 1068 -221 c 1
 1111 -232 1157 -238 1205 -238 c 1
 1205 -237 1205 -237 1205 -237 c 1
 1212 -237 1217 -243 1217 -250 c 0
 1217 -257 1212 -263 1205 -263 c 1
 1205 -263 1205 -263 1205 -262 c 1
 1072 -262 947 -224 856 -125 c 0
 819 -85 789 -36 765 23 c 1
 750 22 735 21 720 21 c 0
 717 21 714 21 712 21 c 0
 537 24 400 102 308 234 c 0
 215 367 167 552 167 772 c 1
 167 772 l 1
 167 772 l 1
 167 772 l 1
 167 973 216 1158 304 1293 c 0
 392 1429 521 1514 677 1514 c 2
677 1489 m 2
 530 1489 410 1410 325 1280 c 0
 240 1150 192 969 192 772 c 1
 192 772 l 1
 192 556 240 375 328 249 c 0
 417 122 545 49 712 46 c 1
 712 46 l 1
 712 46 l 1
 715 46 717 46 720 46 c 0
 732 46 744 47 755 47 c 1
 754 52 752 56 751 60 c 1
 741 60 731 60 720 60 c 0
 553 60 423 130 338 253 c 0
 252 377 209 552 209 764 c 0
 209 947 247 1121 330 1252 c 0
 413 1382 543 1467 721 1467 c 0
 898 1467 1028 1382 1110 1252 c 0
 1193 1122 1231 947 1231 765 c 0
 1231 563 1192 393 1113 271 c 0
 1037 152 924 78 778 62 c 1
 780 58 782 54 783 50 c 1
 923 66 1032 135 1110 245 c 0
 1200 372 1248 554 1248 772 c 0
 1248 969 1200 1150 1116 1280 c 0
 1031 1410 911 1489 764 1489 c 2
 677 1489 l 2
721 1442 m 0
 551 1442 431 1363 351 1238 c 0
 272 1114 234 943 234 764 c 0
 234 556 276 385 358 268 c 0
 440 150 560 85 720 85 c 0
 728 85 736 85 743 85 c 1
 722 159 710 246 708 349 c 0
 708 352 708 356 708 360 c 1
 708 360 l 1
 708 363 708 367 708 371 c 1
 708 371 708 371 708 371 c 1
 708 378 713 383 720 383 c 1
 720 383 720 383 720 383 c 1
 727 383 733 378 733 371 c 1
 733 371 733 371 733 371 c 1
 733 367 733 363 733 360 c 1
 733 360 l 1
 733 356 733 353 733 349 c 1
 733 349 l 1
 735 244 748 157 770 87 c 1
 912 100 1019 169 1092 284 c 0
 1167 401 1206 566 1206 765 c 0
 1206 944 1169 1114 1089 1239 c 0
 1010 1363 890 1442 721 1442 c 0
EndSplineSet
Validated: 5
EndChar

StartChar: R
Encoding: 82 82 53
Width: 1280
Flags: W
HStem: 808 25 808 45<603 604 603 608> 1452 25 1490 25<225 225 225 721>
VStem: 200 25<-3.5 0 0 808 832 1490> 240 25<-3.5 0 0 808 852 1452> 1030 25<1180 1215 1181 1211.5 1181 1215> 1082 25<1100.5 1214>
LayerCount: 2
Fore
SplineSet
212 1515 m 2xbf
 721 1515 l 2
 853 1515 950 1479 1013 1416 c 0
 1077 1354 1107 1266 1107 1167 c 0
 1107 1027 1043 935 950 880 c 0
 867 831 761 811 656 808 c 1
 682 764 783 597 888 421 c 0
 949 319 1010 217 1055 139 c 0
 1078 101 1097 68 1110 45 c 0
 1117 33 1122 24 1126 17 c 0
 1128 14 1129 11 1130 9 c 0
 1131 8 1131 7 1132 6 c 2
 1132 6 1132 5 1132 5 c 2
 1133 4 1133 3 1133 0 c 1
 1133 0 l 1
 1133 -7 1127 -12 1121 -12 c 0
 1115 -12 1110 -8 1108 -3 c 2
 1108 -3 1108 -3 1108 -2 c 0
 1107 0 1106 2 1104 5 c 0
 1101 12 1095 21 1089 32 c 0
 1076 55 1057 88 1034 127 c 0
 988 204 927 306 866 408 c 0
 826 476 787 541 751 601 c 1
 780 548 812 491 844 433 c 0
 901 329 958 224 1002 145 c 0
 1023 105 1041 71 1054 47 c 0
 1060 35 1065 25 1068 18 c 0
 1070 14 1071 11 1072 9 c 0
 1073 8 1073 6 1074 5 c 0
 1074 4 1075 4 1075 0 c 1
 1075 0 l 1
 1075 -7 1069 -13 1062 -13 c 0
 1056 -13 1051 -8 1050 -2 c 1
 1050 -3 1050 -3 1050 -3 c 2
 1050 -2 1050 -2 1050 -2 c 1
 1050 -2 1050 -2 1050 -2 c 1
 1050 -2 1050 -2 1050 -2 c 1
 1050 -2 1050 -1 1049 -1 c 1
 1049 1 1047 4 1046 7 c 0
 1042 14 1038 23 1031 35 c 0
 1019 60 1001 93 980 133 c 0
 937 212 879 317 822 421 c 0
 729 590 639 751 608 808 c 1
 265 808 l 1x7f
 265 0 l 1
 265 0 265 0 265 0 c 1
 265 -7 259 -13 252 -13 c 0
 245 -13 240 -7 240 0 c 1
 240 0 240 0 240 0 c 1
 240 808 l 1
 225 808 l 1
 225 0 l 1
 225 0 225 0 225 0 c 1
 225 -7 219 -13 212 -13 c 0
 205 -13 200 -7 200 0 c 1
 200 0 200 0 200 0 c 1
 200 815 l 2
 199 816 199 819 199 820 c 0
 199 821 199 824 200 825 c 2
 200 1503 l 2
 200 1510 205 1515 212 1515 c 2xbf
225 1490 m 1
 225 832 l 1
 240 832 l 1xbf
 240 1465 l 2
 240 1472 245 1477 252 1478 c 2
 719 1478 l 2
 835 1478 920 1438 975 1380 c 0
 1029 1323 1055 1249 1055 1181 c 0
 1057 1050 1000 959 919 904 c 0
 884 881 846 864 805 851 c 1
 853 863 899 879 938 902 c 0
 1024 953 1082 1034 1082 1167 c 0
 1082 1261 1054 1341 996 1399 c 0
 938 1456 848 1490 721 1490 c 2
 225 1490 l 1
265 1452 m 1
 265 852 l 1
 601 852 l 2
 602 853 603 853 603 853 c 1
 603 853 603 853 604 853 c 2
 604 853 605 853 606 852 c 2
 607 852 l 1
 635 852 l 1
 635 852 l 1x7f
 728 852 829 874 905 925 c 0
 980 976 1032 1056 1030 1180 c 2
 1030 1181 l 1
 1030 1181 l 1
 1030 1242 1007 1311 957 1363 c 0
 906 1415 829 1452 719 1452 c 2
 265 1452 l 1
EndSplineSet
Validated: 37
EndChar

StartChar: S
Encoding: 83 83 54
Width: 1232
Flags: W
HStem: 18 25 63 25 1457 25<494 593> 1487 25<503.5 528 500 528 500 528>
VStem: 159 25<396.5 440 396.5 443.5> 215 25<417.5 440 417.5 443.5> 971 25 990 25<328.5 374 328.5 374> 1035 25<317.5 440.5>
LayerCount: 2
Fore
SplineSet
644 1513 m 2xfd80
 850 1513 1058 1344 1059 1096 c 1
 1059 1096 1059 1096 1059 1096 c 1
 1059 1089 1054 1083 1047 1083 c 0
 1040 1083 1034 1089 1034 1096 c 1
 1034 1096 l 1
 1033 1330 837 1488 644 1488 c 2
 528 1487 l 1
 528 1487 l 1
 528 1487 l 1
 479 1487 394 1468 324 1418 c 0
 253 1369 196 1290 196 1167 c 0
 199 1064 226 995 268 946 c 1
 232 997 210 1064 210 1151 c 0
 210 1344 384 1482 593 1482 c 1
 593 1482 l 1
 593 1482 593 1482 593 1482 c 1
 737 1480 839 1426 903 1351 c 0
 968 1277 996 1182 996 1096 c 1
 997 1096 997 1096 997 1096 c 1
 997 1089 991 1083 984 1083 c 0
 977 1083 972 1089 972 1096 c 1
 972 1096 l 1xfe80
 971 1176 945 1265 884 1335 c 0
 824 1405 731 1455 593 1457 c 0
 395 1457 235 1329 235 1151 c 0
 235 1031 277 957 338 906 c 0
 398 855 480 827 558 804 c 2
 677 770 l 2
 696 765 715 759 732 753 c 0
 815 730 895 700 955 646 c 0
 1019 589 1060 505 1060 381 c 0
 1060 248 1010 155 926 98 c 0
 842 40 726 18 594 18 c 0
 445 18 335 77 264 159 c 0
 193 241 159 346 159 440 c 1
 159 440 159 440 159 440 c 1
 159 447 165 453 171 453 c 0
 178 453 184 447 184 440 c 1
 184 440 184 440 184 440 c 1
 184 353 216 253 283 175 c 0
 350 98 452 42 594 42 c 0
 724 42 835 65 912 118 c 0
 989 171 1035 254 1035 381 c 0
 1035 500 997 575 938 627 c 0
 934 631 930 634 926 638 c 1
 929 635 932 632 934 629 c 0
 991 563 1017 478 1015 374 c 0
 1015 283 983 203 919 147 c 0
 856 91 760 60 636 63 c 0
 465 63 359 132 296 214 c 0
 234 296 215 389 215 440 c 1
 215 440 215 440 215 440 c 1
 215 447 220 453 227 453 c 0
 234 453 240 447 240 440 c 1
 240 440 240 440 240 440 c 1
 240 395 258 306 316 229 c 0
 374 153 472 88 636 87 c 1
 636 87 636 87 636 87 c 1
 637 87 637 87 637 87 c 2
 756 85 845 115 903 166 c 0
 961 217 990 289 990 374 c 1
 990 374 990 374 990 374 c 1
 992 474 967 552 915 612 c 0
 872 662 810 701 725 729 c 0
 721 731 717 732 713 733 c 1
 713 733 713 733 713 733 c 1
 546 782 l 2
 453 806 362 833 292 888 c 0
 222 944 175 1029 171 1167 c 1
 171 1167 171 1167 171 1167 c 1
 171 1298 234 1385 309 1439 c 0
 385 1492 472 1512 528 1512 c 2
 644 1513 l 2xfd80
EndSplineSet
Validated: 37
EndChar

StartChar: T
Encoding: 84 84 55
Width: 1208
Flags: MW
HStem: 1452 25 1487 25<76.5 578>
VStem: 568 25<-3.5 0 0 1452 1478 1488> 608 25<-3.5 0 0 1452>
LayerCount: 2
Fore
SplineSet
580 1513 m 0
 581 1513 582 1513 582 1512 c 2
 1120 1512 l 1
 1120 1513 l 1
 1127 1513 1133 1507 1133 1500 c 0
 1133 1493 1127 1487 1120 1487 c 1
 1120 1488 l 1
 593 1488 l 1
 593 1478 l 1
 618 1478 l 2
 619 1478 619 1478 620 1478 c 1
 620 1478 l 1
 621 1478 622 1478 622 1478 c 1
 1120 1478 l 1
 1120 1478 l 1
 1127 1478 1133 1472 1133 1465 c 0
 1133 1458 1127 1452 1120 1452 c 1
 1120 1452 l 1
 633 1452 l 1
 633 0 l 1
 633 0 633 0 633 0 c 1
 633 -7 627 -13 620 -13 c 0
 613 -13 608 -7 608 0 c 1
 608 0 608 0 608 0 c 1
 608 1452 l 1
 593 1452 l 1
 593 0 l 1
 593 0 593 0 593 0 c 1
 593 -7 587 -13 580 -13 c 0
 573 -13 568 -7 568 0 c 1
 568 0 568 0 568 0 c 1
 568 1452 l 1
 80 1452 l 1
 80 1452 l 1
 73 1452 67 1458 67 1465 c 0
 67 1472 73 1478 80 1478 c 1
 80 1478 l 1
 568 1478 l 1
 568 1488 l 1
 80 1488 l 1
 80 1487 l 1
 73 1487 67 1493 67 1500 c 0
 67 1507 73 1513 80 1513 c 1
 80 1512 l 1
 578 1512 l 2
 579 1513 579 1513 580 1513 c 0
EndSplineSet
Validated: 5
EndChar

StartChar: U
Encoding: 85 85 56
Width: 1312
Flags: MW
HStem: 18 25 62 25
VStem: 206 25<544 1550> 242 25<539 1550> 1050 25<539 1550> 1086 25<544 1550>
LayerCount: 2
Fore
SplineSet
219 1563 m 0
 226 1563 231 1557 231 1550 c 1
 231 1550 231 1550 231 1550 c 1
 231 544 l 2
 231 323 297 199 383 129 c 0
 468 59 575 42 659 42 c 0
 743 42 850 58 935 127 c 0
 1021 196 1086 320 1086 544 c 2
 1086 1550 l 1
 1086 1550 l 1
 1086 1557 1092 1563 1099 1563 c 0
 1106 1563 1111 1557 1111 1550 c 1
 1111 1550 l 1
 1111 544 l 2
 1111 315 1043 182 951 107 c 0
 859 33 746 18 659 18 c 0
 572 18 459 34 367 109 c 0
 275 184 206 318 206 544 c 2
 206 1550 l 1
 206 1550 206 1550 206 1550 c 1
 206 1557 212 1563 219 1563 c 0
255 1563 m 0
 262 1563 267 1557 267 1550 c 1
 267 1550 267 1550 267 1550 c 1
 267 539 l 2
 267 361 318 249 391 181 c 0
 464 113 562 88 659 88 c 0
 756 88 854 112 927 180 c 0
 1000 248 1050 360 1050 539 c 2
 1050 1550 l 1
 1050 1550 l 1
 1050 1557 1056 1563 1063 1563 c 0
 1070 1563 1075 1557 1075 1550 c 1
 1075 1550 l 1
 1075 539 l 2
 1075 355 1023 235 944 162 c 0
 865 89 760 62 659 62 c 0
 557 62 453 89 374 163 c 0
 295 236 242 356 242 539 c 2
 242 1550 l 1
 242 1550 242 1550 242 1550 c 1
 242 1557 248 1563 255 1563 c 0
EndSplineSet
Validated: 5
EndChar

StartChar: V
Encoding: 86 86 57
Width: 1296
Flags: MW
HStem: 37 25 1531 20G<138 138 138 138 138 138 1164 1164 1164 1164 1164 1164>
VStem: 173 25<1549.5 1550 1550 1550.5 1549.5 1553.5 1550 1550>
LayerCount: 2
Fore
SplineSet
125 1563 m 0
 132 1563 138 1557 138 1550 c 1
 138 1550 138 1550 138 1550 c 1
 138 1551 138 1551 138 1551 c 1
 138 1551 138 1551 138 1551 c 1
 138 1550 138 1549 139 1547 c 0
 139 1544 141 1540 142 1534 c 0
 146 1522 151 1505 157 1484 c 0
 170 1442 188 1382 210 1312 c 0
 254 1170 313 983 372 797 c 0
 404 693 436 593 466 498 c 1
 440 590 412 688 384 788 c 0
 331 974 278 1161 239 1303 c 0
 219 1374 203 1433 191 1476 c 0
 185 1497 181 1514 178 1526 c 0
 176 1532 175 1537 174 1541 c 0
 174 1543 173 1544 173 1546 c 0
 173 1547 173 1547 173 1550 c 1
 173 1550 173 1550 173 1550 c 1
 173 1557 178 1563 185 1563 c 1
 185 1563 l 1
 192 1563 198 1557 198 1550 c 1
 198 1550 198 1550 198 1550 c 1
 198 1552 198 1551 198 1550 c 1
 198 1549 198 1548 199 1547 c 0
 199 1543 200 1538 202 1533 c 0
 205 1521 210 1504 215 1482 c 0
 227 1440 243 1380 263 1309 c 0
 302 1168 355 981 408 795 c 0
 511 430 612 77 616 63 c 1
 686 63 l 1
 690 77 791 430 894 795 c 0
 946 981 999 1168 1039 1309 c 0
 1058 1380 1075 1440 1086 1482 c 0
 1092 1504 1097 1521 1100 1533 c 0
 1101 1538 1102 1543 1103 1547 c 0
 1103 1548 1104 1549 1104 1550 c 1
 1104 1551 1104 1552 1104 1550 c 1
 1104 1550 l 1
 1104 1557 1110 1563 1116 1563 c 0
 1123 1563 1129 1557 1129 1550 c 1
 1129 1550 l 1
 1129 1547 1129 1547 1128 1546 c 0
 1128 1544 1128 1543 1127 1541 c 0
 1127 1537 1125 1532 1124 1526 c 0
 1121 1514 1116 1497 1110 1476 c 0
 1099 1433 1082 1374 1063 1303 c 0
 1023 1161 971 974 918 788 c 0
 890 688 862 590 836 498 c 1
 865 592 897 693 930 797 c 0
 989 983 1047 1170 1091 1312 c 0
 1113 1382 1132 1442 1144 1484 c 0
 1151 1505 1156 1522 1159 1534 c 0
 1161 1540 1162 1544 1163 1547 c 0
 1163 1549 1164 1550 1164 1551 c 1
 1164 1551 1164 1551 1164 1551 c 1
 1164 1551 1164 1551 1164 1550 c 1
 1164 1550 l 1
 1164 1557 1170 1563 1176 1563 c 0
 1183 1563 1189 1557 1189 1550 c 1
 1189 1550 l 1
 1189 1546 1189 1547 1188 1545 c 0
 1188 1544 1188 1543 1187 1541 c 0
 1186 1537 1185 1533 1183 1527 c 0
 1180 1515 1175 1498 1168 1477 c 0
 1155 1434 1137 1375 1115 1304 c 0
 1071 1163 1012 976 954 790 c 0
 836 417 719 46 719 46 c 2
 718 42 712 38 707 38 c 2
 697 38 l 1
 697 38 696 37 695 37 c 2
 606 37 l 1
 606 37 605 38 604 38 c 2
 594 38 l 2
 589 38 584 42 582 46 c 2
 582 46 465 417 348 790 c 0
 289 976 230 1163 186 1304 c 0
 164 1375 146 1434 133 1477 c 0
 127 1498 122 1515 118 1527 c 0
 117 1533 115 1537 114 1541 c 0
 114 1543 114 1544 113 1545 c 0
 113 1547 113 1546 113 1550 c 1
 113 1550 113 1550 113 1550 c 1
 113 1557 118 1563 125 1563 c 0
138 1551 m 1
 138 1552 138 1552 138 1551 c 1
1164 1551 m 1
 1164 1552 1164 1552 1164 1551 c 1
EndSplineSet
Validated: 5
EndChar

StartChar: W
Encoding: 87 87 58
Width: 1520
Flags: MW
HStem: 38 25 1488 25
VStem: 125 25<1550 1550 1550 1550.5 1550 1553.5> 179 25<1550 1550 1550 1550.5 1550 1553.5> 1301 25<1547.5 1550 1547.5 1553.5> 1355 25<1548.5 1550 1548.5 1550 1548.5 1553.5 1548.5 1550>
LayerCount: 2
Fore
SplineSet
138 1563 m 0
 145 1563 150 1557 150 1550 c 1
 150 1550 150 1550 150 1550 c 1
 150 1551 150 1548 151 1544 c 0
 151 1540 152 1535 153 1529 c 0
 155 1516 157 1499 160 1477 c 0
 167 1434 176 1374 187 1303 c 0
 210 1160 239 974 269 789 c 0
 325 442 378 116 384 74 c 1
 379 112 333 435 284 785 c 0
 258 970 231 1157 212 1299 c 0
 202 1370 194 1430 188 1474 c 0
 185 1495 183 1513 182 1526 c 0
 180 1539 179 1545 179 1550 c 1
 179 1550 179 1550 179 1550 c 1
 179 1557 185 1563 191 1563 c 2
 192 1563 l 2
 199 1563 204 1557 204 1550 c 1
 204 1550 204 1550 204 1550 c 1
 204 1551 205 1541 206 1529 c 0
 208 1516 210 1499 213 1477 c 0
 219 1434 227 1373 237 1302 c 0
 256 1160 282 974 308 788 c 0
 360 423 410 73 411 62 c 1
 481 62 l 1
 659 1502 l 2
 660 1508 665 1512 671 1512 c 2
 717 1512 l 1
 788 1512 l 1
 834 1512 l 2
 840 1512 846 1508 846 1502 c 2
 1024 62 l 1
 1094 62 l 1
 1096 73 1146 423 1197 788 c 0
 1223 974 1249 1160 1269 1302 c 0
 1279 1373 1287 1434 1292 1477 c 0
 1295 1499 1298 1516 1299 1529 c 0
 1301 1541 1301 1551 1301 1550 c 1
 1301 1550 l 1
 1301 1557 1307 1563 1314 1563 c 0
 1321 1563 1326 1557 1326 1550 c 1
 1326 1550 l 1
 1326 1545 1325 1539 1324 1526 c 0
 1322 1513 1320 1495 1317 1474 c 0
 1312 1430 1303 1370 1294 1299 c 0
 1274 1157 1248 970 1222 785 c 0
 1172 435 1126 112 1121 74 c 1
 1128 116 1181 442 1236 789 c 0
 1266 974 1296 1160 1318 1303 c 0
 1329 1374 1339 1434 1345 1477 c 0
 1348 1499 1351 1516 1353 1529 c 0
 1354 1535 1354 1540 1355 1544 c 0
 1355 1548 1355 1551 1355 1550 c 1
 1355 1550 l 1
 1355 1557 1361 1563 1368 1563 c 0
 1375 1563 1380 1557 1380 1550 c 1
 1380 1550 l 1
 1380 1547 1380 1545 1379 1541 c 0
 1379 1537 1378 1532 1377 1526 c 0
 1376 1513 1373 1495 1370 1473 c 0
 1363 1430 1354 1370 1343 1299 c 0
 1321 1156 1291 970 1261 785 c 0
 1202 414 1142 48 1142 48 c 2
 1141 42 1136 38 1130 38 c 2
 1105 38 l 1
 1013 38 l 1
 988 38 l 2
 982 38 977 42 976 48 c 2
 777 1488 l 1
 728 1488 l 1
 530 48 l 2
 529 42 523 38 517 38 c 2
 493 38 l 1
 401 38 l 1
 376 38 l 2
 370 38 364 42 363 48 c 2
 363 48 304 414 244 785 c 0
 215 970 185 1156 163 1299 c 0
 151 1370 142 1430 136 1474 c 0
 132 1495 130 1513 128 1526 c 0
 127 1532 126 1537 126 1541 c 0
 126 1545 125 1547 125 1550 c 1
 125 1550 125 1550 125 1550 c 1
 125 1557 131 1563 138 1563 c 0
682 1488 m 1
 509 78 l 1
 703 1488 l 1
 682 1488 l 1
803 1488 m 1
 997 78 l 1
 823 1488 l 1
 803 1488 l 1
EndSplineSet
Validated: 5
EndChar

StartChar: X
Encoding: 88 88 59
Width: 1232
Flags: MW
VStem: 214 1 1014 1
LayerCount: 2
Fore
SplineSet
148 1563 m 0
 153 1563 158 1559 160 1554 c 1
 160 1554 160 1554 160 1554 c 1
 159 1554 160 1554 160 1554 c 1
 160 1554 160 1554 160 1554 c 1
 160 1553 160 1553 160 1553 c 1
 160 1553 160 1553 160 1553 c 1
 160 1553 161 1552 161 1550 c 0
 163 1547 166 1543 169 1537 c 0
 176 1525 186 1508 199 1487 c 0
 224 1444 261 1383 304 1311 c 0
 327 1273 352 1232 379 1189 c 1
 359 1225 341 1260 324 1292 c 0
 285 1365 253 1427 230 1470 c 0
 219 1492 210 1510 204 1523 c 0
 201 1529 199 1534 197 1538 c 0
 196 1540 195 1542 195 1544 c 0
 194 1545 194 1546 194 1550 c 1
 194 1550 194 1550 194 1550 c 1
 194 1557 199 1563 206 1563 c 1
 206 1563 l 1
 212 1563 218 1558 219 1552 c 1
 219 1551 219 1552 219 1552 c 1
 219 1551 219 1550 220 1548 c 0
 221 1545 224 1540 227 1534 c 0
 233 1521 241 1504 253 1482 c 0
 275 1438 307 1377 346 1304 c 0
 419 1165 517 983 615 800 c 1
 713 983 811 1165 884 1304 c 0
 923 1377 955 1438 977 1482 c 0
 989 1504 997 1521 1003 1534 c 0
 1006 1540 1009 1545 1010 1548 c 0
 1011 1550 1011 1551 1011 1552 c 1
 1011 1552 1011 1552 1011 1552 c 1
 1012 1558 1018 1563 1024 1563 c 1
 1024 1563 l 1
 1031 1563 1036 1557 1036 1550 c 1
 1036 1550 l 1
 1036 1546 1036 1545 1035 1544 c 0
 1034 1542 1034 1540 1033 1538 c 0
 1031 1534 1029 1529 1026 1523 c 0
 1020 1510 1011 1492 1000 1470 c 0
 977 1427 945 1365 906 1292 c 0
 889 1260 871 1225 851 1189 c 1
 878 1232 903 1273 926 1311 c 0
 969 1383 1006 1444 1031 1487 c 0
 1044 1508 1054 1525 1061 1537 c 0
 1064 1543 1067 1547 1069 1550 c 0
 1069 1552 1070 1553 1070 1553 c 1
 1070 1553 1070 1553 1070 1552 c 1
 1070 1553 1070 1553 1070 1554 c 1
 1070 1554 1070 1554 1070 1554 c 1
 1070 1554 1071 1554 1070 1554 c 1
 1070 1554 1070 1554 1070 1554 c 1
 1072 1559 1077 1563 1082 1563 c 1
 1082 1563 l 1
 1089 1563 1095 1557 1095 1550 c 1
 1095 1550 l 1
 1095 1545 1094 1546 1094 1545 c 0
 1093 1544 1093 1543 1093 1543 c 2
 1092 1542 1091 1540 1091 1538 c 0
 1089 1535 1086 1530 1083 1524 c 0
 1076 1512 1066 1495 1053 1474 c 0
 1027 1431 991 1370 947 1298 c 0
 862 1158 749 973 636 787 c 0
 634 783 632 779 630 776 c 0
 745 586 860 397 947 254 c 0
 991 181 1027 120 1053 77 c 0
 1066 56 1076 38 1083 26 c 0
 1086 20 1089 15 1091 12 c 0
 1092 10 1092 8 1093 7 c 0
 1093 6 1094 6 1094 5 c 0
 1094 4 1095 4 1095 0 c 1
 1095 0 l 1
 1095 -7 1089 -13 1082 -13 c 0
 1077 -13 1071 -8 1070 -3 c 2
 1070 -3 1070 -4 1070 -4 c 1
 1070 -4 1070 -4 1070 -3 c 1
 1070 -3 1070 -3 1070 -3 c 1
 1070 -3 1070 -3 1070 -2 c 1
 1070 -3 1070 -3 1070 -3 c 2
 1070 -2 1069 -1 1068 0 c 0
 1067 3 1064 8 1061 14 c 0
 1054 26 1044 43 1031 65 c 0
 1006 108 969 168 926 241 c 0
 899 284 870 333 839 384 c 1
 864 336 889 291 911 250 c 0
 949 178 981 118 1004 75 c 0
 1015 54 1024 37 1030 25 c 0
 1033 19 1035 14 1037 11 c 0
 1038 9 1038 8 1039 7 c 0
 1039 6 1040 5 1040 5 c 2
 1040 4 1041 4 1041 0 c 1
 1041 0 l 1
 1041 -7 1035 -13 1028 -13 c 0
 1023 -13 1017 -8 1016 -3 c 1
 1016 -3 1016 -3 1016 -3 c 1
 1016 -4 1016 -3 1016 -3 c 1
 1016 -3 1016 -3 1016 -3 c 1
 1016 -3 1016 -2 1016 -2 c 1
 1016 -2 1016 -3 1016 -3 c 2
 1016 -2 1015 -1 1014 0 c 0
 1013 3 1011 8 1008 14 c 0
 1002 25 993 42 982 64 c 0
 959 106 927 166 889 238 c 0
 814 378 715 562 615 748 c 1
 515 562 416 378 341 238 c 0
 303 166 271 106 248 64 c 0
 237 42 228 25 222 14 c 0
 219 8 217 3 216 0 c 0
 215 -1 214 -2 214 -3 c 2
 214 -3 214 -2 214 -2 c 1
 214 -2 214 -3 214 -3 c 1
 214 -3 214 -3 214 -3 c 1
 214 -3 214 -4 214 -3 c 1
 214 -3 214 -3 214 -3 c 1
 213 -8 207 -13 202 -13 c 0
 195 -13 189 -7 189 0 c 1
 189 0 189 0 189 0 c 1
 189 4 190 4 190 5 c 2
 190 5 191 6 191 7 c 0
 191 8 192 9 193 11 c 0
 195 14 197 19 200 25 c 0
 206 37 215 54 226 75 c 0
 249 118 281 178 319 250 c 0
 341 291 366 336 391 384 c 1
 360 333 331 284 304 241 c 0
 261 168 224 108 199 65 c 0
 186 43 176 26 169 14 c 0
 166 8 163 3 161 0 c 0
 161 -1 160 -2 160 -3 c 2
 160 -3 160 -2 160 -2 c 2
 160 -3 160 -3 160 -3 c 1
 160 -3 160 -3 160 -3 c 1
 160 -4 160 -4 160 -4 c 1
 160 -4 160 -3 160 -3 c 2
 159 -8 153 -13 148 -13 c 0
 141 -13 135 -7 135 0 c 1
 135 0 135 0 135 0 c 1
 135 4 136 4 136 5 c 0
 136 6 137 6 137 7 c 0
 138 8 138 10 139 12 c 0
 141 15 144 20 147 26 c 0
 154 38 164 56 177 77 c 0
 203 120 239 181 283 254 c 0
 370 397 485 586 600 776 c 0
 598 779 596 783 594 787 c 0
 481 973 368 1158 283 1298 c 0
 239 1370 203 1431 177 1474 c 0
 164 1495 154 1512 147 1524 c 0
 144 1530 141 1535 139 1538 c 0
 138 1540 138 1542 137 1543 c 2
 137 1543 137 1544 136 1545 c 0
 136 1546 135 1545 135 1550 c 1
 135 1550 135 1550 135 1550 c 1
 135 1557 141 1563 148 1563 c 0
EndSplineSet
Validated: 5
EndChar

StartChar: Y
Encoding: 89 89 60
Width: 1208
Flags: MW
HStem: 702 25
VStem: 140 25<1550 1550 1550 1551 1550 1553.5> 192 25<1550 1550 1550 1551 1550 1553.5> 574 25<-3.5 0 0 702> 611 25<-3.5 712> 993 25<1548 1550 1548 1553.5> 1045 25<1548 1550 1548 1553.5>
LayerCount: 2
Fore
SplineSet
1005 1563 m 0
 1012 1563 1018 1557 1018 1550 c 1
 1018 1550 1018 1550 1018 1550 c 1
 1018 1546 1017 1544 1016 1541 c 0
 1016 1538 1014 1535 1013 1531 c 0
 1010 1523 1006 1512 1001 1500 c 0
 990 1474 975 1440 957 1400 c 0
 926 1330 885 1242 843 1152 c 1
 893 1246 941 1338 979 1411 c 0
 999 1451 1016 1485 1028 1510 c 0
 1033 1522 1038 1533 1041 1540 c 0
 1043 1544 1044 1547 1044 1549 c 0
 1045 1551 1045 1552 1045 1550 c 1
 1045 1550 l 1
 1045 1557 1051 1563 1058 1563 c 0
 1064 1563 1070 1557 1070 1550 c 1
 1070 1550 l 1
 1070 1546 1069 1544 1068 1541 c 0
 1067 1538 1066 1534 1064 1530 c 0
 1061 1522 1056 1512 1050 1499 c 0
 1038 1474 1021 1440 1001 1400 c 0
 960 1320 906 1217 852 1114 c 0
 746 914 641 721 636 712 c 1
 636 0 l 2
 637 0 637 0 637 0 c 1
 637 -7 631 -13 624 -13 c 0
 617 -13 611 -7 611 0 c 1
 611 0 611 0 612 0 c 2
 612 702 l 1
 599 702 l 1
 599 0 l 1
 599 0 599 0 599 0 c 1
 599 -7 593 -13 586 -13 c 0
 580 -13 574 -7 574 0 c 1
 574 0 574 0 574 0 c 1
 574 711 l 1
 570 718 465 913 359 1114 c 0
 304 1216 250 1319 209 1399 c 0
 189 1439 172 1474 160 1499 c 0
 154 1512 149 1522 146 1530 c 0
 144 1534 143 1538 142 1541 c 0
 141 1544 140 1546 140 1550 c 1
 140 1550 140 1550 140 1550 c 1
 140 1557 146 1563 153 1563 c 1
 153 1563 l 1
 160 1563 165 1557 165 1550 c 1
 165 1550 165 1550 165 1550 c 1
 165 1552 165 1550 166 1548 c 0
 167 1546 168 1543 169 1540 c 0
 172 1532 177 1522 183 1510 c 0
 195 1485 211 1451 232 1411 c 0
 270 1336 320 1240 371 1144 c 1
 328 1237 285 1328 253 1400 c 0
 235 1440 220 1474 210 1500 c 0
 204 1512 200 1523 197 1531 c 0
 196 1535 195 1538 194 1541 c 0
 193 1544 192 1546 192 1550 c 1
 192 1550 192 1550 192 1550 c 1
 192 1557 198 1563 205 1563 c 1
 205 1563 l 1
 212 1563 217 1557 217 1550 c 1
 217 1550 217 1550 217 1550 c 1
 217 1552 217 1550 218 1548 c 0
 219 1546 220 1543 221 1539 c 0
 224 1532 228 1522 233 1509 c 0
 243 1484 258 1450 276 1411 c 0
 312 1331 359 1228 407 1125 c 0
 500 927 589 738 594 728 c 1
 616 728 l 1
 621 738 711 926 803 1125 c 0
 851 1227 899 1331 934 1410 c 0
 952 1450 967 1484 978 1509 c 0
 983 1522 987 1532 989 1539 c 0
 991 1543 992 1546 992 1548 c 0
 993 1550 993 1552 993 1550 c 1
 993 1550 993 1550 993 1550 c 1
 993 1557 999 1563 1005 1563 c 0
EndSplineSet
Validated: 5
EndChar

StartChar: Z
Encoding: 90 90 61
Width: 1160
Flags: MW
HStem: 37 25<217 1003.5> 77 25<267 1003.5> 1452 25 1487 25<153.5 954>
VStem: 192 25<62 122 62 125 62 126 62 125> 242 25<102 142 102 145 102 146> 891 25<1421 1452 1452 1452> 942 25<1431 1488 1488 1488>
LayerCount: 2
Fore
SplineSet
157 1512 m 1
 954 1512 l 2
 961 1512 967 1507 967 1500 c 2
 967 1428 l 2
 967 1426 966 1423 965 1422 c 2
 563 723 l 1
 267 142 l 1
 267 102 l 1
 1000 102 l 2
 1000 103 1000 103 1000 103 c 1
 1007 103 1012 97 1012 90 c 0
 1012 83 1007 77 1000 77 c 1
 1000 77 1000 77 1000 78 c 2
 254 78 l 2
 247 78 242 83 242 90 c 2
 242 145 l 2
 242 147 242 149 243 151 c 2
 315 291 l 1
 217 122 l 1
 217 62 l 1
 1000 62 l 2
 1000 63 1000 63 1000 63 c 1
 1007 63 1013 57 1013 50 c 0
 1013 43 1007 37 1000 37 c 1
 1000 37 1000 37 1000 38 c 2
 205 38 l 2
 198 38 192 43 192 50 c 2
 192 125 l 1
 192 125 l 1
 192 127 193 130 194 131 c 2
 541 735 l 1
 891 1421 l 1
 891 1452 l 1
 156 1452 l 1
 156 1452 l 1
 149 1452 144 1458 144 1465 c 0
 144 1472 149 1478 156 1478 c 1
 156 1478 l 1
 904 1478 l 2
 910 1477 916 1472 916 1465 c 2
 916 1418 l 2
 916 1416 915 1414 915 1412 c 2
 790 1167 l 1
 942 1431 l 1
 942 1488 l 1
 157 1488 l 1
 157 1487 l 1
 150 1487 144 1493 144 1500 c 0
 144 1507 150 1513 157 1513 c 1
 157 1512 l 1
EndSplineSet
Validated: 5
EndChar

StartChar: bracketleft
Encoding: 91 91 62
Width: 688
Flags: W
LayerCount: 2
Fore
SplineSet
104 -192 m 1
 104 1664 l 1
 592 1664 l 1
 592 1536 l 1
 240 1536 l 1
 240 -64 l 1
 576 -64 l 1
 576 -192 l 1
 104 -192 l 1
EndSplineSet
Validated: 1
EndChar

StartChar: backslash
Encoding: 92 92 63
Width: 1032
Flags: W
LayerCount: 2
Fore
SplineSet
104 1608 m 1
 248 1672 l 1
 920 -136 l 1
 784 -200 l 1
 104 1608 l 1
EndSplineSet
Validated: 1
EndChar

StartChar: bracketright
Encoding: 93 93 64
Width: 688
Flags: W
LayerCount: 2
Fore
SplineSet
120 -56 m 1
 400 -56 l 1
 400 1544 l 1
 120 1544 l 1
 120 1664 l 1
 544 1664 l 1
 544 -192 l 1
 120 -192 l 1
 120 -56 l 1
EndSplineSet
Validated: 1
EndChar

StartChar: asciicircum
Encoding: 94 94 65
Width: 848
Flags: W
LayerCount: 2
Fore
SplineSet
104 1216 m 1
 104 1408 l 1
 424 1704 l 1
 752 1392 l 1
 752 1200 l 1
 424 1512 l 1
 104 1216 l 1
EndSplineSet
Validated: 1
EndChar

StartChar: underscore
Encoding: 95 95 66
Width: 624
Flags: W
LayerCount: 2
Fore
SplineSet
0 -144 m 1
 624 -144 l 1
 624 -288 l 1
 0 -288 l 1
 0 -144 l 1
EndSplineSet
Validated: 1
EndChar

StartChar: grave
Encoding: 96 96 67
Width: 848
Flags: W
LayerCount: 2
Fore
SplineSet
232 1600 m 1
 432 1600 l 1
 584 1264 l 1
 432 1264 l 1
 232 1600 l 1
EndSplineSet
Validated: 1
EndChar

StartChar: a
Encoding: 97 97 68
Width: 976
Flags: W
HStem: 18 25<374.5 454.5 374.5 477> 52 25 678 25<741 754 741 743> 1082 46 1104 25<374.5 543 431 435 542 543 542 542>
VStem: 153 25<321 329 329 330 321 375> 168 25<836.5 840 836.5 927> 200 25<295 394.5 295 400> 218 25<836.5 840 836.5 860.5> 716 25<253 676 676 676 703 836> 754 25<-3 -2 -2 -1 -1 0 -4 -1 -4 0 148 230 230 230 271 678 678 678 703 845>
LayerCount: 2
Fore
SplineSet
431 1129 m 2xf2e0
 543 1129 l 2
 611 1129 671 1104 713 1056 c 0
 755 1008 779 937 779 845 c 2
 779 698 l 2
 780 696 781 693 781 691 c 0
 781 689 780 686 779 684 c 2
 779 0 l 1
 779 0 779 0 779 0 c 1
 779 0 l 1
 779 0 779 -1 779 -1 c 1
 779 -1 779 -1 779 -1 c 1
 779 -1 779 -2 779 -2 c 1
 779 -2 779 -2 779 -3 c 1
 779 -3 779 -3 779 -3 c 1
 779 -3 779 -4 779 -4 c 1
 779 -4 779 -4 778 -4 c 1
 778 -5 778 -5 778 -5 c 1
 778 -5 778 -5 778 -6 c 1
 778 -6 778 -6 778 -6 c 1
 778 -6 778 -7 777 -7 c 1
 777 -7 777 -7 777 -7 c 1
 777 -7 777 -8 777 -8 c 1
 777 -8 776 -8 776 -8 c 1
 776 -8 776 -9 776 -9 c 1
 776 -9 776 -9 775 -9 c 2
 775 -9 775 -9 775 -10 c 2
 775 -10 775 -10 774 -10 c 1
 774 -10 774 -10 774 -10 c 1
 774 -10 774 -11 773 -11 c 1
 773 -11 773 -11 773 -11 c 1
 773 -11 772 -11 772 -11 c 1
 772 -11 772 -12 772 -12 c 1
 772 -12 771 -12 771 -12 c 1
 771 -12 771 -12 771 -12 c 1
 771 -12 770 -12 770 -12 c 1
 770 -12 770 -12 770 -12 c 1
 769 -12 769 -12 769 -13 c 1
 768 -13 768 -13 768 -13 c 1
 768 -13 768 -13 767 -13 c 1
 767 -13 767 -13 767 -13 c 1
 767 -13 767 -13 767 -13 c 1
 767 -13 766 -13 766 -13 c 1
 766 -13 766 -13 766 -13 c 1
 766 -13 765 -13 765 -13 c 1
 765 -13 765 -12 765 -12 c 2
 764 -12 764 -12 764 -12 c 1
 764 -12 763 -12 763 -12 c 1
 763 -12 763 -12 762 -12 c 1
 762 -12 762 -12 762 -12 c 1
 762 -12 761 -12 761 -11 c 1
 761 -11 761 -11 761 -11 c 1
 761 -11 760 -11 760 -11 c 1
 760 -11 760 -11 760 -11 c 1
 760 -11 759 -10 759 -10 c 1
 759 -10 759 -10 759 -10 c 1
 759 -10 758 -9 758 -9 c 1
 758 -9 758 -9 758 -9 c 1
 758 -9 758 -9 757 -8 c 1
 757 -8 757 -8 757 -8 c 1
 757 -8 757 -8 757 -7 c 2
 757 -7 756 -7 756 -7 c 1
 756 -7 756 -7 756 -6 c 1
 756 -6 756 -6 756 -6 c 1
 756 -6 755 -6 755 -5 c 1
 755 -5 755 -5 755 -5 c 1
 755 -5 755 -4 755 -4 c 1
 755 -4 755 -4 755 -4 c 1
 755 -4 755 -3 755 -3 c 1
 755 -3 755 -3 754 -3 c 1
 754 -2 754 -2 754 -2 c 1
 754 -2 754 -2 754 -1 c 1
 754 -1 754 -1 754 -1 c 1
 754 0 754 0 754 0 c 1
 754 0 753 13 750 28 c 0
 748 44 744 64 740 86 c 0
 734 121 727 158 721 191 c 1
 706 175 689 157 670 140 c 0
 606 80 521 18 433 18 c 0
 308 18 236 83 198 152 c 0
 161 222 154 295 153 321 c 0
 153 326 153 330 153 330 c 2
 153 420 183 490 229 543 c 0
 276 595 339 631 406 654 c 0
 514 692 633 701 716 703 c 1
 716 836 l 2
 716 931 690 991 650 1029 c 0
 610 1067 554 1082 488 1082 c 0xf460
 381 1082 322 1041 287 990 c 0
 252 939 243 877 243 840 c 1
 243 840 243 840 243 840 c 1
 243 833 238 827 231 827 c 0
 224 827 218 833 218 840 c 1
 218 840 218 840 218 840 c 1
 218 881 228 947 266 1004 c 0
 299 1051 352 1092 435 1104 c 1
 431 1104 l 2xece0
 318 1104 193 1001 193 840 c 1
 193 840 193 840 193 840 c 1
 193 833 188 827 181 827 c 0
 174 827 168 833 168 840 c 1
 168 840 168 840 168 840 c 1
 168 1014 303 1129 431 1129 c 2xf2e0
542 1104 m 1xe860
 590 1097 633 1079 667 1047 c 0
 713 1004 741 935 741 836 c 2
 741 703 l 1
 745 703 750 703 754 703 c 1
 754 845 l 2
 754 933 731 997 694 1040 c 0
 657 1082 605 1104 543 1104 c 2
 542 1104 l 1xe860
754 678 m 1
 750 678 745 678 741 678 c 1
 741 253 l 1
 747 261 752 267 754 271 c 2
 754 678 l 1
716 676 m 1
 651 674 532 657 428 608 c 0
 318 555 225 468 225 321 c 0xe160
 225 269 239 208 273 160 c 0
 308 112 360 78 442 78 c 0
 498 78 569 115 624 154 c 0
 670 187 705 219 716 229 c 1
 716 676 l 1
430 636 m 1
 425 634 419 632 414 631 c 0
 350 608 291 575 248 526 c 0
 205 478 178 415 178 330 c 1
 178 330 l 1
 178 330 178 330 178 329 c 2
 178 329 178 327 178 321 c 0xe560
 179 299 186 228 220 164 c 0
 255 100 316 43 433 43 c 0
 476 43 521 62 563 88 c 1
 524 67 482 52 442 52 c 0
 353 52 291 92 253 145 c 0
 215 198 200 265 200 321 c 0
 200 479 302 575 418 630 c 0
 422 632 426 634 430 636 c 1
754 230 m 2
 751 225 746 220 742 215 c 1
 746 195 750 172 754 148 c 1
 754 230 l 2
EndSplineSet
Validated: 5
EndChar

StartChar: b
Encoding: 98 98 69
Width: 1016
Flags: W
HStem: 18 25 52 25 1082 45 1102 25<610 648.5>
VStem: 206 25<-4 0 125 196 241 920 954 1324 1324 1625> 245 25<219 932 932 932 987 1324 1324 1625> 781 25<527.5 710.5> 828 25
LayerCount: 2
Fore
SplineSet
219 1638 m 0xdf
 226 1638 231 1632 231 1625 c 1
 231 1625 231 1625 231 1625 c 1
 231 1324 l 1
 231 954 l 1
 236 957 240 961 245 965 c 1
 245 1324 l 1
 245 1625 l 1
 245 1625 245 1625 245 1625 c 1
 245 1632 250 1638 257 1638 c 1
 257 1638 l 1
 264 1638 270 1632 270 1625 c 1
 270 1625 270 1625 270 1625 c 1
 270 1324 l 1
 270 987 l 1
 281 997 297 1010 317 1023 c 0
 333 1035 349 1047 365 1058 c 0
 393 1077 422 1095 447 1107 c 0
 473 1120 495 1128 515 1128 c 1
 515 1128 l 1
 515 1128 l 1xef
 610 1127 l 1
 610 1127 l 1
 697 1127 760 1072 799 980 c 0
 837 888 854 758 854 601 c 0
 854 440 830 296 780 190 c 0
 730 85 651 18 545 18 c 0
 452 18 368 70 307 122 c 0
 294 134 281 145 270 156 c 0
 268 157 266 159 265 161 c 1
 259 133 252 100 246 71 c 0
 242 52 238 35 235 22 c 0
 234 16 233 10 232 6 c 0
 232 2 231 -1 231 0 c 1
 231 0 231 0 231 0 c 1
 231 0 231 -1 231 -2 c 2
 231 -2 231 -4 231 -4 c 2
 229 -9 224 -12 219 -12 c 0
 212 -12 206 -7 206 0 c 1
 206 0 206 0 206 0 c 1
 206 209 l 1
 206 227 l 2
 205 228 204 232 204 234 c 0
 204 236 205 239 206 241 c 2
 206 921 l 2
 206 922 206 924 206 925 c 0
 206 926 206 928 206 929 c 2
 206 1324 l 1
 206 1625 l 1
 206 1625 206 1625 206 1625 c 1
 206 1632 212 1638 219 1638 c 0xdf
610 1102 m 1xdf
 658 1093 701 1069 733 1019 c 0
 780 946 806 821 806 602 c 0
 806 451 789 316 746 216 c 0
 702 117 628 53 519 52 c 1
 519 52 l 1
 519 52 l 1
 499 52 481 54 463 57 c 1
 489 48 517 42 545 42 c 0
 640 42 710 101 757 201 c 0
 805 301 828 442 828 601 c 0
 828 757 812 884 776 970 c 0
 740 1057 687 1102 610 1102 c 1xdf
550 1083 m 0
 548 1083 546 1083 543 1082 c 1
 543 1082 l 1
 543 1082 l 1xef
 455 1082 365 1027 312 988 c 0
 297 977 283 965 270 954 c 1
 270 192 l 1
 275 186 281 180 287 174 c 0
 323 140 406 78 519 78 c 0
 618 78 681 133 723 226 c 0
 764 320 781 453 781 602 c 0
 781 819 754 940 712 1005 c 0
 672 1069 618 1082 550 1083 c 0
245 932 m 1
 240 928 236 924 231 920 c 1
 231 235 l 2
 234 231 239 226 245 219 c 1
 245 932 l 1
231 196 m 1
 231 125 l 1
 236 146 240 166 244 183 c 1
 239 188 235 192 231 196 c 1
EndSplineSet
Validated: 5
EndChar

StartChar: c
Encoding: 99 99 70
Width: 1024
Flags: MW
HStem: 17 45<533 533> 1082 45<491 575 575 581>
VStem: 160 25<480.5 649.5 480.5 651> 201 25<507.5 662 507.5 663.5> 810 25<353 405 353 408.5> 857 25<372 405 372 408.5>
LayerCount: 2
Fore
SplineSet
575 1127 m 2
 675 1127 753 1086 804 1022 c 0
 856 957 882 870 882 777 c 1
 882 777 882 777 882 777 c 1
 882 770 876 765 869 765 c 0
 862 765 857 770 857 777 c 1
 857 777 857 777 857 777 c 1
 857 866 832 947 785 1006 c 0
 742 1061 680 1096 597 1102 c 1
 668 1089 723 1054 761 1006 c 0
 811 944 834 862 834 776 c 1
 834 776 834 776 834 776 c 1
 834 769 828 764 821 764 c 0
 814 764 809 769 809 776 c 1
 809 776 809 776 809 776 c 1
 809 857 787 934 742 990 c 0
 697 1046 629 1082 533 1082 c 0
 431 1082 356 1039 304 954 c 0
 253 869 226 743 226 581 c 0
 226 434 248 303 298 210 c 0
 347 117 422 62 533 62 c 0
 614 62 682 98 731 159 c 0
 780 220 810 306 810 405 c 1
 810 405 810 405 810 405 c 1
 810 412 816 418 822 418 c 0
 829 418 835 412 835 405 c 1
 835 405 835 405 835 405 c 1
 835 301 804 210 751 144 c 0
 716 101 672 69 621 52 c 1
 706 71 761 118 797 176 c 0
 844 250 857 342 857 405 c 1
 857 405 857 405 857 405 c 1
 857 412 863 418 870 418 c 0
 877 418 882 412 882 405 c 1
 882 405 882 405 882 405 c 1
 882 339 869 243 818 162 c 0
 767 82 678 18 533 17 c 0
 432 16 338 65 270 158 c 0
 202 252 160 389 160 566 c 0
 160 736 192 876 250 973 c 0
 307 1071 391 1127 491 1127 c 2
 575 1127 l 2
471 1102 m 1
 389 1095 321 1046 271 961 c 0
 217 868 185 733 185 566 c 0
 185 395 226 264 289 176 c 1
 284 183 280 190 276 198 c 0
 223 297 201 431 201 581 c 0
 201 746 228 876 283 967 c 0
 328 1040 391 1086 471 1102 c 1
EndSplineSet
Validated: 37
EndChar

StartChar: d
Encoding: 100 100 71
Width: 1016
Flags: W
HStem: 18 25 52 25 1084 46<446 518 518 552.5> 1104 25
VStem: 154 25<494 659 494 660> 195 25<507.5 669 507.5 670> 756 25<266 849 266 906 959 1324 1324 1625> 794 25<-3 -2 -2 -1 -3 -2 -1 0 0 2 -3 0 150 209 209 238 238 238 294 797 797 799 799 800 800 801 801 802 882 1324 1324 1625>
LayerCount: 2
Fore
SplineSet
768 1638 m 0xef
 775 1638 781 1632 781 1625 c 1
 781 1625 781 1625 781 1625 c 1
 781 1324 l 1
 781 912 l 1
 785 902 790 892 794 882 c 1
 794 1324 l 1
 794 1625 l 1
 794 1625 794 1625 794 1625 c 1
 794 1632 799 1638 806 1638 c 1
 806 1638 l 1
 813 1638 819 1632 819 1625 c 1
 819 1625 819 1625 819 1625 c 1
 819 1324 l 1
 819 801 l 2
 819 800 819 799 819 799 c 1
 819 799 l 1
 819 798 819 797 819 797 c 1
 819 209 l 1
 819 0 l 1
 819 0 819 0 819 0 c 1
 819 0 l 1
 819 0 819 0 819 0 c 1
 819 -1 819 -1 819 -1 c 1
 819 -1 819 -2 819 -2 c 1
 819 -2 819 -2 819 -2 c 1
 819 -2 819 -3 819 -3 c 1
 819 -3 818 -3 818 -4 c 1
 818 -4 818 -4 818 -4 c 1
 818 -4 818 -5 818 -5 c 1
 818 -5 818 -5 818 -5 c 1
 818 -5 817 -6 817 -6 c 1
 817 -6 817 -6 817 -6 c 1
 817 -7 817 -7 817 -7 c 1
 817 -7 817 -7 816 -7 c 1
 816 -8 816 -8 816 -8 c 1
 816 -8 816 -8 816 -8 c 1
 815 -9 815 -9 815 -9 c 1
 815 -9 815 -9 815 -9 c 1
 815 -9 814 -10 814 -10 c 1
 814 -10 814 -10 814 -10 c 1
 814 -10 813 -10 813 -11 c 1
 813 -11 813 -11 813 -11 c 1
 813 -11 812 -11 812 -11 c 1
 812 -11 812 -11 812 -11 c 1
 811 -11 811 -12 811 -12 c 1
 811 -12 811 -12 811 -12 c 1
 811 -12 811 -12 811 -12 c 1
 810 -12 810 -12 809 -12 c 2
 809 -12 808 -12 808 -12 c 1
 808 -12 807 -12 807 -12 c 1
 807 -12 807 -12 807 -12 c 1
 807 -12 807 -12 806 -12 c 1
 806 -12 806 -12 806 -12 c 1
 805 -12 805 -12 804 -12 c 1
 804 -12 804 -12 804 -12 c 1
 804 -12 l 1
 804 -12 l 1
 804 -12 804 -12 803 -12 c 1
 803 -12 803 -12 803 -12 c 1
 803 -12 802 -12 802 -12 c 1
 802 -12 802 -12 802 -12 c 1
 802 -11 801 -11 801 -11 c 1
 801 -11 800 -11 800 -10 c 1
 800 -10 800 -10 800 -10 c 1
 799 -10 799 -10 799 -10 c 2
 798 -9 798 -9 798 -9 c 1
 798 -9 798 -9 798 -9 c 1
 798 -9 797 -8 797 -8 c 1
 797 -8 797 -8 797 -8 c 1
 797 -8 796 -7 796 -7 c 1
 796 -7 796 -7 796 -7 c 1
 796 -7 796 -6 796 -6 c 1
 796 -6 796 -6 795 -6 c 2
 795 -6 795 -5 795 -5 c 1
 795 -5 795 -5 795 -5 c 1
 795 -4 795 -4 795 -4 c 1
 795 -4 795 -4 795 -3 c 1
 794 -3 794 -3 794 -3 c 1
 794 -3 794 -2 794 -2 c 1
 794 -2 794 -2 794 -2 c 1
 794 -1 794 -1 794 -1 c 1
 794 -1 794 0 794 0 c 1
 794 0 794 0 794 0 c 1
 794 4 792 16 790 32 c 0
 787 48 784 68 780 90 c 0
 774 121 767 156 762 186 c 1
 754 175 746 164 736 152 c 0
 683 86 603 18 498 18 c 0
 397 16 310 70 249 167 c 0
 189 264 154 404 154 580 c 0
 154 740 179 876 226 973 c 0
 273 1070 344 1130 434 1130 c 2
 518 1130 l 2
 615 1130 690 1057 741 981 c 0
 744 976 747 971 750 966 c 0
 752 964 754 961 756 959 c 2
 756 1324 l 1
 756 1625 l 1
 756 1625 756 1625 756 1625 c 1
 756 1632 761 1638 768 1638 c 0xef
434 1104 m 2xdf
 355 1104 293 1054 248 962 c 0
 204 870 179 738 179 580 c 0
 179 408 214 272 270 180 c 0
 327 88 406 41 498 42 c 1
 498 42 l 1
 498 42 l 1
 552 42 600 63 640 93 c 1
 598 70 548 52 490 52 c 0
 388 52 312 112 264 206 c 0
 216 301 195 432 195 581 c 0
 195 759 218 890 267 978 c 0
 308 1050 367 1092 442 1104 c 1
 434 1104 l 2xdf
492 1084 m 0xef
 400 1084 335 1047 289 965 c 0
 243 884 220 757 220 581 c 0
 220 434 242 307 286 218 c 0
 331 128 397 78 490 78 c 0
 640 78 740 206 756 227 c 1
 756 906 l 1
 748 921 739 937 729 953 c 0
 691 1005 613 1084 492 1084 c 0xef
781 849 m 2
 781 266 l 1
 789 282 793 291 794 294 c 2
 794 800 l 2
 794 804 792 812 790 821 c 0
 787 829 784 838 781 849 c 2
794 238 m 1
 790 232 786 225 782 217 c 1
 785 197 790 174 794 150 c 1
 794 209 l 1
 794 238 l 1
EndSplineSet
Validated: 37
EndChar

StartChar: e
Encoding: 101 101 72
Width: 1024
Flags: W
HStem: 19 43<508.5 556> 577 25<191 201 191 201 226 800 825 834> 1082 45<475 514 475 514 475 514>
VStem: 165 25<633 633.5 633 633.5 633 634 633 634> 200 25<696 761 696 761 696 763> 787 25<227.5 248 227.5 251.5> 800 25<602 695 602 760.5> 834 25<240.5 248 240.5 251.5 602 725>
LayerCount: 2
Fore
SplineSet
475 1128 m 1xfd
 559 1128 l 2
 660 1128 737 1072 786 995 c 0
 835 917 859 818 859 725 c 2
 859 590 l 2
 859 583 853 577 846 577 c 2
 226 577 l 1
 227 522 l 1
 227 522 227 522 227 522 c 1
 227 366 266 251 325 175 c 0
 385 99 465 62 552 62 c 0
 618 62 677 93 719 133 c 0
 762 172 787 221 787 248 c 1
 787 248 787 248 787 248 c 1
 787 255 792 261 799 261 c 0
 806 261 812 255 812 248 c 1
 812 248 812 248 812 248 c 1
 812 207 783 157 736 114 c 0
 708 89 674 66 635 52 c 1
 694 66 739 96 771 129 c 0
 793 152 809 177 819 199 c 0
 830 220 834 239 834 248 c 1
 834 248 834 248 834 248 c 1
 834 255 840 261 847 261 c 0
 853 261 859 255 859 248 c 1
 859 248 859 248 859 248 c 1
 859 233 853 212 842 188 c 0
 830 164 813 137 789 112 c 0
 740 61 664 17 556 19 c 0
 432 19 334 69 268 158 c 0
 202 248 167 376 167 534 c 0
 166 568 165 633 165 633 c 1
 165 633 165 633 165 633 c 1
 165 634 165 634 165 634 c 1
 165 634 166 695 167 726 c 0
 167 829 197 928 250 1002 c 0
 304 1076 381 1126 475 1127 c 1
 475 1127 475 1128 475 1128 c 1xfd
579 1102 m 1
 647 1089 703 1055 744 1002 c 0
 797 932 825 829 825 695 c 2
 825 602 l 1xfb
 834 602 l 1
 834 725 l 2
 834 814 811 909 765 981 c 0
 722 1048 661 1095 579 1102 c 1
433 1098 m 1
 367 1085 312 1045 271 988 c 0
 221 919 192 824 192 726 c 2
 192 726 192 725 192 725 c 2
 191 695 190 634 190 633 c 2
 190 633 191 618 191 602 c 1
 201 602 l 1
 200 696 l 1
 200 696 200 696 200 696 c 1
 200 830 230 933 286 1003 c 0
 324 1052 375 1084 433 1098 c 1
514 1082 m 1
 427 1083 356 1051 305 987 c 0
 255 923 225 826 225 696 c 2
 226 602 l 1
 800 602 l 1
 800 695 l 2
 800 826 773 923 724 987 c 0
 676 1051 606 1082 514 1082 c 1
 514 1082 l 1
 514 1082 l 1
191 577 m 1
 192 562 192 546 192 535 c 0
 192 534 192 534 192 534 c 1
 192 534 l 1
 192 380 226 257 288 173 c 0
 316 135 351 104 391 83 c 1
 359 102 331 128 306 160 c 0
 242 241 202 362 202 522 c 2
 201 577 l 1
 191 577 l 1
EndSplineSet
Validated: 37
EndChar

StartChar: f
Encoding: 102 102 73
Width: 624
Flags: MW
HStem: 1098 25<21 25 24 25 25 203 228 239 264 552 552 553> 1527 25<349.5 566 371 566 371 566> 1563 25<330.5 566 361 566 361 566>
VStem: 203 25<-4.5 -1 -1 1098 1123 1347> 239 25<-4.5 -1 -1 1098 1123 1401>
LayerCount: 2
Fore
SplineSet
361 1588 m 2
 566 1588 l 1
 566 1588 l 1
 573 1588 579 1582 579 1575 c 0
 579 1568 573 1563 566 1563 c 1
 566 1563 l 1
 361 1563 l 2
 300 1563 270 1542 252 1506 c 0
 233 1469 228 1413 228 1347 c 2
 228 1123 l 1
 239 1123 l 1
 239 1401 l 2
 239 1445 246 1483 267 1510 c 0
 288 1537 323 1552 371 1552 c 2
 566 1552 l 1
 566 1552 l 1
 573 1552 579 1546 579 1539 c 0
 579 1532 573 1527 566 1527 c 1
 566 1527 l 1
 371 1527 l 2
 328 1527 303 1515 287 1494 c 0
 271 1474 264 1442 264 1401 c 2
 264 1123 l 1
 552 1123 l 1
 553 1123 l 1
 553 1123 l 1
 560 1123 565 1118 565 1111 c 0
 565 1104 560 1098 553 1098 c 1
 553 1098 l 1
 552 1098 l 1
 264 1098 l 1
 264 -1 l 1
 264 -1 264 -1 264 -1 c 1
 264 -8 258 -13 252 -13 c 0
 245 -13 239 -8 239 -1 c 1
 239 -1 239 -1 239 -1 c 1
 239 1098 l 1
 228 1098 l 1
 228 -1 l 1
 228 -1 228 -1 228 -1 c 1
 228 -8 222 -13 215 -13 c 0
 208 -13 203 -8 203 -1 c 1
 203 -1 203 -1 203 -1 c 1
 203 1098 l 1
 25 1098 l 1
 24 1098 l 2
 18 1098 12 1104 12 1111 c 0
 12 1118 18 1123 24 1123 c 2
 25 1123 l 1
 203 1123 l 1
 203 1347 l 2
 203 1415 207 1473 229 1517 c 0
 252 1561 294 1588 361 1588 c 2
EndSplineSet
Validated: 5
EndChar

StartChar: g
Encoding: 103 103 74
Width: 944
Flags: W
HStem: -241 25<344.5 427 344.5 427 344.5 428 344.5 427> -225 25<179 184> -196 25<366.5 479.5 366.5 481.5> -176 25 82 25<432 449.5 432 485> 114 25<408.5 450> 1084 46<400 484 484 520.5> 1104 25
VStem: 152 25<527.5 695.5 527.5 696.5> 193 25<527.5 672.5 527.5 673> 684 25<115 258 258 258 359 862> 721 25<161 384 161 324 161 384 324 324 387 797 797 798 798 799 799 803 912 1002 1002 1002>
LayerCount: 2
Fore
SplineSet
733 1178 m 0x2ef0
 740 1178 746 1172 746 1165 c 1
 746 1165 746 1165 746 1165 c 1
 746 386 l 1
 746 386 746 385 746 385 c 2
 746 384 746 384 746 384 c 1
 746 161 l 1
 752 2 719 -98 659 -158 c 0
 600 -218 517 -237 428 -241 c 1
 428 -241 428 -241 427 -241 c 1
 427 -241 l 1xaef0
 261 -241 179 -225 179 -225 c 2
 174 -224 169 -218 169 -212 c 0
 169 -206 175 -200 182 -200 c 2x4cf0
 182 -200 184 -200 184 -200 c 1
 184 -200 262 -216 427 -216 c 1
 513 -212 589 -194 642 -141 c 0
 695 -87 727 5 721 161 c 1
 721 161 721 161 721 161 c 1
 721 161 l 1
 721 324 l 1
 717 317 714 309 709 302 c 1
 709 115 l 2
 709 12 687 -66 641 -119 c 0
 594 -171 525 -196 438 -196 c 0xacf0
 293 -196 189 -176 189 -176 c 2
 183 -175 179 -170 179 -164 c 0
 179 -157 184 -152 191 -152 c 0x1cf0
 192 -152 193 -152 194 -152 c 2
 194 -152 295 -171 438 -171 c 0
 521 -171 581 -148 622 -102 c 0
 663 -56 684 15 684 115 c 2
 684 258 l 1
 679 249 674 241 668 232 c 0
 616 158 538 82 432 82 c 0
 332 80 259 125 215 215 c 0
 170 304 152 437 152 616 c 0
 152 777 169 904 208 992 c 0
 247 1080 311 1130 400 1130 c 2
 484 1130 l 2
 586 1130 652 1057 691 981 c 1
 697 1010 702 1041 707 1069 c 0
 715 1112 721 1150 721 1165 c 1
 721 1165 721 1165 721 1165 c 1
 721 1172 726 1178 733 1178 c 0x2ef0
393 1104 m 1x0df0
 317 1102 266 1062 230 982 c 0
 194 899 177 775 177 616 c 0
 177 439 196 309 237 226 c 0
 278 143 339 105 432 107 c 1
 432 107 l 1
 432 107 l 1
 467 107 500 116 529 132 c 1
 500 121 468 114 432 114 c 0
 381 114 339 127 306 153 c 0
 274 178 250 214 234 258 c 0
 200 345 193 462 193 591 c 0
 193 755 203 882 239 971 c 0
 270 1044 320 1091 393 1104 c 1x0df0
492 1104 m 1
 529 1098 561 1086 588 1071 c 1
 561 1090 529 1103 492 1104 c 1
440 1084 m 0x0ef0
 348 1084 296 1043 263 961 c 0
 229 879 218 754 218 591 c 0
 218 464 226 348 257 267 c 0
 273 226 294 194 322 173 c 0
 350 151 385 139 432 139 c 0
 586 139 675 293 684 310 c 1
 684 937 l 2
 684 938 684 939 683 939 c 0
 670 965 601 1084 440 1084 c 0x0ef0
721 1002 m 1
 717 981 713 959 710 941 c 1
 714 931 717 921 721 912 c 1
 721 1002 l 1
709 862 m 1
 709 359 l 1
 716 374 719 383 721 387 c 2
 721 797 l 1
 721 797 721 798 721 798 c 1
 721 799 l 2
 721 807 717 832 709 862 c 1
EndSplineSet
Validated: 37
EndChar

StartChar: h
Encoding: 104 104 75
Width: 1024
Flags: MW
HStem: 1082 45<579 587 587 590 590 607>
VStem: 202 25<-3.5 0 0 845 845 846 894 1625> 240 25<-3.5 0 0 868 868 868 949 1625> 755 25<-3.5 0 0 798> 791 25<-3.5 0 0 863>
LayerCount: 2
Fore
SplineSet
215 1638 m 0
 222 1638 227 1632 227 1625 c 1
 227 1625 227 1625 227 1625 c 1
 227 894 l 1
 231 899 235 905 240 912 c 1
 240 1625 l 1
 240 1625 240 1625 240 1625 c 1
 240 1632 246 1638 252 1638 c 1
 252 1638 l 1
 259 1638 265 1632 265 1625 c 1
 265 1625 265 1625 265 1625 c 1
 265 949 l 1
 276 963 290 979 308 997 c 0
 367 1062 442 1128 521 1128 c 1
 521 1128 521 1128 521 1128 c 1
 521 1128 538 1128 555 1128 c 0
 564 1127 572 1127 579 1127 c 0
 582 1127 585 1127 587 1127 c 0
 589 1127 591 1127 590 1127 c 1
 590 1127 l 1
 692 1127 751 1080 782 1024 c 0
 812 967 816 902 816 863 c 2
 816 0 l 1
 816 0 816 0 816 0 c 1
 816 -7 811 -13 804 -13 c 0
 797 -13 791 -7 791 0 c 1
 791 0 791 0 791 0 c 1
 791 863 l 2
 791 900 787 962 760 1012 c 0
 736 1055 697 1092 624 1100 c 1
 687 1085 727 1046 749 998 c 0
 778 936 780 861 780 798 c 2
 780 0 l 1
 780 0 780 0 780 0 c 1
 780 -7 774 -13 768 -13 c 0
 761 -13 755 -7 755 0 c 1
 755 0 755 0 755 0 c 1
 755 798 l 2
 755 860 752 933 726 988 c 0
 700 1043 654 1082 560 1082 c 0
 455 1082 374 1026 324 977 c 0
 323 976 323 975 322 975 c 0
 300 950 281 925 265 904 c 1
 265 0 l 1
 265 0 265 0 265 0 c 1
 265 -7 259 -13 252 -13 c 0
 246 -13 240 -7 240 0 c 1
 240 0 240 0 240 0 c 1
 240 868 l 1
 234 859 230 853 227 849 c 2
 227 0 l 1
 227 0 227 0 227 0 c 1
 227 -7 222 -13 215 -13 c 0
 208 -13 202 -7 202 0 c 1
 202 0 202 0 202 0 c 1
 202 845 l 2
 202 847 201 849 201 850 c 0
 201 852 202 854 202 856 c 2
 202 1625 l 1
 202 1625 202 1625 202 1625 c 1
 202 1632 208 1638 215 1638 c 0
EndSplineSet
Validated: 5
EndChar

StartChar: i
Encoding: 105 105 76
Width: 432
Flags: MW
VStem: 188 25<-4.5 -1 -1 1178 1178 1179 1360 1624> 226 25<-4.5 -1 -1 1178 1178 1179 1360 1624>
LayerCount: 2
Fore
SplineSet
201 1636 m 4
 208 1636 213 1631 213 1624 c 5
 213 1624 213 1624 213 1624 c 5
 213 1360 l 5
 213 1360 213 1360 213 1360 c 5
 213 1353 208 1348 201 1348 c 4
 194 1348 188 1353 188 1360 c 5
 188 1360 188 1360 188 1360 c 5
 188 1624 l 5
 188 1624 188 1624 188 1624 c 5
 188 1631 194 1636 201 1636 c 4
238 1636 m 4
 245 1636 251 1631 251 1624 c 5
 251 1624 251 1624 251 1624 c 5
 251 1360 l 5
 251 1360 251 1360 251 1360 c 5
 251 1353 245 1348 238 1348 c 4
 232 1348 226 1353 226 1360 c 5
 226 1360 226 1360 226 1360 c 5
 226 1624 l 5
 226 1624 226 1624 226 1624 c 5
 226 1631 232 1636 238 1636 c 4
201 1191 m 4
 208 1191 213 1186 213 1179 c 6
 213 1179 213 1179 213 1178 c 6
 213 -1 l 5
 213 -1 213 -1 213 -1 c 5
 213 -8 208 -13 201 -13 c 4
 194 -13 188 -8 188 -1 c 5
 188 -1 188 -1 188 -1 c 5
 188 1178 l 6
 188 1179 188 1179 188 1179 c 6
 188 1185 194 1191 201 1191 c 4
238 1191 m 4
 245 1191 251 1186 251 1179 c 6
 251 1179 251 1179 251 1178 c 6
 251 -1 l 5
 251 -1 251 -1 251 -1 c 5
 251 -8 245 -13 238 -13 c 4
 232 -13 226 -8 226 -1 c 5
 226 -1 226 -1 226 -1 c 5
 226 1178 l 6
 226 1179 226 1179 226 1179 c 6
 226 1185 232 1191 238 1191 c 4
EndSplineSet
Validated: 5
EndChar

StartChar: j
Encoding: 106 106 77
Width: 448
Flags: MW
HStem: -249 25<-14.5 -10 -11 -10 -10 47> -197 25<-11 -10.5 -11 -10 -10 35 35 67 67 77 77 82>
VStem: 192 25<-37 1165 1360 1624> 228 25<-23 1165 1360 1624>
LayerCount: 2
Fore
SplineSet
205 1636 m 0
 212 1636 217 1631 217 1624 c 1
 217 1624 217 1624 217 1624 c 1
 217 1360 l 1
 217 1360 217 1360 217 1360 c 1
 217 1353 212 1348 205 1348 c 0
 198 1348 192 1353 192 1360 c 1
 192 1360 192 1360 192 1360 c 1
 192 1624 l 1
 192 1624 192 1624 192 1624 c 1
 192 1631 198 1636 205 1636 c 0
240 1636 m 0
 247 1636 253 1631 253 1624 c 1
 253 1624 253 1624 253 1624 c 1
 253 1360 l 1
 253 1360 253 1360 253 1360 c 1
 253 1353 247 1348 240 1348 c 0
 234 1348 228 1353 228 1360 c 1
 228 1360 228 1360 228 1360 c 1
 228 1624 l 1
 228 1624 228 1624 228 1624 c 1
 228 1631 234 1636 240 1636 c 0
204 1178 m 0
 211 1178 217 1172 217 1165 c 1
 217 1165 217 1165 217 1165 c 1
 217 -37 l 2
 217 -75 211 -113 191 -144 c 0
 170 -175 135 -196 82 -197 c 1
 82 -197 l 1
 81 -197 80 -197 77 -197 c 0
 75 -197 71 -197 67 -197 c 2
 35 -197 l 2
 12 -197 -10 -197 -10 -197 c 1
 -10 -197 -10 -197 -11 -197 c 0
 -17 -197 -23 -192 -23 -185 c 0
 -23 -178 -17 -172 -11 -172 c 0
 -10 -172 -10 -172 -10 -172 c 1
 -10 -172 12 -172 35 -172 c 2
 67 -172 l 1
 77 -172 l 2
 80 -172 83 -172 82 -172 c 1
 82 -172 l 1
 82 -172 l 1
 128 -172 153 -155 170 -130 c 0
 186 -106 192 -72 192 -37 c 2
 192 1165 l 1
 192 1165 192 1165 192 1165 c 1
 192 1172 197 1178 204 1178 c 0
240 1178 m 0
 247 1178 253 1172 253 1165 c 1
 253 1165 253 1165 253 1165 c 1
 253 -23 l 2
 253 -113 232 -171 195 -206 c 0
 157 -240 105 -249 47 -249 c 2
 -10 -249 l 1
 -10 -249 -11 -249 -11 -249 c 2
 -18 -249 -23 -244 -23 -237 c 0
 -23 -230 -18 -224 -11 -224 c 2
 -11 -224 -10 -224 -10 -224 c 1
 47 -224 l 2
 103 -224 147 -215 178 -187 c 0
 209 -159 228 -110 228 -23 c 2
 228 1165 l 1
 228 1165 228 1165 228 1165 c 1
 228 1172 233 1178 240 1178 c 0
EndSplineSet
Validated: 5
EndChar

StartChar: k
Encoding: 107 107 78
Width: 944
Flags: MW
VStem: 202 25<-3.5 0 0 487 525 1625> 240 25<-3.5 0 0 501 501 501 597 1625> 748 25<-1.5 0 -3.5 0>
LayerCount: 2
Fore
SplineSet
215 1638 m 0
 222 1638 227 1632 227 1625 c 1
 227 1625 227 1625 227 1625 c 1
 227 525 l 2
 229 526 230 528 232 530 c 0
 234 533 237 536 240 539 c 2
 240 557 l 2
 240 558 239 560 239 561 c 0
 239 562 240 564 240 566 c 2
 240 1625 l 1
 240 1625 240 1625 240 1625 c 1
 240 1632 246 1638 252 1638 c 1
 252 1638 l 1
 259 1638 265 1632 265 1625 c 1
 265 1625 265 1625 265 1625 c 1
 265 597 l 1
 278 613 296 636 318 663 c 0
 364 719 424 794 485 869 c 0
 546 944 606 1019 652 1076 c 0
 675 1105 694 1128 707 1145 c 0
 713 1154 719 1160 722 1165 c 0
 724 1167 725 1168 725 1169 c 2
 725 1169 725 1168 725 1166 c 1
 725 1168 726 1169 726 1170 c 1
 726 1170 l 1
 726 1170 l 1
 728 1174 733 1178 737 1178 c 1
 737 1178 l 1
 744 1178 750 1172 750 1165 c 1
 750 1165 750 1165 750 1165 c 1
 750 1159 749 1160 749 1159 c 0
 748 1158 748 1158 748 1158 c 2
 747 1157 747 1156 746 1156 c 0
 745 1154 744 1152 742 1150 c 0
 738 1145 733 1138 726 1130 c 0
 713 1113 694 1089 671 1061 c 0
 626 1004 565 928 505 853 c 0
 484 827 464 803 443 778 c 1
 460 797 476 816 493 836 c 0
 564 920 634 1004 688 1067 c 0
 714 1098 736 1125 752 1143 c 0
 759 1152 765 1160 769 1165 c 0
 772 1167 773 1169 774 1171 c 2
 774 1171 774 1171 775 1171 c 0
 776 1175 781 1178 785 1178 c 1
 785 1178 l 1
 792 1178 798 1172 798 1165 c 1
 798 1165 798 1165 798 1165 c 1
 798 1159 797 1160 797 1159 c 1
 796 1159 796 1158 796 1158 c 1
 796 1158 795 1157 795 1157 c 2
 795 1156 794 1156 794 1155 c 0
 793 1154 791 1152 789 1149 c 0
 785 1144 779 1137 771 1127 c 0
 755 1109 733 1082 707 1051 c 0
 654 987 583 904 512 820 c 0
 491 795 470 770 449 746 c 1
 454 737 542 563 633 383 c 0
 680 290 726 197 761 127 c 0
 779 91 794 62 804 41 c 0
 809 30 813 21 816 15 c 0
 817 12 818 10 819 8 c 0
 819 7 820 6 820 5 c 0
 820 4 821 5 821 0 c 1
 821 0 l 1
 821 -7 816 -13 809 -13 c 0
 803 -13 798 -8 796 -3 c 1
 796 -3 797 -3 797 -3 c 1
 797 -3 796 -3 796 -3 c 2
 796 -2 796 -2 796 -2 c 1
 796 -2 796 -2 796 -2 c 1
 796 -2 796 -2 796 -2 c 1
 795 0 794 2 793 5 c 0
 790 11 786 19 781 30 c 0
 771 51 757 80 739 116 c 0
 704 186 657 279 611 372 c 0
 530 532 461 669 440 710 c 1
 470 648 533 518 597 385 c 0
 640 294 684 202 717 131 c 0
 733 96 747 66 757 44 c 0
 761 33 765 24 768 17 c 0
 769 13 770 11 771 8 c 0
 772 6 773 5 773 0 c 1
 773 0 773 0 773 0 c 1
 773 -7 767 -13 760 -13 c 0
 753 -13 748 -7 748 0 c 1
 748 0 748 0 748 0 c 1
 748 -3 748 -1 747 0 c 0
 747 2 746 5 745 8 c 0
 742 14 738 23 734 34 c 0
 724 55 711 85 694 121 c 0
 661 191 618 283 574 374 c 0
 509 511 443 646 414 705 c 1
 379 663 345 623 316 589 c 0
 296 566 279 546 265 530 c 1
 265 0 l 1
 265 0 265 0 265 0 c 1
 265 -7 259 -13 252 -13 c 0
 246 -13 240 -7 240 0 c 1
 240 0 240 0 240 0 c 1
 240 501 l 2
 237 498 234 495 232 492 c 0
 230 490 229 488 227 487 c 2
 227 0 l 1
 227 0 227 0 227 0 c 1
 227 -7 222 -13 215 -13 c 0
 208 -13 202 -7 202 0 c 1
 202 0 202 0 202 0 c 1
 202 1625 l 1
 202 1625 202 1625 202 1625 c 1
 202 1632 208 1638 215 1638 c 0
774 1170 m 2
 774 1170 773 1170 773 1166 c 1
 773 1168 774 1169 774 1170 c 2
EndSplineSet
Validated: 5
EndChar

StartChar: l
Encoding: 108 108 79
Width: 432
Flags: MW
HStem: 37 25<346 393.5> 87 25<357 393.5>
VStem: 189 25<278 1625> 225 25<224 1625>
LayerCount: 2
Fore
SplineSet
201 1638 m 0
 208 1638 214 1632 214 1625 c 1
 214 1625 214 1625 214 1625 c 1
 214 278 l 2
 214 211 219 156 237 119 c 0
 256 83 286 62 346 62 c 2
 390 62 l 2
 390 63 390 63 390 63 c 1
 397 63 403 57 403 50 c 0
 403 43 397 37 390 37 c 1
 390 37 390 37 390 38 c 2
 346 38 l 2
 280 38 237 64 215 108 c 0
 193 152 189 210 189 278 c 2
 189 1625 l 1
 189 1625 189 1625 189 1625 c 1
 189 1632 194 1638 201 1638 c 0
237 1638 m 0
 244 1638 250 1632 250 1625 c 1
 250 1625 250 1625 250 1625 c 1
 250 224 l 2
 250 182 257 155 272 138 c 0
 287 121 313 112 357 112 c 2
 390 112 l 2
 390 113 390 113 390 113 c 1
 397 113 403 107 403 100 c 0
 403 93 397 87 390 87 c 1
 390 87 390 87 390 88 c 2
 357 88 l 2
 309 88 275 98 253 121 c 0
 232 145 225 180 225 224 c 2
 225 1625 l 1
 225 1625 225 1625 225 1625 c 1
 225 1632 230 1638 237 1638 c 0
EndSplineSet
Validated: 5
EndChar

StartChar: m
Encoding: 109 109 80
Width: 1504
Flags: W
HStem: 1082 45 1102 25
VStem: 202 25<-3.5 0 0 151 151 938 983 1049 1165 1166> 240 25<-3.5 0 0 958 958 958> 709 25<-3.5 0 0 798> 745 25<-3.5 0 0 873> 1243 25<-3.5 0 0 798> 1279 25<-3.5 0 -3.5 0>
LayerCount: 2
Fore
SplineSet
215 1178 m 0xbf
 222 1178 227 1172 227 1165 c 1
 227 1165 227 1165 227 1165 c 1
 227 1167 227 1164 228 1160 c 0
 229 1156 230 1151 231 1145 c 0
 234 1134 237 1118 241 1101 c 0
 247 1075 254 1046 259 1021 c 1
 306 1071 382 1128 482 1128 c 2
 541 1128 l 2
 647 1128 707 1074 737 1015 c 0
 745 1000 751 984 756 969 c 1
 791 1020 881 1128 1017 1128 c 2
 1076 1128 l 2xbf
 1182 1128 1241 1073 1272 1014 c 0
 1302 954 1305 891 1305 869 c 1
 1305 869 l 1
 1305 869 l 1
 1304 0 l 1
 1304 0 l 1
 1304 -7 1298 -13 1291 -13 c 0
 1285 -13 1279 -7 1279 0 c 1
 1279 0 l 1
 1280 869 l 2
 1280 889 1277 949 1249 1002 c 0
 1223 1054 1177 1099 1085 1102 c 1x7f
 1165 1088 1211 1044 1237 992 c 0
 1267 927 1268 851 1268 798 c 2
 1268 0 l 1
 1268 0 l 1
 1268 -7 1262 -13 1255 -13 c 0
 1248 -13 1243 -7 1243 0 c 1
 1243 0 l 1
 1243 798 l 2
 1243 851 1241 923 1214 981 c 0
 1186 1038 1135 1082 1025 1082 c 0
 904 1082 812 993 765 933 c 1
 770 906 770 884 770 873 c 2
 770 0 l 1
 770 0 770 0 770 0 c 1
 770 -7 765 -13 758 -13 c 0
 751 -13 745 -7 745 0 c 1
 745 0 745 0 745 0 c 1
 745 873 l 2
 745 879 745 891 743 905 c 1
 737 897 733 890 731 886 c 0
 734 854 734 823 734 798 c 2
 734 0 l 1
 734 0 734 0 734 0 c 1
 734 -7 728 -13 722 -13 c 0
 715 -13 709 -7 709 0 c 1
 709 0 709 0 709 0 c 1
 709 798 l 2
 709 823 709 852 706 882 c 0
 705 883 704 886 704 887 c 0
 704 888 704 890 705 890 c 1
 701 921 694 953 680 981 c 0
 653 1038 601 1082 491 1082 c 0
 350 1082 278 999 265 982 c 1
 265 0 l 1
 265 0 265 0 265 0 c 1
 265 -7 259 -13 252 -13 c 0
 246 -13 240 -7 240 0 c 1
 240 0 240 0 240 0 c 1
 240 958 l 1
 234 949 229 942 227 938 c 2
 227 151 l 1
 227 0 l 1
 227 0 227 0 227 0 c 1
 227 -7 222 -13 215 -13 c 0
 208 -13 202 -7 202 0 c 1
 202 0 202 0 202 0 c 1
 202 151 l 1
 202 960 l 1
 202 1165 l 1
 202 1165 202 1165 202 1165 c 1
 202 1172 208 1178 215 1178 c 0xbf
552 1102 m 1
 631 1088 678 1044 703 992 c 0
 713 970 720 946 725 923 c 1
 729 928 733 934 738 940 c 1
 733 960 726 983 715 1004 c 0
 689 1054 643 1099 552 1102 c 1
227 1049 m 1
 227 983 l 1
 231 988 235 993 239 998 c 1
 236 1013 231 1031 227 1049 c 1
EndSplineSet
Validated: 5
EndChar

StartChar: n
Encoding: 110 110 81
Width: 1024
Flags: HW
LayerCount: 2
Fore
SplineSet
214.677734375 1177.67773438 m 0
 214.696289062 1177.67773438 214.7265625 1177.67773438 214.744140625 1177.67773438 c 0
 221.645507812 1177.67773438 227.24609375 1172.07714844 227.24609375 1165.17675781 c 0
 227.24609375 1165.09375 227.244140625 1164.95996094 227.2421875 1164.87695312 c 1
 227.267578125 1167.41503906 227.296875 1164.64746094 227.556640625 1162.57617188 c 0
 227.81640625 1160.50488281 228.21484375 1157.55859375 228.724609375 1153.9140625 c 0
 229.743164062 1146.62597656 231.212890625 1136.52539062 232.978515625 1124.59960938 c 0
 236.509765625 1100.74707031 241.23046875 1069.56738281 245.953125 1038.60546875 c 0
 255.3984375 976.682617188 264.853515625 915.630859375 264.853515625 915.630859375 c 2
 264.934570312 915.107421875 265 914.252929688 265 913.72265625 c 0
 265 913.720703125 265 913.71875 265 913.716796875 c 2
 265 0 l 2
 265.000976562 -0.048828125 265.000976562 -0.1279296875 265.000976562 -0.1767578125 c 0
 265.000976562 -7.0771484375 259.400390625 -12.677734375 252.5 -12.677734375 c 0
 245.599609375 -12.677734375 239.999023438 -7.0771484375 239.999023438 -0.1767578125 c 0
 239.999023438 -0.1279296875 239.999023438 -0.048828125 240 0 c 2
 240 912.7578125 l 2
 239.85546875 913.693359375 230.616210938 973.35546875 221.23828125 1034.8359375 c 0
 216.512695312 1065.81640625 211.790039062 1097.01660156 208.248046875 1120.93945312 c 0
 206.477539062 1132.90039062 205.000976562 1143.03808594 203.96484375 1150.453125 c 0
 203.446289062 1154.16113281 203.038085938 1157.18164062 202.751953125 1159.4609375 c 0
 202.465820312 1161.74023438 202.208984375 1161.70507812 202.2421875 1165.12304688 c 0
 202.2421875 1165.13769531 202.2421875 1165.16210938 202.2421875 1165.17675781 c 0
 202.2421875 1172.04101562 207.813476562 1177.64160156 214.677734375 1177.67773438 c 0
214.54296875 1177.67578125 m 0
 214.594726562 1177.67675781 214.678710938 1177.67675781 214.73046875 1177.67675781 c 0
 221.630859375 1177.67675781 227.231445312 1172.07617188 227.231445312 1165.17578125 c 0
 227.231445312 1165.12695312 227.231445312 1165.04882812 227.23046875 1165 c 2
 227.23046875 959.67578125 l 1
 227.23046875 150.94921875 l 1
 227.23046875 0 l 2
 227.231445312 -0.048828125 227.231445312 -0.1279296875 227.231445312 -0.1767578125 c 0
 227.231445312 -7.0771484375 221.630859375 -12.677734375 214.73046875 -12.677734375 c 0
 207.830078125 -12.677734375 202.229492188 -7.0771484375 202.229492188 -0.1767578125 c 0
 202.229492188 -0.1279296875 202.229492188 -0.048828125 202.23046875 0 c 2
 202.23046875 150.94921875 l 1
 202.23046875 959.67578125 l 1
 202.23046875 1165 l 2
 202.229492188 1165.04882812 202.229492188 1165.12695312 202.229492188 1165.17578125 c 0
 202.229492188 1171.97363281 207.74609375 1177.57421875 214.54296875 1177.67578125 c 0
520.724609375 1127.859375 m 0
 520.760742188 1127.859375 520.819335938 1127.85839844 520.85546875 1127.85742188 c 2
 520.85546875 1127.85742188 537.984375 1127.6796875 555.189453125 1127.5 c 0
 563.791992188 1127.41015625 572.413085938 1127.31933594 578.921875 1127.25195312 c 0
 582.17578125 1127.21875 584.903320312 1127.19140625 586.833984375 1127.171875 c 0
 588.758789062 1127.15234375 590.915039062 1127.13964844 589.8515625 1127.140625 c 2
 589.859375 1127.140625 l 2
 692.329101562 1127.13769531 751.427734375 1080.11914062 781.95703125 1023.61523438 c 0
 812.487304688 967.110351562 816.380859375 902.244140625 816.380859375 862.666015625 c 2
 816.380859375 -0.009765625 l 2
 816.381835938 -0.05859375 816.381835938 -0.1376953125 816.381835938 -0.1865234375 c 0
 816.381835938 -7.0869140625 810.782226562 -12.6875 803.880859375 -12.6875 c 0
 796.98046875 -12.6875 791.379882812 -7.0869140625 791.379882812 -0.1865234375 c 0
 791.379882812 -0.1376953125 791.379882812 -0.05859375 791.380859375 -0.009765625 c 2
 791.380859375 862.666015625 l 2
 791.380859375 900.473632812 787.051757812 961.596679688 759.962890625 1011.73242188 c 0
 732.875 1061.86816406 684.962890625 1102.140625 589.8515625 1102.140625 c 0
 589.850585938 1102.140625 589.848632812 1102.140625 589.84765625 1102.140625 c 0
 589.846679688 1102.140625 589.844726562 1102.140625 589.84375 1102.140625 c 0
 588.608398438 1102.14160156 588.513671875 1102.15234375 586.580078125 1102.171875 c 0
 584.646484375 1102.19140625 581.918945312 1102.21972656 578.6640625 1102.25390625 c 0
 572.154296875 1102.32128906 563.532226562 1102.41015625 554.9296875 1102.5 c 0
 537.779296875 1102.67871094 520.815429688 1102.85644531 520.705078125 1102.85742188 c 0
 455.252929688 1102.84472656 379.469726562 1039.92480469 321.83203125 974.716796875 c 0
 264.189453125 909.501953125 224.404296875 844.138671875 224.404296875 844.138671875 c 2
 222.40234375 840.740234375 217.577148438 837.981445312 213.6328125 837.981445312 c 0
 206.731445312 837.981445312 201.130859375 843.58203125 201.130859375 850.482421875 c 0
 201.130859375 852.46875 201.987304688 855.4453125 203.04296875 857.126953125 c 2
 203.04296875 857.126953125 243.747070312 924.125 303.099609375 991.2734375 c 0
 362.452148438 1058.421875 440.16015625 1127.859375 520.724609375 1127.859375 c 0
559.544921875 1107.5 m 0
 661.69921875 1107.5 719.797851562 1060.51171875 748.732421875 998.44140625 c 0
 777.666992188 936.37109375 780.005859375 860.564453125 780.005859375 797.953125 c 2
 780.005859375 0.009765625 l 2
 780.006835938 -0.0390625 780.006835938 -0.1181640625 780.006835938 -0.1669921875 c 0
 780.006835938 -7.0673828125 774.40625 -12.66796875 767.505859375 -12.66796875 c 0
 760.60546875 -12.66796875 755.004882812 -7.0673828125 755.004882812 -0.1669921875 c 0
 755.004882812 -0.1181640625 755.004882812 -0.0390625 755.005859375 0.009765625 c 2
 755.005859375 797.953125 l 2
 755.005859375 859.831054688 751.8671875 932.547851562 726.07421875 987.87890625 c 0
 700.28125 1043.20996094 654.400390625 1082.5 559.544921875 1082.5 c 0
 374.439453125 1082.5 264.9921875 906.55078125 264.9921875 906.55078125 c 2
 262.986328125 903.177734375 258.172851562 900.439453125 254.247070312 900.439453125 c 0
 247.346679688 900.439453125 241.74609375 906.040039062 241.74609375 912.940429688 c 0
 241.74609375 914.958984375 242.62890625 917.977539062 243.716796875 919.677734375 c 2
 243.716796875 919.677734375 358.729492188 1107.5 559.544921875 1107.5 c 0
EndSplineSet
EndChar

StartChar: o
Encoding: 111 111 82
Width: 1040
Flags: MW
HStem: 20 43<513 513> 1084 45<471 514 514 514 514 514>
VStem: 167 25<516.5 659.5 516.5 660.5> 200 25<513 673 482.5 674> 802 25<513 673> 834 25<517 659.5>
LayerCount: 2
Fore
SplineSet
471 1129 m 1
 555 1129 l 2
 657 1129 734 1072 784 976 c 0
 835 880 859 743 859 578 c 0
 859 412 832 273 776 175 c 0
 719 76 630 19 513 20 c 0
 396 21 307 78 251 176 c 0
 194 274 167 412 167 578 c 0
 167 743 192 879 242 975 c 0
 292 1071 370 1127 471 1129 c 1
 471 1129 471 1129 471 1129 c 1
581 1102 m 1
 648 1089 705 1052 746 988 c 0
 799 903 827 771 827 578 c 0
 827 448 814 346 790 266 c 1
 819 350 834 456 834 578 c 0
 834 741 809 874 762 965 c 0
 720 1047 660 1094 581 1102 c 1
448 1102 m 1
 367 1093 307 1046 264 963 c 0
 217 873 192 741 192 578 c 0
 192 455 207 349 237 265 c 1
 213 345 200 448 200 578 c 0
 200 770 230 903 285 988 c 0
 326 1052 382 1088 448 1102 c 1
514 1084 m 1
 427 1084 357 1053 306 974 c 0
 255 895 225 768 225 578 c 0
 225 387 253 258 303 177 c 0
 353 97 423 63 514 63 c 0
 604 63 674 97 724 177 c 0
 773 258 802 387 802 578 c 0
 802 768 774 896 725 974 c 0
 675 1053 606 1084 514 1084 c 1
 514 1084 l 1
 514 1084 l 1
EndSplineSet
Validated: 37
EndChar

StartChar: p
Encoding: 112 112 83
Width: 1016
Flags: W
HStem: 18 25 52 25 1082 45 1102 25<603 641>
VStem: 198 25<-288.5 -285 -285 197 236 868 868 916 950 1026> 237 25<-288.5 -285 -285 155 220 868 868 929 929 929> 781 25<527.5 710.5> 828 25
LayerCount: 2
Fore
SplineSet
211 1178 m 0xdf
 218 1178 223 1172 223 1165 c 1
 223 1165 223 1165 223 1165 c 1
 223 1165 225 1153 227 1138 c 0
 230 1124 234 1105 238 1084 c 0
 244 1050 252 1012 258 981 c 1
 264 986 271 992 280 999 c 0
 305 1019 331 1039 357 1057 c 0
 385 1076 413 1094 439 1107 c 0
 464 1120 487 1128 507 1128 c 1
 507 1128 l 1
 507 1128 l 1xef
 602 1127 l 1
 602 1127 l 1
 689 1127 754 1072 795 980 c 0
 835 888 854 759 854 601 c 0
 854 440 828 295 776 190 c 0
 723 85 643 18 537 18 c 0
 421 18 321 96 262 155 c 1
 262 -285 l 1
 262 -285 262 -285 262 -285 c 1
 262 -292 256 -298 249 -298 c 0
 242 -298 237 -292 237 -285 c 1
 237 -285 237 -285 237 -285 c 1
 237 181 l 1
 232 187 227 192 223 197 c 1
 223 -285 l 1
 223 -285 223 -285 223 -285 c 1
 223 -292 218 -298 211 -298 c 0
 204 -298 198 -292 198 -285 c 1
 198 -285 198 -285 198 -285 c 1
 198 868 l 1
 198 919 l 1
 198 919 198 921 198 921 c 2
 198 922 198 924 198 924 c 1
 198 1165 l 1
 198 1165 198 1165 198 1165 c 1
 198 1172 204 1178 211 1178 c 0xdf
603 1102 m 1xdf
 651 1093 695 1069 729 1019 c 0
 778 946 806 821 806 602 c 0
 806 451 787 315 741 216 c 0
 696 117 620 53 511 52 c 1
 511 52 l 1
 511 52 l 1
 492 52 473 54 456 57 c 1
 482 48 509 42 537 42 c 0
 632 42 704 101 753 201 c 0
 803 301 828 443 828 601 c 0
 828 757 810 884 772 970 c 0
 734 1056 679 1102 603 1102 c 1xdf
542 1083 m 0
 540 1083 538 1083 535 1082 c 1
 535 1082 l 1
 535 1082 l 1xef
 470 1082 400 1049 347 1015 c 0
 327 1003 310 990 296 980 c 0
 284 970 273 960 262 951 c 1
 262 868 l 1
 262 192 l 1
 274 179 290 163 308 148 c 0
 351 114 419 78 511 78 c 0
 610 78 675 133 719 226 c 0
 762 320 781 453 781 602 c 0
 781 819 752 940 708 1005 c 0
 666 1068 610 1082 542 1083 c 0
223 1026 m 1
 223 950 l 1
 227 954 232 958 236 961 c 1
 232 981 228 1003 223 1026 c 1
237 929 m 1
 232 925 228 920 223 916 c 1
 223 868 l 1
 223 236 l 2
 224 236 225 235 226 234 c 2
 226 234 230 229 237 220 c 1
 237 868 l 1
 237 929 l 1
EndSplineSet
Validated: 5
EndChar

StartChar: q
Encoding: 113 113 84
Width: 1016
Flags: W
HStem: 18 25 52 25 1084 46<446 518 518 566.5> 1104 25
VStem: 154 25<494 659 494 660> 195 25<507.5 669 507.5 670> 756 25<-288.5 -285 -285 -143 -143 177 177 177 266 849> 794 25<-288.5 -285 -285 -143 -143 238 238 238 294 797 797 799 799 800 800 801 801 802 882 972 972 991 991 991 1165 1166 1166 1167 1167 1168>
LayerCount: 2
Fore
SplineSet
806 1178 m 1xef
 806 1178 807 1178 807 1178 c 1
 807 1178 807 1178 807 1178 c 1
 808 1178 808 1178 808 1178 c 1
 808 1178 809 1177 809 1177 c 1
 809 1177 809 1177 809 1177 c 1
 810 1177 810 1177 810 1177 c 1
 810 1177 810 1177 811 1177 c 1
 811 1177 811 1177 811 1177 c 1
 811 1177 812 1177 812 1176 c 1
 812 1176 812 1176 812 1176 c 1
 812 1176 813 1176 813 1176 c 1
 813 1176 813 1176 813 1176 c 1
 813 1176 814 1175 814 1175 c 1
 814 1175 814 1175 814 1175 c 1
 814 1175 815 1175 815 1174 c 1
 815 1174 815 1174 815 1174 c 1
 815 1174 816 1174 816 1174 c 2
 816 1173 816 1173 816 1173 c 1
 816 1173 816 1173 817 1173 c 1
 817 1172 817 1172 817 1172 c 1
 817 1172 817 1172 817 1171 c 1
 817 1171 817 1171 817 1171 c 1
 818 1171 818 1171 818 1170 c 1
 818 1170 818 1170 818 1170 c 1
 818 1170 818 1169 818 1169 c 1
 818 1169 818 1169 818 1169 c 1
 819 1169 819 1168 819 1168 c 1
 819 1168 819 1168 819 1168 c 1
 819 1167 819 1167 819 1167 c 1
 819 1167 819 1166 819 1166 c 1
 819 1166 819 1166 819 1165 c 1
 819 1165 819 1165 819 1165 c 1
 819 1165 l 1
 819 1165 819 1165 819 1165 c 1
 819 972 l 1
 819 801 l 2
 819 800 819 799 819 799 c 1
 819 799 l 1
 819 798 819 797 819 797 c 1
 819 -143 l 1
 819 -285 l 1
 819 -285 819 -285 819 -285 c 1
 819 -292 813 -298 806 -298 c 0
 800 -298 794 -292 794 -285 c 1
 794 -285 794 -285 794 -285 c 1
 794 -143 l 1
 794 238 l 1
 790 231 786 223 781 215 c 1
 781 -143 l 1
 781 -285 l 1
 781 -285 781 -285 781 -285 c 1
 781 -292 775 -298 768 -298 c 0
 761 -298 756 -292 756 -285 c 1
 756 -285 756 -285 756 -285 c 1
 756 -143 l 1
 756 177 l 1
 750 169 743 161 736 152 c 0
 683 86 603 18 498 18 c 0
 397 16 310 70 249 167 c 0
 189 264 154 404 154 580 c 0
 154 740 179 876 226 973 c 0
 273 1070 344 1130 434 1130 c 2
 518 1130 l 2
 615 1130 690 1057 741 981 c 0
 748 970 755 958 762 947 c 1
 765 970 770 1000 775 1031 c 0
 780 1062 785 1093 788 1118 c 0
 790 1131 791 1142 792 1150 c 0
 794 1158 794 1165 794 1165 c 1
 794 1165 l 1
 794 1165 794 1165 794 1165 c 1
 794 1165 l 1
 794 1165 794 1166 794 1166 c 1
 794 1166 794 1166 794 1166 c 1
 794 1166 794 1167 794 1167 c 1
 794 1167 794 1167 794 1167 c 1
 794 1168 794 1168 794 1168 c 1
 794 1168 794 1169 794 1169 c 2
 795 1169 795 1169 795 1169 c 2
 795 1170 795 1170 795 1170 c 1
 795 1170 795 1170 795 1171 c 1
 795 1171 795 1171 795 1171 c 1
 796 1171 796 1172 796 1172 c 1
 796 1172 796 1172 796 1172 c 1
 796 1172 796 1173 797 1173 c 1
 797 1173 797 1173 797 1173 c 1
 797 1173 797 1174 797 1174 c 1
 797 1174 798 1174 798 1174 c 1
 798 1174 798 1174 798 1175 c 2
 798 1175 798 1175 799 1175 c 1
 799 1175 799 1175 799 1175 c 1
 799 1175 799 1175 799 1176 c 1
 800 1176 800 1176 800 1176 c 1
 800 1176 801 1176 801 1176 c 1
 801 1176 801 1176 801 1177 c 1
 802 1177 802 1177 802 1177 c 1
 802 1177 802 1177 803 1177 c 1
 803 1177 803 1177 803 1177 c 1
 803 1177 804 1177 804 1177 c 1
 804 1177 804 1177 804 1177 c 1
 804 1177 805 1178 805 1178 c 1
 805 1178 805 1178 805 1178 c 1
 806 1178 806 1178 806 1178 c 1
 806 1178 806 1178 806 1178 c 1
 806 1178 806 1178 806 1178 c 1xef
434 1104 m 2xdf
 355 1104 293 1054 248 962 c 0
 204 870 179 738 179 580 c 0
 179 408 214 272 270 180 c 0
 327 88 406 41 498 42 c 1
 498 42 l 1
 498 42 l 1
 552 42 600 63 640 93 c 1
 598 70 548 52 490 52 c 0
 388 52 312 112 264 206 c 0
 216 301 195 432 195 581 c 0
 195 759 218 890 267 978 c 0
 308 1050 367 1092 442 1104 c 1
 434 1104 l 2xdf
492 1084 m 0xef
 400 1084 335 1047 289 965 c 0
 243 884 220 757 220 581 c 0
 220 434 242 307 286 218 c 0
 331 128 397 78 490 78 c 0
 640 78 740 206 756 227 c 1
 756 906 l 1
 746 925 660 1084 492 1084 c 0xef
794 991 m 1
 787 948 782 915 781 910 c 0
 786 901 790 891 794 882 c 1
 794 972 l 1
 794 991 l 1
781 849 m 2
 781 266 l 1
 789 282 793 291 794 294 c 2
 794 800 l 2
 794 804 792 812 790 821 c 0
 787 829 784 838 781 849 c 2
EndSplineSet
Validated: 37
EndChar

StartChar: r
Encoding: 114 114 85
Width: 712
Flags: MW
HStem: 1082 45
VStem: 202 25<-3.5 0 0 151 151 848 896 960 960 997> 240 25<-3.5 0 0 870 870 870>
LayerCount: 2
Fore
SplineSet
215 1178 m 1
 215 1178 215 1178 215 1178 c 1
 215 1178 215 1178 215 1178 c 1
 215 1178 215 1178 215 1178 c 1
 216 1178 216 1178 216 1178 c 1
 216 1178 216 1178 217 1178 c 1
 217 1177 217 1177 217 1177 c 2
 218 1177 218 1177 218 1177 c 1
 218 1177 218 1177 219 1177 c 1
 219 1177 219 1177 219 1177 c 1
 219 1177 220 1177 220 1177 c 1
 220 1177 220 1176 220 1176 c 1
 220 1176 221 1176 221 1176 c 1
 221 1176 221 1176 221 1176 c 1
 221 1176 222 1175 222 1175 c 1
 222 1175 223 1175 223 1174 c 0
 225 1173 227 1169 227 1166 c 1
 227 1166 l 1
 260 944 l 2
 261 945 261 945 261 945 c 2
 272 960 284 976 298 991 c 0
 355 1058 433 1128 521 1128 c 2
 670 1128 l 1
 670 1128 l 1
 677 1128 683 1122 683 1115 c 0
 683 1112 680 1107 678 1105 c 1
 680 1103 683 1098 683 1095 c 0
 683 1088 677 1082 670 1082 c 1
 670 1082 l 1
 560 1082 l 2
 415 1082 316 975 279 927 c 0
 274 920 269 914 265 908 c 1
 265 0 l 1
 265 0 265 0 265 0 c 1
 265 -7 259 -13 252 -13 c 0
 246 -13 240 -7 240 0 c 1
 240 0 240 0 240 0 c 1
 240 870 l 1
 234 859 229 852 227 848 c 2
 227 151 l 1
 227 0 l 1
 227 0 227 0 227 0 c 1
 227 -7 222 -13 215 -13 c 0
 208 -13 202 -7 202 0 c 1
 202 0 202 0 202 0 c 1
 202 151 l 1
 202 850 l 1
 202 850 202 851 202 852 c 2
 202 852 202 853 202 853 c 1
 202 960 l 1
 202 1165 l 1
 202 1165 202 1165 202 1165 c 1
 202 1169 205 1173 207 1175 c 0
 208 1175 208 1175 208 1175 c 2
 208 1176 208 1176 208 1176 c 2
 209 1176 209 1176 209 1176 c 1
 209 1176 209 1176 210 1177 c 1
 210 1177 210 1177 210 1177 c 1
 210 1177 210 1177 211 1177 c 1
 211 1177 211 1177 211 1177 c 1
 211 1177 212 1177 212 1177 c 1
 212 1177 212 1177 212 1177 c 1
 212 1177 213 1178 213 1178 c 1
 213 1178 213 1178 214 1178 c 1
 214 1178 214 1178 214 1178 c 1
 214 1178 214 1178 215 1178 c 1
227 997 m 1
 227 960 l 1
 227 896 l 1
 231 902 235 908 240 915 c 1
 227 997 l 1
EndSplineSet
Validated: 5
EndChar

StartChar: s
Encoding: 115 115 86
Width: 944
Flags: W
HStem: 18 25<416.5 483 481 483> 58 25<430.5 507 430.5 509.5> 1082 45<383.5 404 383.5 451>
VStem: 160 25<325 356 325 359.5> 207 25<335 356 335 359.5> 694 25<817.5 821 817.5 849.5> 720 25<266 345 262.5 372> 739 25<817.5 821 817.5 821>
LayerCount: 2
Fore
SplineSet
487 1128 m 2xfe
 636 1128 763 998 764 821 c 1
 764 821 764 821 764 821 c 1
 764 814 758 808 751 808 c 0
 744 808 739 814 739 821 c 1
 739 821 l 1xfd
 738 976 636 1087 512 1101 c 1
 582 1087 631 1052 663 1008 c 0
 705 952 719 882 719 821 c 1
 719 821 719 821 719 821 c 1
 719 814 714 808 707 808 c 0
 700 808 694 814 694 821 c 1
 694 821 l 1
 694 878 680 943 643 993 c 0
 606 1044 547 1081 451 1082 c 0
 312 1082 222 987 222 860 c 0
 222 782 249 731 291 693 c 0
 331 656 384 633 437 617 c 0
 439 616 440 616 441 616 c 0
 442 616 442 616 442 616 c 1
 528 590 l 1
 529 590 l 2
 534 588 540 587 545 585 c 2
 560 581 l 2
 628 562 681 533 717 490 c 0
 754 446 772 390 772 322 c 0
 772 208 735 131 680 83 c 0
 624 36 552 18 483 18 c 0
 482 18 482 18 481 18 c 0
 352 18 270 69 222 138 c 0
 174 206 160 290 160 356 c 1
 160 356 160 356 160 356 c 1
 160 363 166 369 173 369 c 0
 179 369 185 363 185 356 c 1
 185 356 185 356 185 356 c 1
 185 294 199 214 243 152 c 0
 286 90 358 42 481 42 c 0
 482 42 482 42 483 43 c 1
 483 43 l 1
 483 43 l 1
 548 43 614 60 663 102 c 0
 713 145 747 213 747 322 c 0
 747 386 730 435 698 473 c 0
 697 474 696 476 695 477 c 1
 727 431 745 375 745 315 c 0
 745 210 699 144 645 106 c 0
 590 69 528 58 491 58 c 0
 363 58 290 111 251 175 c 0
 212 238 207 312 207 356 c 1
 207 356 207 356 207 356 c 1
 207 363 212 369 219 369 c 0
 226 369 232 363 232 356 c 1
 232 356 232 356 232 356 c 1
 232 314 238 245 272 188 c 0
 307 130 370 83 491 83 c 0
 523 83 581 93 630 127 c 0
 679 161 720 217 720 315 c 0
 720 429 655 523 539 561 c 1
 521 566 l 1
 521 566 l 1
 435 591 l 2
 433 592 432 592 430 593 c 0
 355 613 291 637 244 679 c 0
 196 722 169 784 169 876 c 0
 169 964 208 1028 257 1068 c 0
 306 1109 363 1127 404 1127 c 2
 487 1128 l 2xfe
393 1102 m 1
 360 1099 312 1082 273 1049 c 0
 229 1012 194 956 194 876 c 0
 194 830 200 794 213 765 c 1
 202 792 197 824 197 860 c 0
 197 980 274 1078 393 1102 c 1
EndSplineSet
Validated: 5
EndChar

StartChar: t
Encoding: 116 116 87
Width: 720
Flags: MW
HStem: 37 25<361 583.5> 87 25<371 583.5> 1098 25<21 25 24 25 25 203 228 239 264 552 552 553>
VStem: 203 25<278 1098 1123 1625> 239 25<224 1098 1123 1625>
LayerCount: 2
Fore
SplineSet
215 1638 m 0
 222 1638 228 1632 228 1625 c 1
 228 1625 228 1625 228 1625 c 1
 228 1123 l 1
 239 1123 l 1
 239 1625 l 1
 239 1625 239 1625 239 1625 c 1
 239 1632 245 1638 251 1638 c 2
 252 1638 l 2
 258 1638 264 1632 264 1625 c 1
 264 1625 264 1625 264 1625 c 1
 264 1123 l 1
 552 1123 l 1
 553 1123 l 1
 553 1123 l 1
 560 1123 565 1118 565 1111 c 0
 565 1104 560 1098 553 1098 c 1
 553 1098 l 1
 552 1098 l 1
 264 1098 l 1
 264 224 l 2
 264 182 271 155 286 138 c 0
 301 121 327 112 371 112 c 2
 580 112 l 2
 580 113 580 113 580 113 c 1
 587 113 593 107 593 100 c 0
 593 93 587 87 580 87 c 1
 580 87 580 87 580 88 c 2
 371 88 l 2
 324 88 289 98 268 121 c 0
 246 145 239 180 239 224 c 2
 239 1098 l 1
 228 1098 l 1
 228 278 l 2
 228 211 233 156 252 119 c 0
 270 83 300 62 361 62 c 2
 580 62 l 2
 580 63 580 63 580 63 c 1
 587 63 593 57 593 50 c 0
 593 43 587 37 580 37 c 1
 580 37 580 37 580 38 c 2
 361 38 l 2
 294 38 252 64 229 108 c 0
 207 152 203 210 203 278 c 2
 203 1098 l 1
 25 1098 l 1
 24 1098 l 2
 18 1098 12 1104 12 1111 c 0
 12 1118 18 1123 24 1123 c 2
 25 1123 l 1
 203 1123 l 1
 203 1625 l 1
 203 1625 203 1625 203 1625 c 1
 203 1632 208 1638 215 1638 c 0
EndSplineSet
Validated: 5
EndChar

StartChar: u
Encoding: 117 117 88
Width: 1024
Flags: MW
HStem: 18 25 52 25 1155 20G<215.5 222.5 255 258.5 255 255 770 773.5 770 770 808 811.5 808 808>
VStem: 206 25<300 1163> 243 25<365 1163> 758 25<330 1163 330 1163 330 1166.5 330 1163> 795 25<-3.5 0 -3.5 0 190 203 203 301 301 301 361 1012 1012 1163>
LayerCount: 2
Fore
SplineSet
219 1175 m 0
 226 1175 231 1170 231 1163 c 1
 231 1163 231 1163 231 1163 c 1
 231 300 l 2
 231 262 236 197 265 142 c 0
 294 87 344 42 444 42 c 0
 476 42 507 50 537 63 c 1
 514 56 489 52 463 52 c 0
 361 52 303 100 274 163 c 0
 245 226 243 302 243 365 c 2
 243 1163 l 1
 243 1163 243 1163 243 1163 c 1
 243 1170 248 1175 255 1175 c 1
 255 1175 l 1
 262 1175 268 1170 268 1163 c 1
 268 1163 268 1163 268 1163 c 1
 268 365 l 2
 268 303 271 229 297 173 c 0
 322 117 368 78 463 78 c 0
 647 78 757 285 757 285 c 2
 757 286 757 286 758 286 c 2
 758 1163 l 1
 758 1163 758 1163 758 1163 c 1
 758 1170 763 1175 770 1175 c 1
 770 1175 l 1
 777 1175 783 1170 783 1163 c 1
 783 1163 783 1163 783 1163 c 1
 783 330 l 1
 789 342 793 351 795 356 c 2
 795 1012 l 1
 795 1163 l 1
 795 1163 795 1163 795 1163 c 1
 795 1170 801 1175 808 1175 c 1
 808 1175 l 1
 815 1175 820 1170 820 1163 c 1
 820 1163 820 1163 820 1163 c 1
 820 1012 l 1
 820 361 l 2
 821 360 821 358 821 356 c 0
 821 355 821 352 820 351 c 2
 820 203 l 1
 820 0 l 1
 820 0 820 0 820 0 c 1
 820 -7 815 -13 808 -13 c 0
 801 -13 795 -7 795 0 c 1
 795 0 795 0 795 0 c 1
 795 0 795 5 794 11 c 0
 794 17 793 26 791 36 c 0
 789 55 785 81 781 110 c 0
 775 154 768 203 763 245 c 1
 750 226 736 206 720 185 c 0
 656 102 562 18 444 18 c 0
 336 18 275 69 243 130 c 0
 211 191 206 260 206 300 c 2
 206 1163 l 1
 206 1163 206 1163 206 1163 c 1
 206 1170 212 1175 219 1175 c 0
795 301 m 2
 792 294 788 287 783 279 c 1
 787 253 791 222 795 190 c 1
 795 203 l 1
 795 301 l 2
EndSplineSet
Validated: 5
EndChar

StartChar: v
Encoding: 118 118 89
Width: 976
Flags: MW
HStem: 38 25
VStem: 134 1<1162.5 1166 1162.5 1166 1162.5 1165> 158 25<1162 1165 1162 1168.5> 790 25<1163 1165 1163 1168.5>
LayerCount: 2
Fore
SplineSet
122 1178 m 0
 128 1178 134 1173 134 1166 c 2
 134 1166 134 1165 134 1165 c 1
 134 1165 134 1165 134 1165 c 1
 134 1166 134 1166 134 1166 c 1
 134 1166 135 1165 135 1164 c 0
 135 1161 136 1158 137 1154 c 0
 140 1145 143 1132 148 1117 c 0
 157 1085 170 1041 185 989 c 0
 216 884 257 745 298 606 c 0
 339 466 379 332 409 230 c 1
 381 331 345 462 309 594 c 0
 271 732 234 870 205 976 c 0
 191 1029 179 1074 171 1106 c 0
 167 1122 164 1136 161 1145 c 0
 160 1150 159 1154 159 1157 c 0
 158 1160 158 1161 158 1165 c 1
 158 1165 158 1165 158 1165 c 1
 158 1172 163 1178 170 1178 c 1
 170 1178 l 1
 177 1178 183 1172 183 1165 c 1
 183 1165 183 1165 183 1165 c 1
 183 1167 183 1164 183 1162 c 0
 184 1159 185 1156 186 1151 c 0
 188 1142 191 1129 195 1112 c 0
 203 1080 215 1035 229 983 c 0
 258 877 295 738 333 601 c 0
 406 333 478 77 481 62 c 1
 491 62 l 1
 495 77 566 334 639 603 c 0
 677 741 715 879 743 985 c 0
 757 1038 769 1082 777 1114 c 0
 781 1130 785 1143 787 1152 c 0
 788 1156 789 1160 789 1163 c 0
 790 1165 790 1168 790 1165 c 1
 790 1165 790 1165 790 1165 c 1
 790 1172 795 1178 802 1178 c 0
 809 1178 815 1172 815 1165 c 1
 815 1165 815 1165 815 1165 c 1
 815 1161 814 1160 814 1157 c 0
 813 1154 812 1151 811 1146 c 0
 809 1137 806 1124 801 1108 c 0
 793 1076 781 1031 767 979 c 0
 739 873 701 734 664 596 c 0
 626 459 589 323 560 220 c 1
 591 323 631 458 675 606 c 0
 716 745 757 884 788 989 c 0
 803 1041 816 1085 825 1117 c 0
 829 1132 833 1145 835 1154 c 0
 836 1158 837 1161 838 1164 c 0
 838 1165 838 1166 838 1166 c 1
 838 1166 838 1166 838 1166 c 1
 839 1172 844 1178 851 1178 c 0
 858 1178 863 1172 863 1165 c 1
 863 1165 l 1
 863 1162 863 1162 863 1161 c 0
 863 1160 862 1159 862 1158 c 0
 861 1155 860 1151 859 1147 c 0
 857 1138 853 1126 849 1110 c 0
 840 1078 827 1034 812 982 c 0
 781 877 740 738 699 599 c 0
 617 322 535 46 535 46 c 2
 533 42 528 38 523 38 c 2
 501 38 l 1
 472 38 l 1
 450 38 l 2
 444 38 439 42 438 46 c 2
 438 46 356 322 274 599 c 0
 233 738 192 877 161 982 c 0
 146 1034 133 1078 124 1110 c 0
 119 1126 116 1138 113 1147 c 0
 112 1151 111 1155 111 1158 c 0
 110 1159 110 1160 110 1161 c 0
 110 1162 109 1162 109 1165 c 1
 109 1165 109 1165 109 1165 c 1
 109 1172 115 1178 122 1178 c 0
134 1166 m 1
 134 1166 134 1166 134 1166 c 1
 134 1166 134 1166 134 1166 c 1
 134 1167 134 1167 134 1166 c 1
EndSplineSet
Validated: 5
EndChar

StartChar: w
Encoding: 119 119 90
Width: 1328
Flags: MW
HStem: 38 25 1102 25
VStem: 109 25<1165 1165 1165 1165.5 1165 1168.5> 158 25<1159.5 1162.5 1162.5 1165 1159.5 1168.5 1159.5 1165> 1152 25<1163.5 1165 1163.5 1168.5> 1200 25<1162.5 1165 1162.5 1168.5>
LayerCount: 2
Fore
SplineSet
122 1178 m 0
 129 1178 134 1172 134 1165 c 1
 134 1165 134 1165 134 1165 c 1
 134 1166 134 1164 135 1161 c 0
 135 1159 136 1155 136 1150 c 0
 138 1141 140 1128 143 1112 c 0
 149 1080 157 1035 167 982 c 0
 187 877 214 738 241 600 c 0
 257 516 273 437 287 362 c 1
 275 436 262 514 249 595 c 0
 226 733 203 872 186 977 c 0
 178 1030 171 1075 166 1107 c 0
 163 1124 161 1137 160 1146 c 0
 159 1151 159 1155 158 1158 c 0
 158 1161 158 1162 158 1165 c 1
 158 1165 158 1165 158 1165 c 1
 158 1172 163 1178 170 1178 c 1
 170 1178 l 1
 177 1178 183 1172 183 1165 c 1
 183 1165 183 1165 183 1165 c 1
 183 1166 183 1164 183 1161 c 0
 183 1158 184 1154 185 1150 c 0
 186 1140 188 1127 190 1111 c 0
 195 1079 202 1034 211 981 c 0
 228 876 251 737 273 599 c 0
 318 329 361 73 362 62 c 1
 438 62 l 1
 582 1117 l 2
 583 1123 588 1127 594 1128 c 2
 633 1128 l 1
 701 1128 l 1
 740 1128 l 2
 746 1127 752 1123 753 1117 c 2
 897 62 l 1
 974 62 l 1
 976 73 1018 329 1062 599 c 0
 1085 737 1107 876 1124 981 c 0
 1132 1034 1139 1079 1144 1111 c 0
 1147 1127 1149 1140 1150 1150 c 0
 1151 1154 1151 1158 1151 1161 c 0
 1152 1164 1152 1166 1152 1165 c 1
 1152 1165 l 1
 1152 1172 1157 1178 1164 1178 c 0
 1171 1178 1177 1172 1177 1165 c 1
 1177 1165 l 1
 1177 1162 1177 1161 1176 1158 c 0
 1176 1155 1175 1151 1175 1146 c 0
 1173 1137 1171 1124 1169 1107 c 0
 1164 1075 1157 1030 1149 977 c 0
 1132 872 1109 733 1087 595 c 0
 1076 527 1065 460 1054 397 c 1
 1067 460 1080 528 1094 598 c 0
 1120 735 1147 873 1167 979 c 0
 1177 1032 1185 1077 1191 1110 c 0
 1194 1126 1196 1139 1198 1149 c 0
 1200 1159 1200 1166 1200 1165 c 1
 1200 1165 l 1
 1200 1172 1206 1178 1213 1178 c 0
 1220 1178 1225 1172 1225 1165 c 1
 1225 1165 l 1
 1225 1160 1224 1155 1223 1145 c 0
 1221 1135 1219 1122 1216 1106 c 0
 1210 1073 1202 1028 1192 975 c 0
 1172 869 1145 730 1118 593 c 0
 1065 318 1011 48 1011 48 c 2
 1010 42 1005 38 999 38 c 2
 985 38 l 1
 886 38 l 1
 872 38 l 2
 866 38 860 42 859 48 c 2
 691 1102 l 1
 644 1102 l 1
 475 48 l 2
 474 42 469 38 463 38 c 2
 449 38 l 1
 352 38 l 1
 336 38 l 2
 330 38 324 42 323 48 c 2
 323 48 270 320 216 595 c 0
 190 733 163 872 143 978 c 0
 133 1030 124 1075 119 1107 c 0
 116 1124 113 1137 112 1146 c 0
 111 1151 110 1155 110 1158 c 0
 110 1161 109 1162 109 1165 c 1
 109 1165 109 1165 109 1165 c 1
 109 1172 115 1178 122 1178 c 0
605 1102 m 1
 526 522 l 1
 619 1102 l 1
 605 1102 l 1
716 1102 m 1
 808 524 l 1
 729 1102 l 1
 716 1102 l 1
EndSplineSet
Validated: 5
EndChar

StartChar: x
Encoding: 120 120 91
Width: 944
Flags: W
VStem: 149 26<0 0 1165 1165> 174 1<1167 1167> 202 25<1163 1165 1163 1168.5> 224 1 727 25<1162 1165 1162 1168.5> 729 1 779 1<1166 1166> 779 26<-0.5 0>
LayerCount: 2
Fore
SplineSet
162 1178 m 0x80
 167 1178 173 1173 174 1168 c 2
 174 1168 174 1167 175 1166 c 0
 176 1164 178 1160 180 1156 c 0
 185 1147 191 1134 200 1118 c 0
 217 1085 242 1040 271 986 c 0
 283 965 295 942 308 919 c 1
 300 936 292 953 285 968 c 0
 260 1023 240 1069 225 1103 c 0
 218 1119 212 1133 208 1143 c 0
 206 1148 205 1152 204 1155 c 0
 203 1159 202 1159 202 1165 c 1
 202 1165 202 1165 202 1165 c 1
 202 1172 207 1178 214 1178 c 1
 214 1178 l 1
 221 1178 227 1172 227 1165 c 1
 227 1165 227 1165 227 1165 c 1
 227 1169 227 1166 227 1163 c 0
 228 1161 230 1157 232 1152 c 0
 235 1143 241 1129 248 1113 c 0
 263 1079 283 1033 308 979 c 0
 354 876 415 744 477 610 c 1
 539 744 600 876 646 979 c 0
 671 1033 691 1079 706 1113 c 0
 713 1129 718 1143 722 1152 c 0
 724 1157 726 1161 726 1163 c 0
 727 1166 727 1169 727 1165 c 1
 727 1165 727 1165 727 1165 c 1
 727 1172 733 1178 740 1178 c 1
 740 1178 l 1
 747 1178 752 1172 752 1165 c 1
 752 1165 752 1165 752 1165 c 1
 752 1159 751 1159 750 1155 c 0
 749 1152 747 1148 746 1143 c 0
 742 1133 736 1119 729 1103 c 0
 714 1069 693 1023 669 968 c 0
 662 953 654 936 646 919 c 1
 659 942 671 965 683 986 c 0
 712 1040 737 1085 754 1118 c 0
 763 1134 769 1147 774 1156 c 0
 776 1160 778 1164 779 1166 c 0
 780 1167 780 1168 780 1168 c 2
 781 1173 787 1178 792 1178 c 1
 792 1178 l 1
 799 1178 805 1172 805 1165 c 1xa9
 805 1165 805 1165 805 1165 c 1
 805 1162 804 1161 804 1161 c 2
 804 1160 804 1159 803 1159 c 1
 803 1158 802 1157 802 1155 c 0
 800 1152 799 1149 796 1144 c 0
 792 1135 785 1122 776 1106 c 0
 759 1074 734 1028 705 974 c 0
 648 870 574 735 499 598 c 0
 497 593 494 588 492 583 c 1
 569 441 647 300 705 193 c 0
 734 139 759 93 776 60 c 0
 785 44 792 31 796 21 c 0
 799 17 800 13 802 10 c 0
 802 8 803 7 803 6 c 0
 804 5 805 5 805 0 c 1
 805 0 l 1
 805 -7 799 -13 792 -13 c 0
 787 -13 781 -8 780 -3 c 1
 780 -3 780 -3 780 -3 c 1
 780 -3 780 -3 780 -3 c 1
 780 -2 780 -2 780 -2 c 1
 780 -2 780 -2 780 -2 c 1
 780 -2 779 -1 779 0 c 0
 778 2 776 6 774 10 c 0
 769 19 763 32 754 48 c 0
 737 81 712 127 683 181 c 0
 667 211 649 243 631 277 c 1
 645 246 658 217 671 189 c 0
 696 135 716 90 731 58 c 0
 738 42 744 29 748 20 c 0
 750 15 751 12 752 9 c 0
 753 8 753 7 754 5 c 0
 754 4 755 5 755 0 c 1
 755 0 755 0 755 0 c 1
 755 -7 749 -13 742 -13 c 0
 736 -13 731 -8 730 -3 c 1
 730 -3 730 -3 730 -3 c 1
 730 -3 730 -2 730 -2 c 1
 730 -2 730 -2 730 -2 c 1
 730 -2 730 -2 730 -2 c 1
 730 -2 729 -1 729 0 c 0
 728 2 727 6 725 10 c 0
 721 19 715 32 708 48 c 0
 694 80 673 125 648 179 c 0
 601 281 539 415 477 550 c 1
 415 415 353 281 306 179 c 0
 281 125 260 80 246 48 c 0
 239 32 233 19 229 10 c 0
 227 6 226 2 225 0 c 0
 225 -1 224 -2 224 -2 c 1
 224 -2 224 -2 224 -2 c 1
 224 -2 224 -2 224 -2 c 1
 224 -2 224 -3 224 -3 c 1
 224 -3 224 -3 224 -3 c 1
 223 -8 218 -13 212 -13 c 0
 205 -13 199 -7 199 0 c 1
 199 0 l 1
 199 5 200 4 200 5 c 0
 201 7 201 8 202 9 c 0
 203 12 204 15 206 20 c 0
 210 29 216 42 223 58 c 0
 238 90 258 135 283 189 c 0
 296 217 309 246 323 277 c 1
 305 243 287 211 271 181 c 0
 242 127 217 81 200 48 c 0
 191 32 185 19 180 10 c 0
 178 6 176 2 175 0 c 0
 174 -1 174 -2 174 -2 c 1x56
 174 -2 174 -2 174 -2 c 1
 174 -2 174 -2 174 -3 c 1
 174 -3 174 -3 174 -3 c 1
 174 -3 174 -3 174 -3 c 1
 173 -8 167 -13 162 -13 c 0
 155 -13 149 -7 149 0 c 1
 149 0 149 0 149 0 c 1
 149 5 150 5 151 6 c 0
 151 7 152 8 152 10 c 0
 153 13 155 17 158 21 c 0
 162 31 169 44 178 60 c 0
 195 93 220 139 249 193 c 0
 307 300 385 441 462 583 c 1
 460 588 457 593 455 598 c 0
 380 735 306 870 249 974 c 0
 220 1028 195 1074 178 1106 c 0
 169 1122 162 1135 158 1144 c 0
 155 1149 154 1152 152 1155 c 0
 152 1157 151 1158 151 1159 c 1
 150 1159 150 1160 150 1161 c 2
 150 1161 149 1162 149 1165 c 1
 149 1165 149 1165 149 1165 c 1
 149 1172 155 1178 162 1178 c 0x80
174 1168 m 1
 174 1168 174 1167 174 1167 c 1
 174 1167 174 1168 174 1168 c 1
780 1168 m 1
 780 1168 780 1167 780 1167 c 2
 780 1168 780 1168 780 1168 c 1
EndSplineSet
Validated: 5
EndChar

StartChar: y
Encoding: 121 121 92
Width: 976
Flags: MW
HStem: -287 21G<277 277 277 277 277 277 277 277>
VStem: 121 25<1165 1165 1165 1165.5 1164.5 1168.5>
LayerCount: 2
Fore
SplineSet
133 1178 m 0
 140 1178 146 1172 146 1165 c 1
 146 1165 146 1165 146 1165 c 1
 146 1168 146 1166 146 1165 c 1
 146 1164 147 1162 148 1159 c 0
 150 1154 152 1147 156 1138 c 0
 163 1120 173 1095 186 1064 c 0
 211 1003 246 919 285 827 c 0
 295 803 305 778 316 753 c 1
 307 776 300 798 292 820 c 0
 259 913 230 996 208 1058 c 0
 198 1088 189 1113 183 1131 c 0
 180 1140 178 1147 176 1153 c 0
 176 1155 175 1157 175 1159 c 0
 174 1161 174 1160 174 1165 c 1
 174 1165 174 1165 174 1165 c 1
 174 1172 179 1178 186 1178 c 1
 186 1178 l 1
 193 1178 199 1172 199 1165 c 1
 199 1165 199 1165 199 1165 c 1
 199 1166 199 1167 199 1167 c 1
 199 1167 199 1166 199 1165 c 0
 199 1164 200 1162 200 1160 c 0
 202 1155 204 1148 207 1139 c 0
 213 1121 221 1096 232 1066 c 0
 253 1005 282 921 315 828 c 0
 376 657 449 455 503 307 c 1
 517 353 568 521 627 715 c 0
 660 827 694 939 719 1023 c 0
 731 1065 742 1101 749 1126 c 0
 753 1139 755 1149 757 1156 c 0
 758 1160 759 1162 760 1164 c 0
 760 1165 760 1166 760 1166 c 2
 761 1172 766 1178 772 1178 c 1
 772 1178 l 1
 779 1178 785 1172 785 1165 c 1
 785 1165 785 1165 785 1165 c 1
 785 1162 785 1162 785 1161 c 0
 784 1160 784 1159 784 1158 c 0
 783 1156 783 1153 782 1150 c 0
 780 1142 777 1132 773 1119 c 0
 766 1094 755 1058 743 1016 c 0
 717 931 684 820 651 708 c 0
 645 691 641 676 636 659 c 1
 672 760 706 856 734 936 c 0
 758 1004 777 1061 791 1101 c 0
 798 1122 804 1138 807 1149 c 0
 809 1155 811 1159 811 1163 c 0
 812 1164 812 1165 812 1166 c 1
 812 1166 812 1166 812 1166 c 1
 812 1166 812 1166 812 1165 c 1
 812 1165 812 1165 812 1165 c 1
 812 1172 818 1178 825 1178 c 1
 825 1178 l 1
 832 1178 837 1172 837 1165 c 1
 837 1165 837 1165 837 1165 c 1
 837 1162 837 1161 837 1160 c 0
 836 1159 836 1157 835 1156 c 0
 834 1152 833 1147 831 1142 c 0
 827 1130 822 1114 815 1093 c 0
 801 1053 781 996 757 928 c 0
 710 793 646 614 583 435 c 0
 519 257 456 78 408 -57 c 0
 385 -125 365 -181 351 -222 c 0
 344 -242 339 -258 335 -269 c 0
 333 -275 332 -280 331 -283 c 0
 330 -284 330 -285 330 -286 c 1
 330 -286 330 -286 330 -286 c 1
 330 -286 330 -286 330 -285 c 1
 330 -285 330 -285 330 -285 c 1
 330 -292 324 -298 317 -298 c 0
 310 -298 305 -292 305 -285 c 1
 305 -285 305 -285 305 -285 c 1
 305 -281 305 -281 306 -280 c 0
 306 -279 306 -277 307 -276 c 0
 308 -272 309 -267 311 -262 c 0
 315 -250 320 -234 327 -214 c 0
 341 -173 361 -116 385 -49 c 0
 392 -28 400 -5 408 17 c 1
 404 8 400 -1 396 -10 c 0
 366 -79 336 -147 314 -200 c 0
 302 -226 293 -248 287 -263 c 0
 283 -271 281 -277 279 -282 c 0
 278 -284 278 -286 277 -287 c 1
 277 -287 277 -287 277 -287 c 1
 277 -287 277 -287 277 -287 c 1
 277 -287 277 -287 277 -287 c 1
 277 -287 277 -288 277 -288 c 1
 277 -288 277 -288 277 -288 c 1
 276 -293 270 -298 265 -298 c 0
 258 -298 252 -292 252 -285 c 1
 252 -285 l 1
 252 -281 253 -282 253 -281 c 0
 253 -280 253 -279 254 -278 c 0
 254 -277 255 -275 256 -273 c 0
 258 -268 260 -262 263 -254 c 0
 270 -238 279 -216 291 -190 c 0
 313 -137 343 -69 373 0 c 0
 432 133 488 261 491 268 c 1
 430 418 338 634 261 817 c 0
 223 909 188 993 162 1055 c 0
 150 1085 140 1111 133 1129 c 0
 129 1138 126 1146 124 1151 c 0
 123 1154 123 1156 122 1158 c 0
 121 1160 121 1161 121 1165 c 1
 121 1165 121 1165 121 1165 c 1
 121 1172 126 1178 133 1178 c 0
199 1167 m 1
 199 1167 199 1167 199 1167 c 1
812 1166 m 1
 813 1167 812 1167 812 1166 c 1
330 -286 m 1
 330 -287 330 -287 330 -286 c 1
EndSplineSet
Validated: 5
EndChar

StartChar: z
Encoding: 122 122 93
Width: 936
Flags: W
HStem: 37 25<139 849.5> 67 25<189 849.5> 1082 45 1102 25
VStem: 114 25<62 121 62 125 62 126> 164 25<92 141 92 145 92 146> 733 25<1034 1082 1082 1082> 784 25<1044 1102 1102 1102>
LayerCount: 2
Fore
SplineSet
77 1128 m 1xdf
 796 1128 l 2xdf
 803 1127 809 1122 809 1115 c 2
 809 1040 l 2
 809 1038 808 1034 806 1033 c 2
 441 533 l 1
 189 141 l 1
 189 92 l 1
 846 92 l 2
 846 93 846 93 846 93 c 1
 853 93 858 87 858 80 c 0
 858 73 853 67 846 67 c 1
 846 67 846 67 846 68 c 2
 176 68 l 2
 169 68 164 73 164 80 c 2
 164 145 l 2
 164 147 165 150 166 152 c 2
 194 196 l 1
 139 121 l 1
 139 62 l 1
 846 62 l 2
 846 63 846 63 846 63 c 1
 853 63 859 57 859 50 c 0
 859 43 853 37 846 37 c 1
 846 37 846 37 846 38 c 2
 127 38 l 2
 120 38 114 43 114 50 c 2
 114 125 l 2
 114 127 115 131 117 132 c 2
 420 547 l 1
 733 1034 l 1
 733 1082 l 1
 76 1082 l 1
 76 1082 l 1
 69 1082 64 1088 64 1095 c 0
 64 1099 66 1103 69 1105 c 1
 66 1107 64 1112 64 1115 c 0
 64 1122 70 1128 77 1128 c 1xef
 77 1128 l 1xdf
756 1102 m 2
 757 1101 758 1097 758 1095 c 2
 758 1030 l 2
 758 1028 757 1025 756 1023 c 2
 667 884 l 1
 784 1044 l 1
 784 1102 l 1
 756 1102 l 2
EndSplineSet
Validated: 5
EndChar

StartChar: braceleft
Encoding: 123 123 94
Width: 480
Flags: W
LayerCount: 2
Fore
SplineSet
32 704 m 1
 32 784 l 1
 117 795 152 859 136 976 c 1
 136 1384 l 2
 136 1576 237 1672 440 1672 c 1
 440 1568 l 1
 333 1568 280 1507 280 1384 c 2
 280 976 l 2
 280 864 240 787 160 744 c 1
 240 696 280 619 280 512 c 2
 280 64 l 2
 280 -59 333 -120 440 -120 c 1
 440 -216 l 1
 237 -216 136 -123 136 64 c 2
 136 512 l 1
 147 624 112 688 32 704 c 1
EndSplineSet
Validated: 33
EndChar

StartChar: bar
Encoding: 124 124 95
Width: 480
Flags: W
LayerCount: 2
Fore
SplineSet
168 -176 m 1
 168 1664 l 1
 312 1664 l 1
 312 -176 l 1
 168 -176 l 1
EndSplineSet
Validated: 1
EndChar

StartChar: braceright
Encoding: 125 125 96
Width: 480
Flags: W
LayerCount: 2
Fore
SplineSet
40 -112 m 1
 147 -112 200 -51 200 72 c 2
 200 480 l 2
 200 592 243 669 328 712 c 1
 243 760 200 837 200 944 c 2
 200 1392 l 2
 200 1515 147 1576 40 1576 c 1
 40 1672 l 1
 248 1672 352 1579 352 1392 c 2
 352 944 l 1
 336 832 368 768 448 752 c 1
 448 672 l 1
 368 661 336 597 352 480 c 1
 352 72 l 2
 352 -120 248 -216 40 -216 c 1
 40 -112 l 1
EndSplineSet
Validated: 33
EndChar

StartChar: asciitilde
Encoding: 126 126 97
Width: 848
Flags: W
LayerCount: 2
Fore
SplineSet
80 1408 m 1
 155 1568 264 1603 408 1512 c 1
 499 1437 576 1448 640 1544 c 1
 736 1440 l 1
 661 1296 547 1267 392 1352 c 1
 301 1416 229 1405 176 1320 c 1
 80 1408 l 1
EndSplineSet
Validated: 33
EndChar

StartChar: exclamdown
Encoding: 161 161 99
Width: 448
Flags: W
LayerCount: 2
Fore
SplineSet
136 -152 m 1
 160 1096 l 1
 288 1096 l 1
 312 -152 l 1
 136 -152 l 1
152 1360 m 1
 152 1624 l 1
 304 1624 l 1
 304 1360 l 1
 152 1360 l 1
EndSplineSet
Validated: 1
EndChar

StartChar: cent
Encoding: 162 162 100
Width: 1024
Flags: W
LayerCount: 2
Fore
SplineSet
104 816 m 0
 104 987 143 1119 220 1212 c 0
 297 1305 392 1352 504 1352 c 0
 536 1352 565 1349 592 1344 c 1
 624 1496 l 1
 696 1480 l 1
 656 1328 l 1
 736 1301 797 1257 840 1196 c 0
 883 1135 909 1056 920 960 c 1
 760 960 l 1
 749 1019 733 1068 712 1108 c 0
 691 1148 661 1173 624 1184 c 1
 448 432 l 1
 475 427 499 424 520 424 c 0
 579 424 631 441 676 476 c 0
 721 511 749 560 760 624 c 1
 912 624 l 1
 901 528 860 447 788 380 c 0
 716 313 627 280 520 280 c 0
 483 280 448 283 416 288 c 1
 360 40 l 1
 288 56 l 1
 352 320 l 1
 283 347 224 403 176 488 c 0
 128 573 104 683 104 816 c 0
248 808 m 0
 248 723 259 653 280 600 c 0
 301 547 336 504 384 472 c 1
 560 1200 l 1
 504 1200 l 2
 435 1200 375 1169 324 1108 c 0
 273 1047 248 947 248 808 c 0
EndSplineSet
Validated: 1
EndChar

StartChar: sterling
Encoding: 163 163 101
Width: 1368
Flags: W
LayerCount: 2
Fore
SplineSet
72 216 m 0
 72 307 99 368 152 400 c 0
 205 432 267 448 336 448 c 0
 421 448 515 413 616 344 c 1
 621 365 624 387 624 408 c 0
 624 536 592 659 528 776 c 1
 208 776 l 1
 208 896 l 1
 472 896 l 1
 435 971 416 1051 416 1136 c 0
 416 1264 447 1365 508 1440 c 0
 569 1515 661 1552 784 1552 c 0
 901 1552 993 1521 1060 1460 c 0
 1127 1399 1160 1328 1160 1248 c 1
 960 1248 l 1
 960 1285 947 1321 920 1356 c 0
 893 1391 848 1408 784 1408 c 0
 720 1408 673 1381 644 1328 c 0
 615 1275 600 1211 600 1136 c 0
 600 1061 621 981 664 896 c 1
 1064 896 l 1
 1064 776 l 1
 736 776 l 1
 800 643 832 523 832 416 c 0
 832 357 816 296 784 232 c 1
 848 184 901 160 944 160 c 0
 997 160 1041 179 1076 216 c 0
 1111 253 1128 344 1128 488 c 1
 1296 440 l 1
 1296 259 1265 140 1204 84 c 0
 1143 28 1061 0 960 0 c 0
 880 0 789 32 688 96 c 1
 624 32 515 0 360 0 c 0
 285 0 219 19 160 56 c 0
 101 93 72 147 72 216 c 0
240 216 m 0
 240 163 280 133 360 128 c 1
 440 128 504 157 552 216 c 1
 477 275 405 304 336 304 c 0
 272 304 240 275 240 216 c 0
EndSplineSet
Validated: 1
EndChar

StartChar: currency
Encoding: 164 164 102
Width: 1048
Flags: W
LayerCount: 2
Fore
SplineSet
120 64 m 1
 256 328 l 1
 213 435 189 571 184 736 c 1
 184 880 208 1016 256 1144 c 1
 120 1400 l 1
 192 1536 l 1
 328 1272 l 1
 387 1357 453 1400 528 1400 c 0
 608 1400 677 1355 736 1264 c 1
 872 1528 l 1
 944 1408 l 1
 808 1136 l 1
 851 1019 869 885 864 736 c 1
 864 587 843 453 800 336 c 1
 944 56 l 1
 880 -64 l 1
 736 208 l 1
 677 123 608 80 528 80 c 0
 453 80 384 120 320 200 c 1
 192 -64 l 1
 120 64 l 1
280 736 m 0
 280 571 304 448 352 368 c 0
 400 288 459 248 528 248 c 0
 613 248 676 300 716 404 c 0
 756 508 776 619 776 736 c 0
 776 880 753 996 708 1084 c 0
 663 1172 603 1216 528 1216 c 0
 448 1216 387 1169 344 1076 c 0
 301 983 280 869 280 736 c 0
EndSplineSet
Validated: 33
EndChar

StartChar: yen
Encoding: 165 165 103
Width: 1208
Flags: W
LayerCount: 2
Fore
SplineSet
104 1552 m 1
 296 1552 l 1
 608 976 l 1
 920 1552 l 1
 1104 1552 l 1
 736 864 l 1
 1080 864 l 1
 1080 736 l 1
 696 736 l 1
 696 448 l 1
 1080 448 l 1
 1080 320 l 1
 696 320 l 1
 696 0 l 1
 520 0 l 1
 520 320 l 1
 128 320 l 1
 128 448 l 1
 520 448 l 1
 520 736 l 1
 128 736 l 1
 128 864 l 1
 480 864 l 1
 104 1552 l 1
EndSplineSet
Validated: 1
EndChar

StartChar: brokenbar
Encoding: 166 166 104
Width: 464
Flags: W
LayerCount: 2
Fore
SplineSet
192 -152 m 1
 192 1624 l 1
 272 1624 l 1
 272 -152 l 1
 192 -152 l 1
EndSplineSet
Validated: 1
EndChar

StartChar: section
Encoding: 167 167 105
Width: 2048
Flags: W
LayerCount: 2
Fore
SplineSet
328 232 m 1
 544 232 l 1
 565 67 728 -16 1032 -16 c 0
 1341 -16 1496 45 1496 168 c 0
 1496 227 1440 276 1328 316 c 0
 1216 356 1072 397 896 440 c 0
 672 493 521 544 444 592 c 0
 367 640 328 707 328 792 c 0
 328 872 424 952 616 1032 c 1
 472 1101 400 1187 400 1288 c 0
 400 1395 452 1477 556 1536 c 0
 660 1595 819 1624 1032 1624 c 0
 1459 1624 1685 1496 1712 1240 c 1
 1512 1240 l 1
 1507 1400 1347 1480 1032 1480 c 0
 755 1480 616 1416 616 1288 c 0
 616 1219 669 1165 776 1128 c 0
 883 1091 997 1059 1120 1032 c 1
 1328 973 1479 919 1572 868 c 0
 1665 817 1712 752 1712 672 c 0
 1712 576 1624 496 1448 432 c 1
 1619 368 1704 280 1704 168 c 0
 1704 72 1640 -5 1512 -64 c 0
 1384 -123 1224 -152 1032 -152 c 0
 600 -152 365 -24 328 232 c 1
536 792 m 0
 536 717 691 643 1000 568 c 2
 1256 504 l 1
 1416 547 1496 605 1496 680 c 0
 1496 755 1360 827 1088 896 c 2
 816 968 l 1
 629 915 536 856 536 792 c 0
EndSplineSet
Validated: 1
EndChar

StartChar: dieresis
Encoding: 168 168 106
Width: 1024
Flags: W
LayerCount: 2
Fore
SplineSet
144 1312 m 1
 144 1552 l 1
 392 1552 l 1
 392 1312 l 1
 144 1312 l 1
640 1312 m 1
 640 1552 l 1
 888 1552 l 1
 888 1312 l 1
 640 1312 l 1
EndSplineSet
Validated: 1
EndChar

StartChar: copyright
Encoding: 169 169 107
Width: 1368
Flags: W
LayerCount: 2
Fore
SplineSet
120 736 m 0
 120 928 177 1081 292 1196 c 0
 407 1311 536 1368 680 1368 c 0
 845 1368 980 1311 1084 1196 c 0
 1188 1081 1240 928 1240 736 c 0
 1240 560 1188 411 1084 288 c 0
 980 165 845 104 680 104 c 0
 515 104 380 165 276 288 c 0
 172 411 120 560 120 736 c 0
208 736 m 1
 213 576 260 447 348 348 c 0
 436 249 547 200 680 200 c 0
 813 200 927 251 1020 352 c 0
 1113 453 1160 581 1160 736 c 0
 1160 891 1113 1019 1020 1120 c 0
 927 1221 813 1272 680 1272 c 0
 547 1272 435 1220 344 1116 c 0
 253 1012 208 885 208 736 c 1
384 728 m 0
 384 813 413 889 472 956 c 0
 531 1023 600 1056 680 1056 c 0
 749 1056 808 1035 856 992 c 0
 904 949 936 888 952 808 c 1
 848 808 l 1
 837 861 819 900 792 924 c 0
 765 948 728 960 680 960 c 0
 632 960 588 940 548 900 c 0
 508 860 488 803 488 728 c 0
 488 653 507 595 544 552 c 0
 581 509 627 488 680 488 c 0
 728 488 767 503 796 532 c 0
 825 561 845 603 856 656 c 1
 960 656 l 1
 955 581 927 520 876 472 c 0
 825 424 760 400 680 400 c 0
 600 400 531 432 472 496 c 0
 413 560 384 637 384 728 c 0
EndSplineSet
Validated: 1
EndChar

StartChar: ordfeminine
Encoding: 170 170 108
Width: 728
Flags: W
LayerCount: 2
Fore
SplineSet
216 1200 m 0
 216 1275 240 1329 288 1364 c 0
 336 1399 392 1419 456 1424 c 1
 456 1464 l 2
 456 1485 449 1507 436 1528 c 0
 423 1549 403 1560 376 1560 c 0
 349 1560 329 1551 316 1532 c 0
 303 1513 296 1491 296 1464 c 1
 232 1464 l 1
 232 1512 243 1551 264 1580 c 0
 285 1609 312 1624 344 1624 c 2
 400 1624 l 2
 437 1624 468 1607 492 1572 c 0
 516 1537 528 1491 528 1432 c 2
 528 1176 l 1
 544 1056 l 1
 472 1056 l 1
 464 1120 l 1
 448 1099 432 1083 416 1072 c 0
 400 1061 376 1056 344 1056 c 0
 301 1056 269 1069 248 1096 c 0
 227 1123 216 1157 216 1200 c 0
288 1208 m 0
 288 1181 293 1161 304 1148 c 0
 315 1135 328 1128 344 1128 c 0
 371 1128 392 1133 408 1144 c 0
 424 1155 440 1179 456 1216 c 1
 456 1352 l 1
 403 1347 361 1333 332 1312 c 0
 303 1291 288 1256 288 1208 c 0
EndSplineSet
Validated: 1
EndChar

StartChar: guillemotleft
Encoding: 171 171 109
Width: 1368
Flags: W
LayerCount: 2
Fore
SplineSet
112 736 m 1
 856 1392 l 1
 928 1328 l 1
 256 736 l 1
 928 144 l 1
 856 72 l 1
 112 736 l 1
432 736 m 1
 1184 1392 l 1
 1256 1328 l 1
 584 736 l 1
 1256 144 l 1
 1184 72 l 1
 432 736 l 1
EndSplineSet
Validated: 1
EndChar

StartChar: logicalnot
Encoding: 172 172 110
Width: 1312
Flags: W
LayerCount: 2
Fore
SplineSet
112 896 m 1
 112 1024 l 1
 1152 1024 l 1
 1152 520 l 1
 1000 520 l 1
 1000 896 l 1
 112 896 l 1
EndSplineSet
Validated: 1
EndChar

StartChar: uni00AD
Encoding: 173 173 111
Width: 1032
Flags: W
LayerCount: 2
Fore
SplineSet
64 672 m 1
 64 808 l 1
 960 808 l 1
 960 672 l 1
 64 672 l 1
EndSplineSet
Validated: 1
EndChar

StartChar: registered
Encoding: 174 174 112
Width: 1368
Flags: W
LayerCount: 2
Fore
SplineSet
120 736 m 0
 120 928 177 1081 292 1196 c 0
 407 1311 536 1368 680 1368 c 0
 845 1368 980 1311 1084 1196 c 0
 1188 1081 1240 928 1240 736 c 0
 1240 560 1188 411 1084 288 c 0
 980 165 845 104 680 104 c 0
 515 104 380 165 276 288 c 0
 172 411 120 560 120 736 c 0
208 736 m 1
 213 576 260 447 348 348 c 0
 436 249 547 200 680 200 c 0
 813 200 927 251 1020 352 c 0
 1113 453 1160 581 1160 736 c 0
 1160 891 1113 1019 1020 1120 c 0
 927 1221 813 1272 680 1272 c 0
 547 1272 435 1220 344 1116 c 0
 253 1012 208 885 208 736 c 1
480 376 m 1
 480 1104 l 1
 728 1104 l 2
 792 1104 841 1085 876 1048 c 0
 911 1011 928 968 928 920 c 0
 928 872 916 831 892 796 c 0
 868 761 824 741 760 736 c 1
 960 376 l 1
 864 376 l 1
 680 736 l 1
 552 736 l 1
 552 376 l 1
 480 376 l 1
552 800 m 1
 728 800 l 2
 760 800 787 809 808 828 c 0
 829 847 840 877 840 920 c 0
 840 957 829 985 808 1004 c 0
 787 1023 760 1032 728 1032 c 2
 552 1032 l 1
 552 800 l 1
EndSplineSet
Validated: 1
EndChar

StartChar: macron
Encoding: 175 175 113
Width: 1368
Flags: W
LayerCount: 2
Fore
SplineSet
0 1624 m 1
 0 1760 l 1
 1368 1760 l 1
 1368 1624 l 1
 0 1624 l 1
EndSplineSet
Validated: 1
EndChar

StartChar: degree
Encoding: 176 176 114
Width: 2048
Flags: W
LayerCount: 2
Fore
SplineSet
112 1304 m 0
 112 1411 143 1496 204 1560 c 0
 265 1624 349 1656 456 1656 c 0
 547 1656 627 1624 696 1560 c 0
 765 1496 800 1411 800 1304 c 0
 800 1192 767 1105 700 1044 c 0
 633 983 552 952 456 952 c 0
 360 952 279 983 212 1044 c 0
 145 1105 112 1192 112 1304 c 0
256 1304 m 0
 256 1240 275 1191 312 1156 c 0
 349 1121 397 1104 456 1104 c 0
 509 1104 555 1121 592 1156 c 0
 629 1191 648 1240 648 1304 c 0
 648 1357 631 1405 596 1448 c 0
 561 1491 515 1512 456 1512 c 0
 392 1512 343 1493 308 1456 c 0
 273 1419 256 1368 256 1304 c 0
EndSplineSet
Validated: 1
EndChar

StartChar: plusminus
Encoding: 177 177 115
Width: 2048
Flags: W
LayerCount: 2
Fore
SplineSet
320 -8 m 1
 1728 -8 l 1
 1728 -152 l 1
 320 -152 l 1
 320 -8 l 1
320 864 m 1
 320 1024 l 1
 952 1024 l 1
 952 1624 l 1
 1096 1624 l 1
 1096 1024 l 1
 1728 1024 l 1
 1728 864 l 1
 1096 864 l 1
 1096 256 l 1
 952 256 l 1
 952 864 l 1
 320 864 l 1
EndSplineSet
Validated: 1
EndChar

StartChar: uni00B2
Encoding: 178 178 116
Width: 488
Flags: W
LayerCount: 2
Fore
SplineSet
32 1032 m 1
 32 1120 l 1
 152 1344 l 2
 189 1408 208 1469 208 1528 c 0
 208 1571 201 1599 188 1612 c 0
 175 1625 157 1632 136 1632 c 0
 120 1632 105 1625 92 1612 c 0
 79 1599 72 1568 72 1520 c 1
 32 1520 l 1
 32 1579 43 1625 64 1660 c 0
 85 1695 109 1712 136 1712 c 0
 168 1712 195 1696 216 1664 c 0
 237 1632 248 1587 248 1528 c 0
 248 1459 232 1389 200 1320 c 1
 88 1112 l 1
 248 1112 l 1
 248 1032 l 1
 32 1032 l 1
EndSplineSet
Validated: 1
EndChar

StartChar: uni00B3
Encoding: 179 179 117
Width: 488
Flags: W
LayerCount: 2
Fore
SplineSet
32 1032 m 1
 32 1104 l 1
 120 1104 l 2
 168 1104 192 1149 192 1240 c 0
 192 1341 168 1392 120 1392 c 2
 64 1392 l 1
 64 1448 l 1
 176 1640 l 1
 32 1640 l 1
 32 1712 l 1
 248 1712 l 1
 248 1640 l 1
 144 1456 l 1
 213 1456 248 1384 248 1240 c 0
 248 1101 205 1032 120 1032 c 2
 32 1032 l 1
EndSplineSet
Validated: 1
EndChar

StartChar: acute
Encoding: 180 180 118
Width: 1024
Flags: W
LayerCount: 2
Fore
SplineSet
344 1304 m 1
 496 1552 l 1
 744 1552 l 1
 504 1304 l 1
 344 1304 l 1
EndSplineSet
Validated: 1
EndChar

StartChar: mu
Encoding: 181 181 119
Width: 1032
Flags: W
LayerCount: 2
Fore
SplineSet
152 -288 m 1
 152 960 l 1
 344 960 l 1
 344 272 l 1
 387 187 435 144 488 144 c 0
 557 144 624 192 688 288 c 1
 688 960 l 1
 872 960 l 1
 872 0 l 1
 688 0 l 1
 688 104 l 1
 624 35 557 0 488 0 c 0
 424 0 376 29 344 88 c 1
 344 -288 l 1
 152 -288 l 1
EndSplineSet
Validated: 1
EndChar

StartChar: paragraph
Encoding: 182 182 120
Width: 1024
Flags: W
LayerCount: 2
Fore
SplineSet
40 1296 m 0
 40 1392 56 1471 88 1532 c 0
 120 1593 163 1624 216 1624 c 2
 488 1624 l 1
 488 1496 l 1
 464 1496 l 1
 464 -152 l 1
 384 -152 l 1
 384 1496 l 1
 288 1496 l 1
 288 -152 l 1
 208 -152 l 1
 208 960 l 1
 160 955 120 984 88 1048 c 0
 56 1112 40 1195 40 1296 c 0
EndSplineSet
Validated: 33
EndChar

StartChar: periodcentered
Encoding: 183 183 121
Width: 416
Flags: W
LayerCount: 2
Fore
SplineSet
160 640 m 1
 160 888 l 1
 256 888 l 1
 256 640 l 1
 160 640 l 1
EndSplineSet
Validated: 1
EndChar

StartChar: cedilla
Encoding: 184 184 122
Width: 416
Flags: W
LayerCount: 2
Fore
SplineSet
128 144 m 0
 128 187 135 227 148 264 c 0
 161 301 179 320 200 320 c 0
 221 320 239 303 252 268 c 0
 265 233 272 192 272 144 c 0
 277 16 268 -84 244 -156 c 0
 220 -228 184 -272 136 -288 c 1
 128 -200 l 1
 155 -195 173 -181 184 -160 c 0
 195 -139 203 -112 208 -80 c 0
 213 -48 211 -32 200 -32 c 0
 179 -32 161 -16 148 16 c 0
 135 48 128 91 128 144 c 0
EndSplineSet
Validated: 33
EndChar

StartChar: uni00B9
Encoding: 185 185 123
Width: 488
Flags: W
LayerCount: 2
Fore
SplineSet
32 1520 m 1
 32 1616 l 1
 75 1616 101 1648 112 1712 c 1
 160 1712 l 1
 160 1032 l 1
 88 1032 l 1
 88 1520 l 1
 32 1520 l 1
EndSplineSet
Validated: 1
EndChar

StartChar: ordmasculine
Encoding: 186 186 124
Width: 488
Flags: W
LayerCount: 2
Fore
SplineSet
32 1376 m 0
 32 1461 43 1539 64 1608 c 0
 85 1677 115 1712 152 1712 c 0
 189 1712 219 1680 240 1616 c 0
 261 1552 272 1472 272 1376 c 0
 272 1275 261 1192 240 1128 c 0
 219 1064 189 1032 152 1032 c 0
 115 1032 85 1065 64 1132 c 0
 43 1199 32 1280 32 1376 c 0
80 1376 m 0
 80 1296 87 1236 100 1196 c 0
 113 1156 131 1136 152 1136 c 0
 173 1136 191 1156 204 1196 c 0
 217 1236 224 1296 224 1376 c 0
 224 1456 217 1515 204 1552 c 0
 191 1589 173 1608 152 1608 c 0
 131 1608 113 1589 100 1552 c 0
 87 1515 80 1456 80 1376 c 0
EndSplineSet
Validated: 1
EndChar

StartChar: guillemotright
Encoding: 187 187 125
Width: 1368
Flags: W
LayerCount: 2
Fore
SplineSet
128 144 m 1
 792 736 l 1
 128 1328 l 1
 200 1400 l 1
 944 736 l 1
 200 80 l 1
 128 144 l 1
448 144 m 1
 1120 736 l 1
 448 1328 l 1
 528 1400 l 1
 1264 736 l 1
 528 80 l 1
 448 144 l 1
EndSplineSet
Validated: 1
EndChar

StartChar: onequarter
Encoding: 188 188 126
Width: 1048
Flags: W
LayerCount: 2
Fore
SplineSet
72 1408 m 1
 72 1480 l 1
 147 1480 189 1504 200 1552 c 1
 272 1552 l 1
 272 816 l 1
 176 816 l 1
 176 1408 l 1
 72 1408 l 1
168 32 m 1
 808 1552 l 1
 872 1536 l 1
 232 8 l 1
 168 32 l 1
472 168 m 1
 472 208 l 1
 784 736 l 1
 872 736 l 1
 872 256 l 1
 992 256 l 1
 992 168 l 1
 872 168 l 1
 872 0 l 1
 768 0 l 1
 768 168 l 1
 472 168 l 1
584 256 m 1
 768 256 l 1
 768 560 l 1
 584 256 l 1
EndSplineSet
Validated: 1
EndChar

StartChar: onehalf
Encoding: 189 189 127
Width: 1048
Flags: W
LayerCount: 2
Fore
SplineSet
72 1416 m 1
 72 1480 l 1
 147 1485 189 1509 200 1552 c 1
 272 1552 l 1
 272 816 l 1
 176 816 l 1
 176 1416 l 1
 72 1416 l 1
168 32 m 1
 808 1552 l 1
 872 1536 l 1
 232 8 l 1
 168 32 l 1
536 520 m 1
 536 584 557 636 600 676 c 0
 643 716 693 736 752 736 c 0
 816 736 869 717 912 680 c 0
 955 643 976 592 976 528 c 0
 976 459 941 387 872 312 c 1
 648 88 l 1
 976 88 l 1
 976 0 l 1
 544 0 l 1
 544 96 l 1
 784 336 l 2
 848 405 880 469 880 528 c 0
 880 576 868 608 844 624 c 0
 820 640 789 648 752 648 c 0
 720 648 692 640 668 624 c 0
 644 608 632 573 632 520 c 1
 536 520 l 1
EndSplineSet
Validated: 1
EndChar

StartChar: threequarters
Encoding: 190 190 128
Width: 1048
Flags: W
LayerCount: 2
Fore
SplineSet
72 816 m 1
 72 896 l 1
 232 896 l 2
 323 896 368 947 368 1048 c 0
 368 1155 323 1208 232 1208 c 2
 128 1208 l 1
 128 1272 l 1
 336 1472 l 1
 72 1472 l 1
 72 1552 l 1
 488 1552 l 1
 488 1472 l 1
 280 1272 l 1
 419 1272 488 1197 488 1048 c 0
 488 893 403 816 232 816 c 2
 72 816 l 1
168 32 m 1
 808 1552 l 1
 872 1536 l 1
 232 8 l 1
 168 32 l 1
504 168 m 1
 504 272 l 1
 800 736 l 1
 904 736 l 1
 904 256 l 1
 1032 256 l 1
 1032 168 l 1
 904 168 l 1
 904 0 l 1
 808 0 l 1
 808 168 l 1
 504 168 l 1
608 256 m 1
 808 256 l 1
 808 568 l 1
 608 256 l 1
EndSplineSet
Validated: 1
EndChar

StartChar: questiondown
Encoding: 191 191 129
Width: 928
Flags: W
LayerCount: 2
Fore
SplineSet
56 280 m 0
 56 392 80 477 128 536 c 0
 176 595 229 645 288 688 c 0
 347 736 380 787 388 840 c 0
 396 893 400 944 400 992 c 2
 400 1112 l 1
 552 1112 l 1
 552 992 l 2
 552 939 547 881 536 820 c 0
 525 759 485 693 416 624 c 1
 347 571 293 521 256 476 c 0
 219 431 200 368 200 288 c 0
 200 224 220 169 260 124 c 0
 300 79 363 56 448 56 c 0
 539 56 605 83 648 136 c 0
 691 189 712 256 712 336 c 2
 712 424 l 1
 848 424 l 1
 848 336 l 2
 848 213 811 113 736 36 c 0
 661 -41 565 -80 448 -80 c 1
 331 -85 236 -52 164 20 c 0
 92 92 56 179 56 280 c 0
376 1360 m 1
 376 1584 l 1
 568 1584 l 1
 568 1360 l 1
 376 1360 l 1
EndSplineSet
Validated: 33
EndChar

StartChar: Agrave
Encoding: 192 192 130
Width: 1296
Flags: W
LayerCount: 2
Fore
SplineSet
240 0 m 1
 552 1176 l 1
 704 1176 l 1
 1016 0 l 1
 880 0 l 1
 784 336 l 1
 464 336 l 1
 376 0 l 1
 240 0 l 1
424 1760 m 1
 640 1760 l 1
 824 1360 l 1
 704 1360 l 1
 424 1760 l 1
504 480 m 1
 752 480 l 1
 624 952 l 1
 504 480 l 1
EndSplineSet
Validated: 1
EndChar

StartChar: Aacute
Encoding: 193 193 131
Width: 1296
Flags: W
LayerCount: 2
Fore
SplineSet
240 0 m 1
 552 1176 l 1
 704 1176 l 1
 1016 0 l 1
 880 0 l 1
 784 336 l 1
 464 336 l 1
 376 0 l 1
 240 0 l 1
432 1360 m 1
 616 1760 l 1
 832 1760 l 1
 560 1360 l 1
 432 1360 l 1
504 480 m 1
 752 480 l 1
 624 952 l 1
 504 480 l 1
EndSplineSet
Validated: 1
EndChar

StartChar: Acircumflex
Encoding: 194 194 132
Width: 1296
Flags: W
LayerCount: 2
Fore
SplineSet
272 0 m 1
 584 1176 l 1
 736 1176 l 1
 1048 0 l 1
 912 0 l 1
 816 336 l 1
 496 336 l 1
 408 0 l 1
 272 0 l 1
408 1416 m 1
 624 1760 l 1
 688 1760 l 1
 904 1416 l 1
 824 1336 l 1
 656 1608 l 1
 488 1336 l 1
 408 1416 l 1
536 480 m 1
 784 480 l 1
 664 952 l 1
 536 480 l 1
EndSplineSet
Validated: 1
EndChar

StartChar: Atilde
Encoding: 195 195 133
Width: 1296
Flags: W
LayerCount: 2
Fore
SplineSet
232 0 m 1
 544 1176 l 1
 696 1176 l 1
 1008 0 l 1
 872 0 l 1
 776 336 l 1
 456 336 l 1
 368 0 l 1
 232 0 l 1
272 1400 m 1
 272 1600 l 1
 352 1707 416 1760 464 1760 c 0
 512 1760 552 1733 584 1680 c 1
 680 1560 l 2
 712 1523 747 1504 784 1504 c 0
 821 1504 883 1563 968 1680 c 1
 968 1480 l 1
 893 1379 832 1328 784 1328 c 0
 736 1328 693 1352 656 1400 c 2
 560 1520 l 2
 533 1557 501 1576 464 1576 c 0
 421 1576 357 1517 272 1400 c 1
496 480 m 1
 744 480 l 1
 616 952 l 1
 496 480 l 1
EndSplineSet
Validated: 1
EndChar

StartChar: Adieresis
Encoding: 196 196 134
Width: 1296
Flags: W
LayerCount: 2
Fore
SplineSet
248 0 m 1
 560 1176 l 1
 720 1176 l 1
 1032 0 l 1
 888 0 l 1
 800 336 l 1
 480 336 l 1
 392 0 l 1
 248 0 l 1
320 1360 m 1
 320 1760 l 1
 520 1760 l 1
 520 1360 l 1
 320 1360 l 1
512 480 m 1
 768 480 l 1
 640 952 l 1
 512 480 l 1
736 1360 m 1
 736 1760 l 1
 944 1760 l 1
 944 1360 l 1
 736 1360 l 1
EndSplineSet
Validated: 1
EndChar

StartChar: Aring
Encoding: 197 197 135
Width: 1296
Flags: W
LayerCount: 2
Fore
SplineSet
232 0 m 1
 544 1176 l 1
 696 1176 l 1
 1008 0 l 1
 872 0 l 1
 776 336 l 1
 456 336 l 1
 368 0 l 1
 232 0 l 1
416 1552 m 0
 416 1605 437 1653 480 1696 c 1
 517 1739 565 1760 624 1760 c 0
 677 1760 725 1739 768 1696 c 0
 811 1653 832 1605 832 1552 c 0
 832 1493 811 1445 768 1408 c 1
 725 1365 677 1344 624 1344 c 0
 565 1344 517 1365 480 1408 c 1
 437 1445 416 1493 416 1552 c 0
488 1552 m 0
 488 1509 500 1475 524 1448 c 0
 548 1421 581 1408 624 1408 c 0
 661 1408 693 1424 720 1456 c 1
 747 1477 760 1509 760 1552 c 0
 760 1589 747 1621 720 1648 c 0
 693 1675 661 1688 624 1688 c 0
 581 1688 549 1675 528 1648 c 1
 501 1621 488 1589 488 1552 c 0
496 480 m 1
 744 480 l 1
 616 952 l 1
 496 480 l 1
EndSplineSet
Validated: 1
EndChar

StartChar: AE
Encoding: 198 198 136
Width: 1368
Flags: W
LayerCount: 2
Fore
SplineSet
128 0 m 1
 672 1176 l 1
 1248 1176 l 1
 1248 1040 l 1
 784 1040 l 1
 784 688 l 1
 1160 688 l 1
 1160 544 l 1
 784 544 l 1
 784 136 l 1
 1248 136 l 1
 1248 0 l 1
 680 0 l 1
 680 344 l 1
 416 344 l 1
 264 0 l 1
 128 0 l 1
480 480 m 1
 680 480 l 1
 680 920 l 1
 480 480 l 1
EndSplineSet
Validated: 1
EndChar

StartChar: Ccedilla
Encoding: 199 199 137
Width: 1360
Flags: W
LayerCount: 2
Fore
SplineSet
40 592 m 0
 40 747 100 883 220 1000 c 0
 340 1117 504 1179 712 1184 c 1
 925 1179 1076 1141 1164 1072 c 0
 1252 1003 1304 904 1320 776 c 1
 1088 776 l 1
 1061 867 1020 933 964 976 c 0
 908 1019 824 1040 712 1040 c 0
 589 1040 487 1003 404 928 c 0
 321 853 280 741 280 592 c 0
 280 453 321 341 404 256 c 0
 487 171 581 128 688 128 c 0
 795 128 884 149 956 192 c 0
 1028 235 1072 309 1088 416 c 1
 1320 416 l 1
 1315 283 1260 183 1156 116 c 0
 1052 49 925 11 776 0 c 1
 803 -11 827 -16 848 -16 c 0
 923 -27 968 -44 984 -68 c 0
 1000 -92 1008 -117 1008 -144 c 0
 1008 -197 977 -235 916 -256 c 0
 855 -277 789 -288 720 -288 c 1
 656 -293 596 -285 540 -264 c 0
 484 -243 445 -221 424 -200 c 1
 568 -144 l 1
 624 -172 l 2
 661 -191 693 -200 720 -200 c 0
 757 -200 784 -199 800 -196 c 0
 816 -193 827 -176 832 -144 c 0
 837 -112 819 -91 776 -80 c 0
 691 -64 635 -37 608 0 c 1
 453 16 320 81 208 196 c 0
 96 311 40 443 40 592 c 0
EndSplineSet
Validated: 33
EndChar

StartChar: Egrave
Encoding: 200 200 138
Width: 1160
Flags: W
LayerCount: 2
Fore
SplineSet
104 0 m 1
 104 1176 l 1
 1064 1176 l 1
 1064 1040 l 1
 296 1040 l 1
 296 688 l 1
 936 688 l 1
 936 544 l 1
 296 544 l 1
 296 136 l 1
 1064 136 l 1
 1064 0 l 1
 104 0 l 1
288 1768 m 1
 600 1768 l 1
 864 1360 l 1
 688 1360 l 1
 288 1768 l 1
EndSplineSet
Validated: 1
EndChar

StartChar: Eacute
Encoding: 201 201 139
Width: 1160
Flags: HW
LayerCount: 2
Fore
SplineSet
703 1966 m 2
 703 1966 702 1966 702 1966 c 2
 699 1966 695 1964 693 1961 c 2
 382 1616 l 2
 380 1614 378 1610 378 1608 c 0
 378 1601 384 1595 391 1595 c 0
 394 1595 398 1597 400 1599 c 2
 711 1945 l 2
 713 1947 715 1950 715 1953 c 0
 715 1960 709 1965 703 1966 c 2
719 1949 m 1
 716 1948 713 1947 711 1945 c 2
 365 1634 l 2
 363 1632 361 1628 361 1625 c 0
 361 1618 367 1612 374 1612 c 0
 376 1612 380 1614 382 1616 c 2
 727 1927 l 2
 730 1929 732 1933 732 1936 c 0
 732 1943 726 1949 719 1949 c 1
 719 1949 719 1949 719 1949 c 1
EndSplineSet
Refer: 40 69 N 1 0 0 1 0 0 3
Validated: 5
EndChar

StartChar: Ecircumflex
Encoding: 202 202 140
Width: 1160
Flags: W
LayerCount: 2
Fore
SplineSet
104 0 m 1
 104 1176 l 1
 1064 1176 l 1
 1064 1040 l 1
 296 1040 l 1
 296 688 l 1
 936 688 l 1
 936 544 l 1
 296 544 l 1
 296 136 l 1
 1064 136 l 1
 1064 0 l 1
 104 0 l 1
216 1384 m 1
 536 1768 l 1
 624 1768 l 1
 936 1384 l 1
 824 1288 l 1
 584 1592 l 1
 336 1288 l 1
 216 1384 l 1
EndSplineSet
Validated: 1
EndChar

StartChar: Edieresis
Encoding: 203 203 141
Width: 1160
Flags: W
LayerCount: 2
Fore
SplineSet
104 0 m 1
 104 1176 l 1
 1064 1176 l 1
 1064 1040 l 1
 296 1040 l 1
 296 688 l 1
 936 688 l 1
 936 544 l 1
 296 544 l 1
 296 136 l 1
 1064 136 l 1
 1064 0 l 1
 104 0 l 1
192 1360 m 1
 192 1760 l 1
 464 1760 l 1
 464 1360 l 1
 192 1360 l 1
696 1360 m 1
 696 1760 l 1
 968 1760 l 1
 968 1360 l 1
 696 1360 l 1
EndSplineSet
Validated: 1
EndChar

StartChar: Igrave
Encoding: 204 204 142
Width: 688
Flags: W
LayerCount: 2
Fore
SplineSet
176 1768 m 1
 360 1768 l 1
 512 1360 l 1
 408 1360 l 1
 176 1768 l 1
288 0 m 1
 288 1176 l 1
 408 1176 l 1
 408 0 l 1
 288 0 l 1
EndSplineSet
Validated: 1
EndChar

StartChar: Iacute
Encoding: 205 205 143
Width: 592
Flags: W
LayerCount: 2
Fore
SplineSet
152 1416 m 1
 288 1768 l 1
 440 1768 l 1
 240 1416 l 1
 152 1416 l 1
248 0 m 1
 248 1176 l 1
 352 1176 l 1
 352 0 l 1
 248 0 l 1
EndSplineSet
Validated: 1
EndChar

StartChar: Icircumflex
Encoding: 206 206 144
Width: 888
Flags: W
LayerCount: 2
Fore
SplineSet
168 1480 m 1
 408 1760 l 1
 480 1760 l 1
 720 1480 l 1
 632 1408 l 1
 448 1632 l 1
 256 1408 l 1
 168 1480 l 1
376 0 m 1
 376 1176 l 1
 520 1176 l 1
 520 0 l 1
 376 0 l 1
EndSplineSet
Validated: 1
EndChar

StartChar: Idieresis
Encoding: 207 207 145
Width: 688
Flags: W
LayerCount: 2
Fore
SplineSet
80 1528 m 1
 80 1768 l 1
 240 1768 l 1
 240 1528 l 1
 80 1528 l 1
288 0 m 1
 288 1176 l 1
 408 1176 l 1
 408 0 l 1
 288 0 l 1
416 1528 m 1
 416 1768 l 1
 576 1768 l 1
 576 1528 l 1
 416 1528 l 1
EndSplineSet
Validated: 1
EndChar

StartChar: Eth
Encoding: 208 208 146
Width: 1328
Flags: W
LayerCount: 2
Fore
SplineSet
176 736 m 1
 176 872 l 1
 376 872 l 1
 376 1552 l 1
 656 1552 l 2
 843 1552 973 1481 1048 1340 c 0
 1123 1199 1160 1011 1160 776 c 0
 1160 541 1123 353 1048 212 c 0
 973 71 843 0 656 0 c 2
 376 0 l 1
 376 736 l 1
 176 736 l 1
496 152 m 1
 656 152 l 2
 789 152 883 209 936 324 c 0
 989 439 1016 588 1016 772 c 0
 1016 956 989 1109 936 1232 c 0
 883 1355 789 1416 656 1416 c 2
 496 1416 l 1
 496 872 l 1
 728 872 l 1
 728 736 l 1
 496 736 l 1
 496 152 l 1
EndSplineSet
Validated: 1
EndChar

StartChar: Ntilde
Encoding: 209 209 147
Width: 1312
Flags: W
LayerCount: 2
Fore
SplineSet
112 0 m 1
 112 1176 l 1
 400 1176 l 1
 984 288 l 1
 984 1176 l 1
 1208 1176 l 1
 1208 0 l 1
 928 0 l 1
 336 912 l 1
 336 0 l 1
 112 0 l 1
128 1488 m 1
 128 1640 l 1
 245 1720 341 1760 416 1760 c 0
 491 1760 552 1741 600 1704 c 1
 744 1608 l 2
 787 1581 837 1568 896 1568 c 0
 960 1568 1056 1613 1184 1704 c 1
 1184 1552 l 1
 1067 1472 971 1432 896 1432 c 0
 827 1432 765 1451 712 1488 c 2
 568 1584 l 2
 525 1611 475 1624 416 1624 c 0
 357 1624 261 1579 128 1488 c 1
EndSplineSet
Validated: 1
EndChar

StartChar: Ograve
Encoding: 210 210 148
Width: 1368
Flags: W
LayerCount: 2
Fore
SplineSet
152 584 m 0
 152 739 195 876 280 996 c 0
 365 1116 477 1176 616 1176 c 2
 736 1176 l 2
 869 1176 981 1116 1072 996 c 0
 1163 876 1208 739 1208 584 c 0
 1208 419 1159 279 1060 164 c 0
 961 49 833 -8 676 -8 c 0
 519 -8 392 49 296 164 c 0
 200 279 152 419 152 584 c 0
320 584 m 0
 320 429 357 315 432 240 c 0
 507 165 588 128 676 128 c 0
 764 128 847 165 924 240 c 0
 1001 315 1040 429 1040 584 c 0
 1040 733 1003 848 928 928 c 0
 853 1008 779 1048 704 1048 c 2
 648 1048 l 2
 579 1048 507 1005 432 920 c 0
 357 835 320 723 320 584 c 0
392 1760 m 1
 688 1760 l 1
 944 1432 l 1
 768 1432 l 1
 392 1760 l 1
EndSplineSet
Validated: 1
EndChar

StartChar: Oacute
Encoding: 211 211 149
Width: 1368
Flags: W
LayerCount: 2
Fore
SplineSet
152 584 m 0
 152 739 195 876 280 996 c 0
 365 1116 477 1176 616 1176 c 2
 736 1176 l 2
 869 1176 981 1116 1072 996 c 0
 1163 876 1208 739 1208 584 c 0
 1208 419 1159 279 1060 164 c 0
 961 49 833 -8 676 -8 c 0
 519 -8 392 49 296 164 c 0
 200 279 152 419 152 584 c 0
320 584 m 0
 320 429 357 315 432 240 c 0
 507 165 588 128 676 128 c 0
 764 128 847 165 924 240 c 0
 1001 315 1040 429 1040 584 c 0
 1040 733 1003 848 928 928 c 0
 853 1008 779 1048 704 1048 c 2
 648 1048 l 2
 579 1048 507 1005 432 920 c 0
 357 835 320 723 320 584 c 0
472 1408 m 1
 680 1760 l 1
 928 1760 l 1
 616 1408 l 1
 472 1408 l 1
EndSplineSet
Validated: 1
EndChar

StartChar: Ocircumflex
Encoding: 212 212 150
Width: 1368
Flags: W
LayerCount: 2
Fore
SplineSet
152 584 m 0
 152 739 195 876 280 996 c 0
 365 1116 477 1176 616 1176 c 2
 736 1176 l 2
 869 1176 981 1116 1072 996 c 0
 1163 876 1208 739 1208 584 c 0
 1208 419 1159 279 1060 164 c 0
 961 49 833 -8 676 -8 c 0
 519 -8 392 49 296 164 c 0
 200 279 152 419 152 584 c 0
320 584 m 0
 320 429 357 315 432 240 c 0
 507 165 588 128 676 128 c 0
 764 128 847 165 924 240 c 0
 1001 315 1040 429 1040 584 c 0
 1040 733 1003 848 928 928 c 0
 853 1008 779 1048 704 1048 c 2
 648 1048 l 2
 579 1048 507 1005 432 920 c 0
 357 835 320 723 320 584 c 0
392 1480 m 1
 640 1760 l 1
 712 1760 l 1
 960 1480 l 1
 872 1408 l 1
 680 1640 l 1
 488 1408 l 1
 392 1480 l 1
EndSplineSet
Validated: 1
EndChar

StartChar: Otilde
Encoding: 213 213 151
Width: 1368
Flags: W
LayerCount: 2
Fore
SplineSet
152 584 m 0
 152 739 195 876 280 996 c 0
 365 1116 477 1176 616 1176 c 2
 736 1176 l 2
 869 1176 981 1116 1072 996 c 0
 1163 876 1208 739 1208 584 c 0
 1208 419 1159 279 1060 164 c 0
 961 49 833 -8 676 -8 c 0
 519 -8 392 49 296 164 c 0
 200 279 152 419 152 584 c 0
312 1488 m 1
 312 1648 l 1
 392 1728 459 1768 512 1768 c 0
 560 1768 603 1749 640 1712 c 2
 736 1616 l 2
 768 1589 805 1576 848 1576 c 0
 891 1576 955 1621 1040 1712 c 1
 1040 1552 l 1
 965 1472 901 1432 848 1432 c 0
 795 1432 749 1451 712 1488 c 2
 616 1584 l 2
 584 1611 549 1624 512 1624 c 0
 469 1624 403 1579 312 1488 c 1
320 584 m 0
 320 429 357 315 432 240 c 0
 507 165 588 128 676 128 c 0
 764 128 847 165 924 240 c 0
 1001 315 1040 429 1040 584 c 0
 1040 733 1003 848 928 928 c 0
 853 1008 779 1048 704 1048 c 2
 648 1048 l 2
 579 1048 507 1005 432 920 c 0
 357 835 320 723 320 584 c 0
EndSplineSet
Validated: 1
EndChar

StartChar: Odieresis
Encoding: 214 214 152
Width: 1368
Flags: W
LayerCount: 2
Fore
SplineSet
152 584 m 0
 152 739 192 876 272 996 c 0
 352 1116 467 1176 616 1176 c 2
 736 1176 l 2
 885 1176 1001 1116 1084 996 c 0
 1167 876 1208 739 1208 584 c 0
 1208 419 1164 280 1076 168 c 0
 988 56 872 0 728 0 c 2
 624 0 l 2
 485 0 372 56 284 168 c 0
 196 280 152 419 152 584 c 0
320 584 m 0
 320 429 353 317 420 248 c 0
 487 179 563 144 648 144 c 2
 704 144 l 2
 779 144 853 179 928 248 c 0
 1003 317 1040 429 1040 584 c 0
 1040 733 1008 845 944 920 c 0
 880 995 800 1032 704 1032 c 2
 648 1032 l 2
 552 1032 473 992 412 912 c 0
 351 832 320 723 320 584 c 0
352 1360 m 1
 352 1760 l 1
 568 1760 l 1
 568 1360 l 1
 352 1360 l 1
792 1360 m 1
 792 1760 l 1
 1008 1760 l 1
 1008 1360 l 1
 792 1360 l 1
EndSplineSet
Validated: 1
EndChar

StartChar: multiply
Encoding: 215 215 153
Width: 2048
Flags: W
LayerCount: 2
Fore
SplineSet
384 248 m 1
 920 784 l 1
 392 1312 l 1
 496 1416 l 1
 1024 888 l 1
 1552 1416 l 1
 1656 1312 l 1
 1128 784 l 1
 1672 248 l 1
 1568 136 l 1
 1024 680 l 1
 488 136 l 1
 384 248 l 1
EndSplineSet
Validated: 1
EndChar

StartChar: Oslash
Encoding: 216 216 154
Width: 1368
Flags: W
LayerCount: 2
Fore
SplineSet
280 -80 m 1
 424 224 l 1
 344 379 304 565 304 784 c 0
 304 987 344 1165 424 1320 c 0
 504 1475 608 1552 736 1552 c 0
 832 1552 912 1512 976 1432 c 1
 1096 1688 l 1
 1192 1632 l 1
 1048 1328 l 1
 1133 1168 1176 987 1176 784 c 0
 1176 565 1135 380 1052 228 c 0
 969 76 864 0 736 0 c 0
 645 0 565 40 496 120 c 1
 376 -144 l 1
 280 -80 l 1
472 784 m 0
 472 635 485 512 512 416 c 1
 904 1280 l 1
 856 1349 800 1384 736 1384 c 0
 667 1384 605 1332 552 1228 c 0
 499 1124 472 976 472 784 c 0
568 280 m 1
 616 195 672 152 736 152 c 0
 811 152 876 207 932 316 c 0
 988 425 1016 581 1016 784 c 0
 1016 928 1000 1051 968 1152 c 1
 568 280 l 1
EndSplineSet
Validated: 1
EndChar

StartChar: Ugrave
Encoding: 217 217 155
Width: 1312
Flags: W
LayerCount: 2
Fore
SplineSet
128 520 m 2
 128 1176 l 1
 352 1176 l 1
 352 520 l 2
 352 387 379 293 432 240 c 0
 485 187 560 160 656 160 c 0
 752 160 828 187 884 240 c 0
 940 293 968 387 968 520 c 2
 968 1176 l 1
 1192 1176 l 1
 1192 520 l 2
 1192 323 1140 185 1036 108 c 0
 932 31 803 -8 648 -8 c 0
 493 -8 368 31 272 108 c 0
 176 185 128 323 128 520 c 2
384 1768 m 1
 728 1768 l 1
 1032 1416 l 1
 824 1416 l 1
 384 1768 l 1
EndSplineSet
Validated: 1
EndChar

StartChar: Uacute
Encoding: 218 218 156
Width: 1312
Flags: W
LayerCount: 2
Fore
SplineSet
128 520 m 2
 128 1176 l 1
 352 1176 l 1
 352 520 l 2
 352 387 379 293 432 240 c 0
 485 187 560 160 656 160 c 0
 752 160 828 187 884 240 c 0
 940 293 968 387 968 520 c 2
 968 1176 l 1
 1192 1176 l 1
 1192 520 l 2
 1192 323 1140 185 1036 108 c 0
 932 31 803 -8 648 -8 c 0
 493 -8 368 31 272 108 c 0
 176 185 128 323 128 520 c 2
312 1416 m 1
 608 1768 l 1
 960 1768 l 1
 512 1416 l 1
 312 1416 l 1
EndSplineSet
Validated: 1
EndChar

StartChar: Ucircumflex
Encoding: 219 219 157
Width: 1312
Flags: W
LayerCount: 2
Fore
SplineSet
128 520 m 2
 128 1176 l 1
 352 1176 l 1
 352 520 l 2
 352 387 379 293 432 240 c 0
 485 187 560 160 656 160 c 0
 752 160 828 187 884 240 c 0
 940 293 968 387 968 520 c 2
 968 1176 l 1
 1192 1176 l 1
 1192 520 l 2
 1192 323 1140 185 1036 108 c 0
 932 31 803 -8 648 -8 c 0
 493 -8 368 31 272 108 c 0
 176 185 128 323 128 520 c 2
248 1480 m 1
 608 1760 l 1
 712 1760 l 1
 1064 1480 l 1
 936 1408 l 1
 656 1632 l 1
 384 1408 l 1
 248 1480 l 1
EndSplineSet
Validated: 1
EndChar

StartChar: Udieresis
Encoding: 220 220 158
Width: 1312
Flags: W
LayerCount: 2
Fore
SplineSet
128 520 m 2
 128 1176 l 1
 352 1176 l 1
 352 520 l 2
 352 387 379 293 432 240 c 0
 485 187 560 160 656 160 c 0
 752 160 828 187 884 240 c 0
 940 293 968 387 968 520 c 2
 968 1176 l 1
 1192 1176 l 1
 1192 520 l 2
 1192 323 1140 185 1036 108 c 0
 932 31 803 -8 648 -8 c 0
 493 -8 368 31 272 108 c 0
 176 185 128 323 128 520 c 2
152 1528 m 1
 152 1768 l 1
 464 1768 l 1
 464 1528 l 1
 152 1528 l 1
792 1528 m 1
 792 1768 l 1
 1096 1768 l 1
 1096 1528 l 1
 792 1528 l 1
EndSplineSet
Validated: 1
EndChar

StartChar: Yacute
Encoding: 221 221 159
Width: 1208
Flags: W
LayerCount: 2
Fore
SplineSet
112 1176 m 1
 320 1176 l 1
 608 704 l 1
 896 1176 l 1
 1104 1176 l 1
 712 552 l 1
 712 0 l 1
 504 0 l 1
 504 552 l 1
 112 1176 l 1
320 1408 m 1
 600 1760 l 1
 920 1760 l 1
 512 1408 l 1
 320 1408 l 1
EndSplineSet
Validated: 1
EndChar

StartChar: Thorn
Encoding: 222 222 160
Width: 1112
Flags: W
LayerCount: 2
Fore
SplineSet
152 0 m 1
 152 1624 l 1
 336 1624 l 1
 336 1192 l 1
 608 1192 l 2
 869 1192 1003 1067 1008 816 c 0
 1013 565 880 437 608 432 c 1
 336 432 l 1
 336 0 l 1
 152 0 l 1
336 560 m 1
 608 560 l 2
 763 560 843 645 848 816 c 1
 848 971 768 1051 608 1056 c 1
 336 1056 l 1
 336 560 l 1
EndSplineSet
Validated: 33
EndChar

StartChar: germandbls
Encoding: 223 223 161
Width: 1112
Flags: W
LayerCount: 2
Fore
SplineSet
88 0 m 1
 88 1088 l 2
 88 1264 127 1385 204 1452 c 0
 281 1519 363 1552 448 1552 c 2
 544 1552 l 2
 645 1552 733 1513 808 1436 c 0
 883 1359 920 1264 920 1152 c 0
 920 1056 895 980 844 924 c 0
 793 868 749 835 712 824 c 1
 792 808 864 763 928 688 c 0
 992 613 1024 525 1024 424 c 0
 1024 136 888 -5 616 0 c 1
 384 0 l 1
 384 144 l 1
 584 144 l 2
 760 144 848 235 848 416 c 0
 848 528 804 613 716 672 c 0
 628 731 536 760 440 760 c 1
 440 888 l 1
 531 888 603 912 656 960 c 0
 709 1008 736 1072 736 1152 c 0
 736 1243 713 1308 668 1348 c 0
 623 1388 560 1408 480 1408 c 0
 421 1408 372 1383 332 1332 c 0
 292 1281 272 1200 272 1088 c 2
 272 0 l 1
 88 0 l 1
EndSplineSet
Validated: 33
EndChar

StartChar: agrave
Encoding: 224 224 162
Width: 976
Flags: HW
HStem: 18 45 38 5 169 22<727 736> 556 25<730.5 769 769 769> 888 45 908 5
VStem: 153 25<261 267 261 268 261 306> 168 25<689.5 693 689.5 730> 200 25<239 290 239 293.5> 218 25<689.5 693 689.5 710.5> 635 20<149.5 152> 688 18<-43 -43> 716 25<-3.5 0 0 690> 754 25<-3.5 0 0 697>
LayerCount: 2
Fore
SplineSet
340 1646 m 2
 340 1646 341 1646 341 1646 c 2
 344 1646 348 1644 350 1641 c 2
 502.884189147 1471.40178374 l 1
 678 1314 l 2
 680 1312 682 1308 682 1305 c 0
 682 1298 676 1292 669 1292 c 0
 667 1292 663 1294 661 1296 c 1
 663 1294 665 1290 665 1288 c 0
 665 1281 659 1275 652 1275 c 0
 649 1275 645 1277 643 1279 c 2
 485.598216257 1454.11581085 l 1
 316 1607 l 2
 313 1609 311 1613 311 1616 c 0
 311 1623 317 1629 324 1629 c 0
 327 1628 330 1627 332 1625 c 1
 330 1627 328 1630 328 1633 c 0
 328 1640 334 1645 340 1646 c 2
697 -46 m 1
 706 -43 l 1
 704.53188712 -37.861604919 687.437447378 64.8066233342 678.448968778 119.051113535 c 1
 675.35375572 116.704670712 672.203180059 114.352335356 669 112 c 0
 666.827739259 110.404746018 664.631285878 108.809492036 662.411382623 107.216075808 c 1
 661.833965207 110.696045157 661.278167555 114.04782197 660.748570122 117.243235381 c 1
 660.036534637 116.801588361 659.320965003 116.359047857 658.601930195 115.915698171 c 0
 659.142522326 112.670143921 659.711652465 109.258119977 660.304444664 105.709354205 c 0
 655.063477478 101.975377705 649.694809568 98.2546978765 644.20802559 94.5710240109 c 1
 653.827548705 37.3603748918 667.70477767 -44.1143330095 669 -48 c 1
 679 -45 l 1
 685.984562058 -43.4478750982 l 2
 686.492040526 -46.0215185296 686.840919743 -47.6022993583 687 -48 c 2
 697 -46 l 1
431 932 m 2
 543 932 l 2
 610 932 669 914 712 874 c 0
 755 834 779 775 779 697 c 2
 779 575.946908895 l 2
 780.27852068 574.029489631 781 571.659040679 781 569 c 0
 781 566.340959321 780.27852068 563.826214505 779 561.72982882 c 2
 779 215 l 1
 779 0 l 2
 779 -7 774 -13 767 -13 c 0
 760 -13 754 -7 754 0 c 2
 754 183.765194353 l 2
 750.122452311 180.025599491 745.777049801 175.911878484 741 171.501383785 c 1
 741 0 l 2
 741 -7 735 -13 728 -13 c 0
 721 -13 716 -7 716 0 c 2
 716 149.303451525 l 1
 704.722690201 139.673359003 692.126348842 129.419766581 678.448968778 119.051113535 c 1
 677.952459855 122.04749085 677.480684471 124.896113893 677.037642647 127.572382537 c 1
 671.854815047 124.214192886 666.413545592 120.756992195 660.748570122 117.243235381 c 1
 659.649799817 123.872849303 658.663808988 129.82939763 657.831505466 134.861296179 c 1
 663.330892309 138.994791893 668.656907659 143.112801635 673.794982623 147.18327417 c 0
 673.282381935 150.287490201 673 152 673 152 c 1
 667.894734503 151.48947345 l 1
 691.329990468 166.790059345 708.591729021 179.421753515 716 184.968615765 c 1
 716 553.848189013 l 1
 651.314395669 552.283057174 532.170919597 538.292977138 428 497 c 0
 372 475 321 445 284 407 c 0
 248 368 225 320 225 260 c 0
 225 218 239 168 273 130 c 0
 306 91 360 62 442 62 c 0
 499 62 570 93 625 125 c 0
 629.380389014 127.548589972 633.665631873 130.090836867 637.843098966 132.611585151 c 1
 638.386968791 129.339002154 638.996425738 125.681000324 639.660361124 121.704769276 c 1
 644.55541273 125.123129456 649.339009965 128.561564728 654 132 c 0
 654.574833834 132.426489619 655.147862489 132.852893277 655.719069988 133.279175901 c 1
 656.537241938 128.33126115 657.51153324 122.462117154 658.601930195 115.915698171 c 1
 653.336581614 112.669136788 647.885418555 109.379184311 642.275525485 106.078943975 c 0
 642.895520928 102.382024209 643.541554426 98.5347597827 644.20802559 94.5710240109 c 0
 583.846770745 54.0461598502 509.190324944 18 433 18 c 0
 309 18 237 68 199 123 c 0
 161 179 154 238 153 260 c 0
 153 265 153 268 153 268 c 2
 153 344 183 403 230 447 c 0
 277 491 339 520 406 540 c 0
 513.831321223 571.383742744 633.318728939 578.807752142 716 580.510499271 c 1
 716 690 l 2
 716 768 691 816 651 845 c 0
 611 875 554 888 488 888 c 0
 380 888 321 854 286 813 c 0
 252 772 243 723 243 693 c 0
 243 686 238 680 231 680 c 0
 224 680 218 686 218 693 c 0
 218 728 228 783 267 829 c 0
 298.260757618 866.673220719 348.796366653 897.278995919 425.816784723 907.942401295 c 1
 370.381831544 906.713259461 312.638034189 885.849895516 269 849 c 0
 224 812 193 759 193 693 c 0
 193 686 188 680 181 680 c 0
 174 680 168 686 168 693 c 0
 168 767 203 827 253 869 c 0
 303 910 368 932 431 932 c 2
353.655722899 50.1915258778 m 1
 310.768361031 63.1503379411 277.711762327 85.5442760966 254 113 c 0
 215 157 200 212 200 260 c 0
 200 327 226 381 266 424 c 0
 302.245883463 461.129929401 348.651750795 489.662949374 398.999368896 511.671803995 c 1
 340.42927368 492.827083664 286.845388528 466.065478181 247 429 c 0
 205 389 178 338 178 267 c 2
 178 267 178 265 178 261 c 0
 179 242 185 187 220 137 c 0
 245.367873767 100.440417218 285.766269615 65.5508924453 353.655722899 50.1915258778 c 1
637.843098966 132.611585151 m 1
 643.492984332 136.020813405 648.945729895 139.390717124 654.17009143 142.683803237 c 1
 654.58925085 140.124434659 655.111051022 136.956185153 655.719069988 133.279175901 c 1
 656.426014622 133.806756859 657.130169788 134.334152433 657.831505466 134.861296179 c 0
 657.244557801 138.409835399 656.734041907 141.498528297 656.314304954 144.039140794 c 0
 660.319453273 146.577798799 664.184464205 149.067084317 667.894734503 151.48947345 c 2
 663 151 l 1
 655.2921487 150.22921487 l 2
 655.101108252 151.386827373 655 152 655 152 c 1
 645 151 l 1
 635 150 l 2
 635 149.816719228 636.074938919 143.250988623 637.843098966 132.611585151 c 1
741 555.881238992 m 1
 741 206.574988352 l 1
 746.933626573 212.434569403 751.332183803 216.984616523 754 219.794651993 c 2
 754 555.969407884 l 1
 749.821675662 555.951107476 745.484803444 555.923040065 741 555.881238992 c 1
741 580.880896469 m 1
 745.489933813 580.922851426 749.826827392 580.950987076 754 580.969323051 c 1
 754 697 l 2
 754 769 732 821 695 856 c 0
 659.963526812 888.195678065 610.580179076 906.044481582 552.793617584 907.848221218 c 1
 596.033007777 901.811717917 634.901439586 888.661948685 666 865 c 0
 713 831 741 773 741 690 c 2
 741 580.880896469 l 1
EndSplineSet
EndChar

StartChar: aacute
Encoding: 225 225 163
Width: 976
Flags: HW
LayerCount: 2
Fore
SplineSet
668 1618 m 2
 668 1618 668 1617 668 1617 c 2
 668 1614 666 1610 663 1608 c 2
 493.401783743 1455.11581085 l 1
 336 1280 l 2
 334 1278 330 1276 327 1276 c 0
 320 1276 314 1282 314 1289 c 0
 314 1291 316 1295 318 1297 c 1
 316 1295 312 1293 310 1293 c 0
 303 1293 297 1299 297 1306 c 0
 297 1309 299 1313 301 1315 c 2
 476.115810853 1472.40178374 l 1
 629 1642 l 2
 631 1645 635 1647 638 1647 c 0
 645 1647 651 1641 651 1634 c 0
 650 1631 649 1628 647 1626 c 1
 649 1628 652 1630 655 1630 c 0
 662 1630 667 1624 668 1618 c 2
431 932 m 2
 543 932 l 2
 610 932 669 914 712 874 c 0
 755 834 779 775 779 697 c 2
 779 575.946908895 l 2
 780.27852068 574.029489631 781 571.659040679 781 569 c 0
 781 566.340959321 780.27852068 563.826214505 779 561.72982882 c 2
 779 215 l 1
 779 0 l 2
 779 -7 774 -13 767 -13 c 0
 760 -13 754 -7 754 0 c 2
 754 183.765194353 l 2
 750.122452311 180.025599491 745.777049801 175.911878484 741 171.501383785 c 1
 741 0 l 2
 741 -7 735 -13 728 -13 c 0
 721 -13 716 -7 716 0 c 2
 716 149.303451525 l 1
 702.170616896 137.494053612 686.357653523 124.747026806 669 112 c 0
 605 65 520 18 433 18 c 0
 309 18 237 68 199 123 c 0
 161 179 154 238 153 260 c 0
 153 265 153 268 153 268 c 2
 153 344 183 403 230 447 c 0
 277 491 339 520 406 540 c 0
 513.831321223 571.383742744 633.318728939 578.807752142 716 580.510499271 c 1
 716 690 l 2
 716 768 691 816 651 845 c 0
 611 875 554 888 488 888 c 0
 380 888 321 854 286 813 c 0
 252 772 243 723 243 693 c 0
 243 686 238 680 231 680 c 0
 224 680 218 686 218 693 c 0
 218 728 228 783 267 829 c 0
 298.260757618 866.673220719 348.796366653 897.278995919 425.816784723 907.942401295 c 1
 370.381831544 906.713259461 312.638034189 885.849895516 269 849 c 0
 224 812 193 759 193 693 c 0
 193 686 188 680 181 680 c 0
 174 680 168 686 168 693 c 0
 168 767 203 827 253 869 c 0
 303 910 368 932 431 932 c 2
353.655722899 50.1915258778 m 1
 310.768361031 63.1503379411 277.711762327 85.5442760966 254 113 c 0
 215 157 200 212 200 260 c 0
 200 327 226 381 266 424 c 0
 302.245883463 461.129929401 348.651750795 489.662949374 398.999368896 511.671803995 c 1
 340.42927368 492.827083664 286.845388528 466.065478181 247 429 c 0
 205 389 178 338 178 267 c 2
 178 267 178 265 178 261 c 0
 179 242 185 187 220 137 c 0
 245.367873767 100.440417218 285.766269615 65.5508924453 353.655722899 50.1915258778 c 1
716 553.848189013 m 1
 651.314395669 552.283057174 532.170919597 538.292977138 428 497 c 0
 372 475 321 445 284 407 c 0
 248 368 225 320 225 260 c 0
 225 218 239 168 273 130 c 0
 306 91 360 62 442 62 c 0
 499 62 570 93 625 125 c 0
 669.757774167 151.040886788 704.582035863 176.419539412 716 184.968615765 c 1
 716 553.848189013 l 1
741 555.881238992 m 1
 741 206.574988352 l 1
 746.933626573 212.434569403 751.332183803 216.984616523 754 219.794651993 c 2
 754 555.969407884 l 1
 749.821675662 555.951107476 745.484803444 555.923040065 741 555.881238992 c 1
741 580.880896469 m 1
 745.489933813 580.922851426 749.826827392 580.950987076 754 580.969323051 c 1
 754 697 l 2
 754 769 732 821 695 856 c 0
 659.963526812 888.195678065 610.580179076 906.044481582 552.793617584 907.848221218 c 1
 596.033007777 901.811717917 634.901439586 888.661948685 666 865 c 0
 713 831 741 773 741 690 c 2
 741 580.880896469 l 1
EndSplineSet
EndChar

StartChar: acircumflex
Encoding: 226 226 164
Width: 976
Flags: W
LayerCount: 2
Fore
SplineSet
96 304 m 0
 96 528 237 640 520 640 c 2
 680 640 l 1
 680 696 l 2
 680 749 665 787 636 808 c 0
 607 829 568 840 520 840 c 2
 384 840 l 2
 293 840 221 821 168 784 c 1
 104 872 l 1
 189 931 280 960 376 960 c 2
 552 960 l 2
 621 960 685 940 744 900 c 0
 803 860 832 792 832 696 c 2
 832 208 l 1
 872 0 l 1
 728 0 l 1
 696 88 l 1
 616 29 512 0 384 0 c 0
 192 0 96 101 96 304 c 0
184 1336 m 1
 448 1624 l 1
 528 1624 l 1
 792 1336 l 1
 696 1272 l 1
 488 1496 l 1
 288 1272 l 1
 184 1336 l 1
264 296 m 1
 264 173 317 112 424 112 c 0
 509 112 595 147 680 216 c 1
 680 520 l 1
 520 520 l 2
 355 520 269 445 264 296 c 1
EndSplineSet
Validated: 1
EndChar

StartChar: atilde
Encoding: 227 227 165
Width: 976
Flags: W
LayerCount: 2
Fore
SplineSet
96 304 m 0
 96 528 237 640 520 640 c 2
 680 640 l 1
 680 696 l 2
 680 749 665 787 636 808 c 0
 607 829 568 840 520 840 c 2
 384 840 l 2
 293 840 221 821 168 784 c 1
 104 872 l 1
 189 931 280 960 376 960 c 2
 552 960 l 2
 621 960 685 940 744 900 c 0
 803 860 832 792 832 696 c 2
 832 208 l 1
 872 0 l 1
 728 0 l 1
 696 88 l 1
 616 29 512 0 384 0 c 0
 192 0 96 101 96 304 c 0
96 1272 m 1
 96 1424 l 1
 181 1504 253 1544 312 1544 c 0
 365 1544 411 1525 448 1488 c 2
 552 1392 l 1
 589 1365 629 1352 672 1352 c 0
 715 1352 784 1397 880 1488 c 1
 880 1336 l 1
 795 1256 725 1216 672 1216 c 0
 619 1216 571 1235 528 1272 c 2
 424 1368 l 2
 392 1395 355 1408 312 1408 c 0
 264 1408 192 1363 96 1272 c 1
264 296 m 1
 264 173 317 112 424 112 c 0
 509 112 595 147 680 216 c 1
 680 520 l 1
 520 520 l 2
 355 520 269 445 264 296 c 1
EndSplineSet
Validated: 1
EndChar

StartChar: adieresis
Encoding: 228 228 166
Width: 976
Flags: W
LayerCount: 2
Fore
SplineSet
96 304 m 0
 96 528 237 640 520 640 c 2
 680 640 l 1
 680 696 l 2
 680 749 665 787 636 808 c 0
 607 829 568 840 520 840 c 2
 384 840 l 2
 293 840 221 821 168 784 c 1
 104 872 l 1
 189 931 280 960 376 960 c 2
 552 960 l 2
 621 960 685 940 744 900 c 0
 803 860 832 792 832 696 c 2
 832 208 l 1
 872 0 l 1
 728 0 l 1
 696 88 l 1
 616 29 512 0 384 0 c 0
 192 0 96 101 96 304 c 0
120 1176 m 1
 120 1552 l 1
 344 1552 l 1
 344 1176 l 1
 120 1176 l 1
264 296 m 1
 264 173 317 112 424 112 c 0
 509 112 595 147 680 216 c 1
 680 520 l 1
 520 520 l 2
 355 520 269 445 264 296 c 1
592 1176 m 1
 592 1552 l 1
 816 1552 l 1
 816 1176 l 1
 592 1176 l 1
EndSplineSet
Validated: 1
EndChar

StartChar: aring
Encoding: 229 229 167
Width: 976
Flags: W
LayerCount: 2
Fore
SplineSet
96 304 m 0
 96 528 237 640 520 640 c 2
 680 640 l 1
 680 696 l 2
 680 749 665 787 636 808 c 0
 607 829 568 840 520 840 c 2
 384 840 l 2
 293 840 221 821 168 784 c 1
 104 872 l 1
 189 931 280 960 376 960 c 2
 552 960 l 2
 621 960 685 940 744 900 c 0
 803 860 832 792 832 696 c 2
 832 208 l 1
 872 0 l 1
 728 0 l 1
 696 88 l 1
 616 29 512 0 384 0 c 0
 192 0 96 101 96 304 c 0
256 1400 m 0
 256 1464 280 1520 328 1568 c 0
 371 1616 424 1640 488 1640 c 0
 552 1640 608 1616 656 1568 c 0
 699 1520 720 1464 720 1400 c 0
 720 1331 699 1272 656 1224 c 0
 608 1176 552 1152 488 1152 c 0
 424 1152 371 1176 328 1224 c 0
 280 1272 256 1331 256 1400 c 0
264 296 m 1
 264 173 317 112 424 112 c 0
 509 112 595 147 680 216 c 1
 680 520 l 1
 520 520 l 2
 355 520 269 445 264 296 c 1
336 1392 m 0
 336 1349 351 1312 380 1280 c 0
 409 1248 445 1232 488 1232 c 0
 531 1232 568 1248 600 1280 c 0
 627 1312 640 1349 640 1392 c 0
 640 1440 625 1480 596 1512 c 0
 567 1544 531 1560 488 1560 c 0
 445 1560 408 1544 376 1512 c 0
 349 1480 336 1440 336 1392 c 0
EndSplineSet
Validated: 1
EndChar

